<svg width="32" height="33" viewBox="0 0 32 33" fill="none" xmlns="http://www.w3.org/2000/svg">
<g clip-path="url(#clip0_2023_314)">
<path d="M26.3751 24.0333L23.0001 17.1833L26.5001 15.5033L26.0651 14.6033L22.1301 16.5033C22.0709 16.5321 22.018 16.5723 21.9744 16.6216C21.9308 16.6709 21.8973 16.7283 21.876 16.7905C21.8546 16.8528 21.8457 16.9186 21.8499 16.9843C21.854 17.05 21.8711 17.1142 21.9001 17.1733L22.1551 17.6733C21.4351 17.7383 20.1951 17.6083 18.1551 16.7833C17.4071 16.4513 16.5865 16.3166 15.7716 16.3918C14.9567 16.4671 14.1746 16.7499 13.5001 17.2133C12.8492 17.6678 12.2781 18.227 11.8101 18.8683C11.3261 18.7283 10.8647 18.5195 10.4401 18.2483L10.5601 18.0433C10.593 17.9863 10.6144 17.9235 10.6229 17.8583C10.6315 17.793 10.6271 17.7268 10.6101 17.6633C10.593 17.5994 10.5635 17.5396 10.5231 17.4872C10.4828 17.4349 10.4325 17.3911 10.3751 17.3583L6.69008 15.2533L6.19008 16.1183L9.44508 17.9783L5.58508 24.6083L2.33008 22.7483L1.83008 23.6133L5.50008 25.7233C5.61489 25.7885 5.75082 25.8056 5.87821 25.7709C6.0056 25.7363 6.11412 25.6526 6.18008 25.5383L6.30008 25.3333L7.25508 26.0383L7.15008 26.1933C7.05027 26.3376 6.9799 26.5003 6.94301 26.6719C6.90612 26.8435 6.90342 27.0206 6.93508 27.1933C6.966 27.3702 7.03189 27.5391 7.12891 27.6902C7.22592 27.8413 7.35211 27.9715 7.50008 28.0733L7.73508 28.2333C7.96003 28.3886 8.22671 28.4723 8.50008 28.4733C8.53837 28.4757 8.57678 28.4757 8.61508 28.4733C8.68873 28.7714 8.86594 29.0337 9.11508 29.2133L9.35008 29.3783C9.57364 29.532 9.83875 29.614 10.1101 29.6133C10.1932 29.6209 10.2769 29.6209 10.3601 29.6133C10.4565 29.5939 10.5504 29.5637 10.6401 29.5233C10.7402 29.6927 10.8748 29.8392 11.0351 29.9533L11.2701 30.1133C11.4932 30.2685 11.7583 30.3522 12.0301 30.3533H12.1501C12.232 30.653 12.4182 30.9136 12.6751 31.0883L12.9051 31.2483C13.1286 31.402 13.3938 31.484 13.6651 31.4833C13.8852 31.4837 14.1021 31.4306 14.2971 31.3287C14.4922 31.2268 14.6597 31.0791 14.7851 30.8983L14.9251 30.6933L16.2751 31.5083C16.5061 31.6474 16.7704 31.7217 17.0401 31.7233C17.2986 31.7234 17.5527 31.6567 17.7779 31.5297C18.003 31.4027 18.1915 31.2196 18.3251 30.9983C18.4174 30.8446 18.4802 30.675 18.5101 30.4983C18.6432 30.5377 18.7812 30.5579 18.9201 30.5583C19.1786 30.5584 19.4327 30.4917 19.6579 30.3647C19.883 30.2377 20.0715 30.0546 20.2051 29.8333C20.2999 29.6713 20.3643 29.4934 20.3951 29.3083C20.5263 29.3484 20.6628 29.3687 20.8001 29.3683C21.0577 29.3675 21.3109 29.3004 21.5351 29.1735C21.7593 29.0465 21.947 28.8639 22.0801 28.6433C22.1669 28.4982 22.2278 28.3392 22.2601 28.1733L22.3351 28.2183C22.5676 28.3583 22.8337 28.4326 23.1051 28.4333C23.3636 28.4334 23.6177 28.3667 23.8429 28.2397C24.068 28.1127 24.2565 27.9296 24.3901 27.7083C24.5283 27.4753 24.6009 27.2092 24.6001 26.9383C24.6011 26.7261 24.557 26.516 24.4708 26.3221C24.3846 26.1282 24.2583 25.9547 24.1001 25.8133C24.4347 25.2656 24.8729 24.7884 25.3901 24.4083L25.6751 24.9833C25.7163 25.0674 25.7804 25.1383 25.8599 25.1878C25.9395 25.2373 26.0314 25.2635 26.1251 25.2633C26.1996 25.2628 26.273 25.2457 26.3401 25.2133L30.2751 23.3133L29.8401 22.4133L26.3751 24.0333ZM8.81008 27.3183C8.78353 27.3575 8.74942 27.391 8.70974 27.4168C8.67006 27.4426 8.62562 27.4602 8.57903 27.4686C8.53245 27.477 8.48465 27.476 8.43846 27.4656C8.39227 27.4552 8.34862 27.4357 8.31008 27.4083L8.07508 27.2483C8.03588 27.2217 8.0024 27.1876 7.97658 27.1479C7.95077 27.1083 7.93315 27.0638 7.92476 27.0172C7.91638 26.9706 7.91739 26.9228 7.92775 26.8767C7.93811 26.8305 7.9576 26.7868 7.98508 26.7483L8.72008 25.6833C8.7729 25.607 8.85383 25.5549 8.94508 25.5383C8.99103 25.5304 9.03808 25.5316 9.08355 25.5419C9.12901 25.5522 9.17201 25.5714 9.21008 25.5983L9.44008 25.7583C9.47929 25.7828 9.51261 25.8157 9.53767 25.8546C9.56273 25.8935 9.57891 25.9374 9.58508 25.9833C9.59485 26.0288 9.595 26.0759 9.58553 26.1216C9.57606 26.1672 9.55717 26.2104 9.53008 26.2483L8.81008 27.3183ZM10.4451 28.4483C10.3923 28.5245 10.3113 28.5767 10.2201 28.5933C10.128 28.6081 10.0337 28.5885 9.95508 28.5383L9.72008 28.3783C9.68088 28.3517 9.6474 28.3176 9.62158 28.2779C9.59577 28.2383 9.57815 28.1938 9.56976 28.1472C9.56138 28.1006 9.56239 28.0528 9.57275 28.0067C9.58311 27.9605 9.6026 27.9168 9.63008 27.8783L10.6301 26.4133C10.6556 26.3749 10.6888 26.3423 10.7275 26.3173C10.7662 26.2924 10.8096 26.2757 10.8551 26.2683H10.9201C10.9912 26.2681 11.0608 26.289 11.1201 26.3283L11.3501 26.4883C11.427 26.5413 11.4807 26.6218 11.5001 26.7133C11.5082 26.7592 11.5071 26.8063 11.4968 26.8518C11.4865 26.8973 11.4672 26.9403 11.4401 26.9783L10.4451 28.4483ZM12.3651 29.1833C12.3385 29.2225 12.3044 29.256 12.2647 29.2818C12.2251 29.3076 12.1806 29.3252 12.134 29.3336C12.0874 29.342 12.0397 29.341 11.9935 29.3306C11.9473 29.3202 11.9036 29.3007 11.8651 29.2733L11.6301 29.1133C11.555 29.0593 11.5032 28.9789 11.4851 28.8883C11.4703 28.7962 11.4898 28.7019 11.5401 28.6233L12.2651 27.5733C12.3188 27.4944 12.4017 27.4401 12.4954 27.4223C12.5892 27.4045 12.6862 27.4246 12.7651 27.4783L13.0001 27.6433C13.0393 27.6698 13.0728 27.7039 13.0986 27.7436C13.1244 27.7833 13.142 27.8277 13.1504 27.8743C13.1588 27.9209 13.1578 27.9687 13.1474 28.0149C13.137 28.0611 13.1176 28.1047 13.0901 28.1433L12.3651 29.1833ZM14.4451 29.6833L14.0001 30.2933C13.9448 30.3703 13.8616 30.4227 13.7683 30.4395C13.675 30.4563 13.5788 30.4362 13.5001 30.3833L13.2651 30.2233C13.2259 30.1967 13.1924 30.1626 13.1666 30.1229C13.1408 30.0833 13.1231 30.0388 13.1148 29.9922C13.1064 29.9456 13.1074 29.8978 13.1178 29.8517C13.1281 29.8055 13.1476 29.7618 13.1751 29.7233L13.6201 29.0783C13.6466 29.0391 13.6807 29.0056 13.7204 28.9798C13.7601 28.954 13.8045 28.9363 13.8511 28.928C13.8977 28.9196 13.9455 28.9206 13.9917 28.9309C14.0379 28.9413 14.0815 28.9608 14.1201 28.9883L14.3501 29.1483C14.3897 29.1744 14.4236 29.2082 14.4499 29.2477C14.4762 29.2872 14.4943 29.3316 14.5032 29.3782C14.512 29.4248 14.5114 29.4727 14.5015 29.5191C14.4915 29.5655 14.4723 29.6094 14.4451 29.6483V29.6833ZM23.5751 27.1833C23.5069 27.2954 23.3973 27.3762 23.2701 27.4083C23.1427 27.4399 23.008 27.4201 22.8951 27.3533L19.8951 25.5583L19.3951 26.4133L21.1001 27.4133C21.2122 27.4815 21.293 27.591 21.3251 27.7183C21.3567 27.8456 21.3369 27.9803 21.2701 28.0933C21.2019 28.2054 21.0923 28.2862 20.9651 28.3183C20.8377 28.3499 20.703 28.3301 20.5901 28.2633L18.4601 26.9783L17.9601 27.8333L19.2401 28.6033C19.3501 28.6737 19.4302 28.7823 19.4651 28.9083C19.4865 29.0028 19.48 29.1016 19.4463 29.1925C19.4126 29.2835 19.3531 29.3626 19.2752 29.4204C19.1974 29.4781 19.1043 29.512 19.0075 29.5178C18.9108 29.5237 18.8144 29.5012 18.7301 29.4533L16.6001 28.1683L16.1001 29.0233L17.3851 29.8033C17.4688 29.8811 17.5233 29.9853 17.5395 30.0985C17.5557 30.2116 17.5327 30.3269 17.4742 30.4251C17.4157 30.5233 17.3254 30.5986 17.2182 30.6383C17.111 30.678 16.9934 30.6797 16.8851 30.6433L15.4651 29.7833C15.5196 29.5881 15.5315 29.3835 15.5001 29.1833C15.4685 29.0086 15.4028 28.8418 15.3067 28.6925C15.2106 28.5432 15.086 28.4143 14.9401 28.3133L14.6901 28.1833C14.5283 28.0724 14.3438 27.9989 14.1501 27.9683C14.16 27.8719 14.16 27.7747 14.1501 27.6783C14.1193 27.5027 14.0533 27.3352 13.9563 27.1857C13.8592 27.0362 13.7329 26.9078 13.5851 26.8083L13.3551 26.6483C13.0974 26.4717 12.7862 26.3904 12.4751 26.4183C12.3857 26.1167 12.1927 25.8564 11.9301 25.6833L11.6951 25.5233C11.4033 25.3222 11.0437 25.2449 10.6951 25.3083C10.5992 25.3276 10.5055 25.3561 10.4151 25.3933C10.3148 25.2254 10.1802 25.0806 10.0201 24.9683L9.78508 24.8083C9.48974 24.6056 9.12618 24.5282 8.77388 24.5928C8.42159 24.6575 8.10922 24.859 7.90508 25.1533L7.85508 25.2283L6.85508 24.4783L9.94508 19.1283C10.3515 19.3839 10.7861 19.592 11.2401 19.7483C10.7502 20.4838 10.4182 21.3129 10.2651 22.1833C10.2776 22.4414 10.3783 22.6874 10.5503 22.8803C10.7222 23.0731 10.9551 23.2013 11.2101 23.2433C12.1201 23.4833 13.8401 23.1183 15.1001 21.2433L23.4001 26.4483C23.474 26.4921 23.5354 26.5542 23.5783 26.6287C23.6212 26.7031 23.6442 26.7873 23.6451 26.8733C23.6451 26.963 23.6209 27.0511 23.5751 27.1283V27.1833ZM23.2851 25.1833L19.6051 22.8783C20.1465 22.5658 20.6071 22.1309 20.9501 21.6083L20.0801 21.1083C19.7165 21.6251 19.2087 22.0234 18.6201 22.2533L15.2051 20.1133C15.1475 20.0773 15.0833 20.0535 15.0162 20.0432C14.9492 20.0329 14.8808 20.0363 14.8151 20.0533C14.7503 20.0697 14.6895 20.099 14.6363 20.1394C14.583 20.1797 14.5384 20.2304 14.5051 20.2883C13.6701 21.7633 12.5051 22.2883 11.7701 22.2883C11.5932 22.3064 11.4157 22.2603 11.2701 22.1583C11.6932 20.5062 12.6667 19.0477 14.0301 18.0233C14.5672 17.6483 15.1927 17.4198 15.845 17.3601C16.4973 17.3005 17.1539 17.4119 17.7501 17.6833C19.8001 18.5183 21.4251 18.8183 22.5901 18.5933L24.9651 23.4183C24.2911 23.8865 23.7195 24.487 23.2851 25.1833Z" fill="#E5963A"/>
<path d="M26.7002 21.8984L27.6959 21.4089L28.1369 22.3059L27.1412 22.7954L26.7002 21.8984Z" fill="#E5963A"/>
<path d="M26 13.1834V4.68336C26.0004 4.61755 25.9878 4.55232 25.9629 4.4914C25.938 4.43049 25.9013 4.37508 25.855 4.32836L22.355 0.828358C22.3083 0.782017 22.2529 0.745355 22.192 0.720472C22.131 0.69559 22.0658 0.682978 22 0.683358H7C6.73478 0.683358 6.48043 0.788715 6.29289 0.976251C6.10536 1.16379 6 1.41814 6 1.68336V13.6834H7V1.68336H21.5V4.18336C21.5 4.44857 21.6054 4.70293 21.7929 4.89046C21.9804 5.078 22.2348 5.18336 22.5 5.18336H25V13.1834H26ZM22.5 4.18336V2.38836L24.295 4.18336H22.5Z" fill="#E5963A"/>
<path d="M11 8.68335C11 9.67226 11.2932 10.639 11.8427 11.4612C12.3921 12.2834 13.173 12.9243 14.0866 13.3027C15.0002 13.6812 16.0055 13.7802 16.9755 13.5873C17.9454 13.3944 18.8363 12.9181 19.5355 12.2189C20.2348 11.5196 20.711 10.6287 20.9039 9.6588C21.0969 8.6889 20.9978 7.68356 20.6194 6.76993C20.241 5.8563 19.6001 5.07541 18.7779 4.526C17.9556 3.97659 16.9889 3.68335 16 3.68335C14.6739 3.68335 13.4021 4.21013 12.4645 5.14782C11.5268 6.0855 11 7.35727 11 8.68335ZM20 8.68335C20 9.47447 19.7654 10.2478 19.3259 10.9056C18.8864 11.5634 18.2616 12.0761 17.5307 12.3789C16.7998 12.6816 15.9956 12.7608 15.2196 12.6065C14.4437 12.4522 13.731 12.0712 13.1716 11.5118C12.6122 10.9524 12.2312 10.2396 12.0769 9.46371C11.9225 8.68779 12.0017 7.88352 12.3045 7.15262C12.6072 6.42171 13.1199 5.797 13.7777 5.35747C14.4355 4.91795 15.2089 4.68335 16 4.68335C17.0609 4.68335 18.0783 5.10478 18.8284 5.85492C19.5786 6.60507 20 7.62248 20 8.68335Z" fill="#E5963A"/>
<path d="M14.1446 8.60835L13.4346 9.31835L14.6746 10.5533C14.7683 10.6465 14.895 10.6987 15.0271 10.6987C15.1592 10.6987 15.2859 10.6465 15.3796 10.5533L18.5646 7.37335L17.8546 6.68335L15.0296 9.51335L14.1446 8.60835Z" fill="#E5963A"/>
</g>
<defs>
<clipPath id="clip0_2023_314">
<rect width="32" height="32" fill="white" transform="translate(0 0.107666)"/>
</clipPath>
</defs>
</svg>
