<svg width="10" height="20" viewBox="0 0 10 20" fill="none" xmlns="http://www.w3.org/2000/svg">
<path d="M5.58289 19.1677C5.58311 19.1675 5.58336 19.1673 5.58358 19.1671L9.3552 15.3772C9.63774 15.0933 9.63669 14.634 9.35273 14.3514C9.06881 14.0688 8.60958 14.0699 8.327 14.3538L5.79479 16.8984L5.79479 1.53781C5.79479 1.13722 5.47007 0.8125 5.06948 0.8125C4.66889 0.8125 4.34417 1.13722 4.34417 1.53781L4.34417 16.8983L1.81196 14.3539C1.52938 14.07 1.07015 14.0689 0.786229 14.3514C0.502234 14.6341 0.501255 15.0933 0.783764 15.3772L4.55538 19.1671C4.5556 19.1673 4.55585 19.1675 4.55607 19.1678C4.83959 19.4518 5.30031 19.4509 5.58289 19.1677Z" fill="white"/>
</svg>
