<svg width="20" height="10" viewBox="0 0 20 10" fill="none" xmlns="http://www.w3.org/2000/svg">
<path d="M19.0759 4.16699C19.0757 4.16677 19.0755 4.16651 19.0753 4.1663L15.2854 0.39468C15.0015 0.112135 14.5422 0.113186 14.2596 0.397146C13.977 0.681069 13.9781 1.1403 14.262 1.42288L16.8066 3.95509H1.44601C1.04542 3.95509 0.720703 4.27981 0.720703 4.6804C0.720703 5.08099 1.04542 5.40571 1.44601 5.40571H16.8065L14.2621 7.93791C13.9782 8.2205 13.9771 8.67973 14.2596 8.96365C14.5423 9.24764 15.0015 9.24862 15.2854 8.96611L19.0753 5.1945C19.0755 5.19428 19.0757 5.19403 19.076 5.19381C19.36 4.91028 19.3591 4.44957 19.0759 4.16699Z" fill="white"/>
</svg>
