<svg width="30" height="15" viewBox="0 0 30 15" fill="none" xmlns="http://www.w3.org/2000/svg">
<path d="M28.7316 7.17053C28.7312 7.17019 28.7309 7.16979 28.7306 7.16945L22.9498 1.2763C22.5168 0.834825 21.8163 0.836468 21.3852 1.28015C20.9542 1.72378 20.9559 2.44133 21.3889 2.88287L25.2701 6.83944H1.84069C1.22967 6.83944 0.734375 7.34681 0.734375 7.97273C0.734375 8.59866 1.22967 9.10603 1.84069 9.10603H25.2701L21.389 13.0626C20.9559 13.5041 20.9543 14.2217 21.3853 14.6653C21.8164 15.1091 22.5169 15.1106 22.9499 14.6692L28.7306 8.77602C28.7309 8.77568 28.7312 8.77528 28.7316 8.77494C29.1649 8.33193 29.1635 7.61206 28.7316 7.17053Z" fill="white"/>
</svg>
