<svg width="30" height="15" viewBox="0 0 30 15" fill="none" xmlns="http://www.w3.org/2000/svg">
<path d="M1.28309 7.17053C1.28342 7.17019 1.2837 7.16979 1.28409 7.16945L7.06481 1.2763C7.49787 0.834825 8.19834 0.836468 8.62941 1.28015C9.06043 1.72378 9.05877 2.44133 8.6257 2.88287L4.74453 6.83944H28.174C28.785 6.83944 29.2803 7.34681 29.2803 7.97273C29.2803 8.59866 28.785 9.10603 28.174 9.10603H4.74459L8.62565 13.0626C9.05872 13.5041 9.06038 14.2217 8.62936 14.6653C8.19828 15.1091 7.49776 15.1106 7.06475 14.6692L1.28403 8.77602C1.2837 8.77568 1.28342 8.77528 1.28304 8.77494C0.849749 8.33193 0.851131 7.61206 1.28309 7.17053Z" fill="white"/>
</svg>
