<svg width="50" height="50" viewBox="0 0 50 50" fill="none" xmlns="http://www.w3.org/2000/svg">
<g clip-path="url(#clip0_2025_845)">
<mask id="mask0_2025_845" style="mask-type:luminance" maskUnits="userSpaceOnUse" x="-3" y="-2" width="51" height="51">
<path d="M-2.53027 -1.0122H47.4697V48.9878H-2.53027V-1.0122Z" fill="white"/>
</mask>
<g mask="url(#mask0_2025_845)">
<path d="M13.8581 13.0282V16.1594C13.8581 17.0242 13.1571 17.7252 12.2925 17.7251H11.2299C10.2061 17.7251 9.27331 18.4617 9.17126 19.4803C9.05398 20.6517 9.97077 21.6392 11.1182 21.6392H12.2925V20.8564C12.2925 26.4768 16.8487 31.0331 22.4691 31.0331C28.0871 31.0331 32.6414 26.4809 32.6455 20.8639V21.6392H33.7085C34.7322 21.6392 35.665 20.9026 35.767 19.884C35.8842 18.7126 34.9675 17.7252 33.8201 17.7252H32.6459C31.7811 17.7252 31.0801 17.0242 31.0801 16.1594V13.0282" stroke="#E5963A" stroke-width="1.5" stroke-miterlimit="10" stroke-linecap="round" stroke-linejoin="round"/>
<path d="M10.7275 48.2552V36.9533" stroke="#E5963A" stroke-width="1.5" stroke-miterlimit="10" stroke-linecap="round" stroke-linejoin="round"/>
<path d="M34.2119 48.2554V36.9533" stroke="#E5963A" stroke-width="1.5" stroke-miterlimit="10" stroke-linecap="round" stroke-linejoin="round"/>
<path d="M13.8584 36.1704V42.7755C13.8584 43.6401 14.5594 44.3411 15.424 44.3411L29.5146 44.3412C30.3793 44.3412 31.0804 43.6403 31.0804 42.7756V39.6442" stroke="#E5963A" stroke-width="1.5" stroke-miterlimit="10" stroke-linecap="round" stroke-linejoin="round"/>
<path d="M13.8581 11.0218C12.0255 11.5434 10.4293 12.2264 9.16113 13.0282H35.7771C32.7746 11.13 27.9332 9.89685 22.4691 9.89685C20.5479 9.89685 18.7037 10.0493 16.9894 10.3296" stroke="#E5963A" stroke-width="1.5" stroke-miterlimit="10" stroke-linecap="round" stroke-linejoin="round"/>
<path d="M17.7725 18.508V19.2908" stroke="#E5963A" stroke-width="1.5" stroke-miterlimit="10" stroke-linecap="round" stroke-linejoin="round"/>
<path d="M27.166 18.508V19.2908" stroke="#E5963A" stroke-width="1.5" stroke-miterlimit="10" stroke-linecap="round" stroke-linejoin="round"/>
<path d="M20.1211 23.9877C20.5934 24.4537 21.4629 24.7705 22.4695 24.7705C23.4763 24.7705 24.3457 24.4537 24.8181 23.9877" stroke="#E5963A" stroke-width="1.5" stroke-miterlimit="10" stroke-linecap="round" stroke-linejoin="round"/>
<path d="M16.9893 16.1595H18.5549" stroke="#E5963A" stroke-width="1.5" stroke-miterlimit="10" stroke-linecap="round" stroke-linejoin="round"/>
<path d="M26.3838 16.1595H27.9494" stroke="#E5963A" stroke-width="1.5" stroke-miterlimit="10" stroke-linecap="round" stroke-linejoin="round"/>
<path d="M16.9896 29.4674V33.19C16.9896 34.2318 16.3033 35.1491 15.3038 35.443L7.05322 37.8697C5.0543 38.4576 3.68164 40.2921 3.68164 42.3757V48.2551" stroke="#E5963A" stroke-width="1.5" stroke-miterlimit="10" stroke-linecap="round" stroke-linejoin="round"/>
<path d="M27.9492 29.4674V33.19C27.9492 34.2318 28.6355 35.1491 29.6351 35.443L37.8856 37.8697C39.8846 38.4576 41.2572 40.2921 41.2572 42.3757V48.2551" stroke="#E5963A" stroke-width="1.5" stroke-miterlimit="10" stroke-linecap="round" stroke-linejoin="round"/>
<path d="M29.4821 35.5415C27.5817 37.1256 25.1368 38.0785 22.4693 38.0785C19.8213 38.0785 17.3925 37.1393 15.498 35.576" stroke="#E5963A" stroke-width="1.5" stroke-miterlimit="10" stroke-linecap="round" stroke-linejoin="round"/>
<path d="M20.9041 1.28589H20.1213C18.7844 1.28589 17.5126 1.56519 16.3613 2.0686" stroke="#E5963A" stroke-width="1.5" stroke-miterlimit="10" stroke-linecap="round" stroke-linejoin="round"/>
<path d="M28.7322 2.1377C27.5406 1.59082 26.2149 1.28584 24.818 1.28584H24.0352" stroke="#E5963A" stroke-width="1.5" stroke-miterlimit="10" stroke-linecap="round" stroke-linejoin="round"/>
<path d="M24.0346 2.85156V0.503125C24.0346 0.0707031 23.6841 -0.279687 23.2518 -0.279687H21.6861C21.2537 -0.279687 20.9033 0.0707031 20.9033 0.503125V2.85156" stroke="#E5963A" stroke-width="1.5" stroke-miterlimit="10" stroke-linecap="round" stroke-linejoin="round"/>
<path d="M16.2063 3.63428V2.06865C16.2063 1.63633 15.8559 1.28584 15.4235 1.28584H14.6406C13.776 1.28584 13.0751 1.98662 13.075 2.85117L13.0747 4.46651C11.6133 6.12237 10.7266 8.29746 10.7266 10.6797V17.7251" stroke="#E5963A" stroke-width="1.5" stroke-miterlimit="10" stroke-linecap="round" stroke-linejoin="round"/>
<path d="M28.7324 3.63428V2.06865C28.7324 1.63633 29.0829 1.28584 29.5152 1.28584H30.2982C31.1628 1.28584 31.8637 1.98662 31.8639 2.85117L31.8641 4.46651C33.3255 6.12246 34.2122 8.29746 34.2122 10.6797V17.7251" stroke="#E5963A" stroke-width="1.5" stroke-miterlimit="10" stroke-linecap="round" stroke-linejoin="round"/>
</g>
</g>
<defs>
<clipPath id="clip0_2025_845">
<rect width="50" height="50" fill="white"/>
</clipPath>
</defs>
</svg>
