<svg width="38" height="38" viewBox="0 0 38 38" fill="none" xmlns="http://www.w3.org/2000/svg">
<path d="M5.00631 27.7363C4.93955 28.0364 4.90527 28.3444 4.90527 28.6517V33.1714V36.7799C4.90527 37.4433 5.44475 37.9827 6.10811 37.9827H9.71664C10.38 37.9827 10.9195 37.4433 10.9195 36.7799V34.9756H26.5564V36.7799C26.5564 37.4433 27.0959 37.9827 27.7593 37.9827H31.3678C32.0312 37.9827 32.5706 37.4433 32.5706 36.7799V33.1714V28.6517C32.5706 27.527 32.1322 26.4697 31.3371 25.6747L30.6431 24.9806L32.0678 24.7431C32.3577 24.6949 32.5706 24.4441 32.5706 24.1501V22.3458C32.5706 22.0132 32.3018 21.7444 31.9692 21.7444H28.3932L27.6751 19.5901C27.2655 18.3608 26.1186 17.5344 24.8225 17.5344H12.6534C11.3573 17.5344 10.2104 18.3608 9.80084 19.5901L9.08274 21.7444H5.50669C5.17411 21.7444 4.90527 22.0132 4.90527 22.3458V24.1501C4.90527 24.4441 5.11818 24.6949 5.40806 24.7431L6.83283 24.9806L6.13879 25.6747C5.57165 26.2412 5.18072 26.9539 5.00631 27.7363ZM9.36421 24.1501H28.1117L29.9178 25.9561L23.9739 27.785C23.7213 27.8626 23.5493 28.096 23.5493 28.36H19.9408C19.7808 28.36 19.6281 28.4231 19.5156 28.5362L18.738 29.3139L17.9603 28.5362C17.8478 28.4231 17.6951 28.36 17.5351 28.36H13.9266C13.9266 28.096 13.7546 27.8626 13.502 27.785L7.55814 25.9561L9.36421 24.1501ZM30.8247 26.9358C31.0394 27.2426 31.1886 27.5842 31.2758 27.9468C30.9757 28.5585 30.3484 28.9614 29.6586 28.9614H26.6935C26.4921 28.9614 26.305 28.8616 26.1932 28.6938L26.0091 28.4177L30.8247 26.9358ZM11.4668 28.4171L11.2827 28.6932C11.1709 28.8616 10.9832 28.9614 10.7818 28.9614H7.81675C7.12452 28.9614 6.49543 28.5555 6.19652 27.9402C6.28553 27.5781 6.4407 27.2396 6.6518 26.9364L11.4668 28.4171ZM9.71664 36.7799H6.10811V34.865C6.29696 34.9323 6.49784 34.9756 6.70954 34.9756H9.71664V36.7799ZM12.1223 33.7728L12.8446 32.8099C12.9571 32.6596 13.1369 32.5699 13.3252 32.5699H24.1507C24.339 32.5699 24.5188 32.6596 24.6319 32.8099L25.3536 33.7728H12.1223ZM27.7593 36.7799V34.9756H30.7664C30.9781 34.9756 31.1789 34.9323 31.3678 34.865V36.7799H27.7593ZM30.7664 33.7728H26.8565L25.5935 32.0888C25.2555 31.6365 24.7155 31.3671 24.1507 31.3671H13.3252C12.7604 31.3671 12.2204 31.6365 11.8824 32.0888L10.6194 33.7728H6.70954C6.37755 33.7728 6.10811 33.5033 6.10811 33.1714V29.6278C6.60128 29.9688 7.19488 30.1643 7.81735 30.1643H10.7824C11.3868 30.1643 11.9479 29.8642 12.2835 29.3608L12.6666 28.7864L12.7237 28.8038V28.9614C12.7237 29.294 12.9926 29.5628 13.3252 29.5628H17.2861L18.3127 30.5895C18.43 30.7067 18.584 30.7657 18.738 30.7657C18.8919 30.7657 19.0459 30.7067 19.1632 30.5895L20.1898 29.5628H24.1507C24.4833 29.5628 24.7522 29.294 24.7522 28.9614V28.8038L24.8093 28.7864L25.1924 29.3608C25.528 29.8642 26.0897 30.1643 26.6941 30.1643H29.6592C30.2816 30.1643 30.8752 29.9688 31.3684 29.6278V33.1714C31.3678 33.5033 31.0984 33.7728 30.7664 33.7728ZM31.3678 22.9472V23.64L29.5978 23.9353L28.9621 23.2996V22.9472H31.3678ZM10.9411 19.9714C11.1877 19.2328 11.8757 18.7373 12.6534 18.7373H24.8225C25.6002 18.7373 26.2882 19.2328 26.5348 19.9708L27.5265 22.9472H9.94939L10.9411 19.9714ZM6.10811 23.64V22.9472H8.5138V23.2996L7.8781 23.9353L6.10811 23.64Z" fill="#E5963A"/>
<path d="M7.31055 31.3669H9.71623V32.5698H7.31055V31.3669Z" fill="#E5963A"/>
<path d="M27.7588 31.3669H30.1645V32.5698H27.7588V31.3669Z" fill="#E5963A"/>
<path d="M28.7857 5.68208C28.6733 5.56901 28.5205 5.50586 28.3605 5.50586H9.11506C8.95508 5.50586 8.80232 5.56901 8.68986 5.68208L0.269966 14.102C0.156899 14.2144 0.09375 14.3678 0.09375 14.5272V37.3812C0.09375 37.7137 0.362585 37.9826 0.695171 37.9826H3.10085C3.43344 37.9826 3.70227 37.7137 3.70227 37.3812V15.979L10.5669 9.11438H10.9741C11.0312 10.0135 10.941 11.2055 10.3702 12.4769C9.75257 13.8542 8.82277 14.7449 8.15219 15.2495L8.87449 16.2111C9.65875 15.6218 10.7449 14.5807 11.4678 12.9695C12.1192 11.5177 12.2352 10.156 12.1781 9.11499H12.919C13.3797 10.2763 13.9481 11.3974 14.6235 12.4475C15.3392 13.5613 16.1751 14.6054 17.1061 15.5514L17.9638 14.7076C17.0905 13.8205 16.3069 12.8414 15.6351 11.7973C15.0878 10.9463 14.6139 10.0466 14.2157 9.11559H23.2605C22.8623 10.0466 22.3884 10.9463 21.8411 11.7973C21.1693 12.8414 20.3857 13.8211 19.5124 14.7076L20.3701 15.5514C21.3011 14.6054 22.137 13.5613 22.8527 12.4475C23.5281 11.3974 24.0965 10.2763 24.5571 9.11499H25.2981C25.241 10.1566 25.357 11.5177 26.0084 12.9695C26.7307 14.5807 27.8174 15.6218 28.6017 16.2111L29.324 15.2495C28.6534 14.7449 27.7236 13.8542 27.106 12.4769C26.5358 11.2055 26.445 10.0135 26.5021 9.11438H26.9093L33.7733 15.979V37.3812C33.7733 37.7137 34.0421 37.9826 34.3747 37.9826H36.7804C37.113 37.9826 37.3818 37.7137 37.3818 37.3812V14.5272C37.3818 14.3678 37.3187 14.2144 37.2056 14.102L28.7857 5.68208ZM36.179 36.7797H34.9762V15.73C34.9762 15.5706 34.913 15.4173 34.7999 15.3048L27.5829 8.08776C27.4704 7.97469 27.3177 7.91154 27.1577 7.91154H10.3179C10.1579 7.91154 10.0052 7.97469 9.8927 8.08776L2.67565 15.3048C2.56258 15.4173 2.49943 15.5706 2.49943 15.73V36.7797H1.29659V14.7762L9.36405 6.7087H28.1115L36.179 14.7762V36.7797Z" fill="#E5963A"/>
<path d="M36.7804 0.69458H0.695171C0.362585 0.69458 0.09375 0.964017 0.09375 1.296V3.70168C0.09375 4.03367 0.362585 4.3031 0.695171 4.3031H36.7804C37.113 4.3031 37.3818 4.03367 37.3818 3.70168V1.296C37.3818 0.964017 37.113 0.69458 36.7804 0.69458ZM36.179 3.10026H1.29659V1.89742H36.179V3.10026Z" fill="#E5963A"/>
<path d="M11.5205 15.7302H12.7233V16.9331H11.5205V15.7302Z" fill="#E5963A"/>
<path d="M6.10742 16.9331H7.31026V18.1359H6.10742V16.9331Z" fill="#E5963A"/>
<path d="M7.31055 19.3386H8.51339V20.5415H7.31055V19.3386Z" fill="#E5963A"/>
<path d="M12.7227 13.3245H13.9255V14.5273H12.7227V13.3245Z" fill="#E5963A"/>
<path d="M18.1357 12.7231H19.3386V13.926H18.1357V12.7231Z" fill="#E5963A"/>
<path d="M16.332 10.3174H17.5349V11.5202H16.332V10.3174Z" fill="#E5963A"/>
<path d="M24.752 15.7302H25.9548V16.9331H24.752V15.7302Z" fill="#E5963A"/>
<path d="M30.1641 16.9331H31.3669V18.1359H30.1641V16.9331Z" fill="#E5963A"/>
<path d="M28.9619 19.3386H30.1648V20.5415H28.9619V19.3386Z" fill="#E5963A"/>
<path d="M23.5488 13.3245H24.7517V14.5273H23.5488V13.3245Z" fill="#E5963A"/>
<path d="M19.9404 10.3174H21.1433V11.5202H19.9404V10.3174Z" fill="#E5963A"/>
</svg>
