<svg width="61" height="60" viewBox="0 0 61 60" fill="none" xmlns="http://www.w3.org/2000/svg">
<path d="M30.8229 15.4386C27.1054 15.4386 23.5711 17.2302 21.3689 20.2311C21.145 20.5363 21.1123 20.9359 21.2838 21.274C21.4555 21.6126 21.7976 21.8227 22.1768 21.8227H22.178L39.4537 21.8004C39.8334 21.8 40.1756 21.589 40.3467 21.2497C40.5173 20.9111 40.4837 20.5114 40.2589 20.2068C38.0562 17.2212 34.5287 15.4386 30.8229 15.4386ZM23.3009 20.289C25.2198 18.1943 27.9589 16.9709 30.8229 16.9709C33.6767 16.9709 36.4091 18.1872 38.327 20.2697L23.3009 20.289Z" fill="#E5963A"/>
<path d="M21.2838 38.1283C21.1123 38.4664 21.145 38.8661 21.3689 39.1713C23.5711 42.1722 27.1053 43.9637 30.8229 43.9637C34.5287 43.9637 38.0562 42.1813 40.2589 39.1956C40.4838 38.8909 40.5173 38.4912 40.3467 38.1525C40.1755 37.8131 39.8334 37.6022 39.4539 37.6018L22.178 37.5795C22.1774 37.5795 22.1772 37.5795 22.1768 37.5795C21.7975 37.5796 21.4554 37.7898 21.2838 38.1283ZM38.327 39.1327C36.4092 41.2152 33.6767 42.4315 30.8229 42.4315C27.9589 42.4315 25.2197 41.208 23.3008 39.1134L38.327 39.1327Z" fill="#E5963A"/>
<path d="M55.2703 23.3315H52.0971C52.1203 23.2126 52.1584 23.0947 52.2128 22.9804C53.0516 21.2187 52.9707 19.1594 51.9962 17.4719C51.022 15.7844 49.2791 14.6846 47.334 14.5301C46.6102 14.4726 46.0431 13.9055 45.9856 13.1817C45.8311 11.2368 44.7313 9.4939 43.0438 8.51945C41.3563 7.54511 39.297 7.46412 37.5354 8.3029C36.8795 8.61488 36.1051 8.40744 35.6932 7.80927C34.5869 6.20205 32.763 5.24255 30.8145 5.24255C28.8659 5.24255 27.042 6.20195 25.9357 7.80917C25.524 8.40734 24.7493 8.61478 24.0936 8.3028C22.3319 7.46401 20.2726 7.545 18.5851 8.51935C16.8975 9.4938 15.7978 11.2366 15.6433 13.1816C15.5858 13.9054 15.0187 14.4725 14.2949 14.53C12.3499 14.6845 10.6069 15.7842 9.63267 17.4718C8.65822 19.1593 8.57733 21.2186 9.41611 22.9803C9.47048 23.0946 9.50734 23.2126 9.53079 23.3314H6.35863C5.39033 23.3315 4.60254 24.1193 4.60254 25.0876V34.3148C4.60254 35.2831 5.39033 36.0709 6.35863 36.0709H9.5313C9.50796 36.1898 9.47048 36.3078 9.41611 36.422C8.57733 38.1838 8.65822 40.243 9.63267 41.9305C10.6069 43.6181 12.3498 44.7179 14.2949 44.8724C15.0187 44.9299 15.5858 45.497 15.6433 46.2208C15.7978 48.1657 16.8976 49.9086 18.5851 50.883C20.273 51.8574 22.332 51.9383 24.0936 51.0996C24.7495 50.7876 25.5238 50.9949 25.9357 51.5932C27.042 53.2004 28.8658 54.1598 30.8145 54.1598C32.7631 54.1598 34.5869 53.2003 35.6932 51.5932C36.1051 50.995 36.8799 50.7878 37.5354 51.0996C39.2971 51.9386 41.3563 51.8573 43.0438 50.883C44.7314 49.9086 45.8311 48.1658 45.9856 46.2208C46.0431 45.497 46.6102 44.9299 47.334 44.8724C49.279 44.7179 51.022 43.6181 51.9962 41.9305C52.9707 40.243 53.0516 38.1838 52.2128 36.422C52.1584 36.3078 52.1213 36.1898 52.0979 36.0709H55.2702C56.2385 36.0709 57.0263 35.2831 57.0263 34.3148V25.0876C57.0264 24.1193 56.2386 23.3315 55.2703 23.3315ZM10.9596 18.238C11.6818 16.9871 12.9739 16.172 14.4162 16.0574C15.895 15.94 17.0534 14.7815 17.1708 13.3028C17.2854 11.8607 18.1005 10.5685 19.3513 9.84623C20.6021 9.12407 22.1289 9.06437 23.4351 9.68609C24.7748 10.324 26.357 9.89967 27.1979 8.67795C28.0183 7.48613 29.3703 6.77472 30.8146 6.77472C32.2588 6.77472 33.6108 7.48623 34.4312 8.67795C35.2722 9.89967 36.8549 10.3239 38.194 9.68609C39.5003 9.06427 41.027 9.12407 42.2778 9.84623C43.5286 10.5685 44.3437 11.8607 44.4583 13.3028C44.5756 14.7815 45.7342 15.94 47.2129 16.0574C48.6551 16.172 49.9473 16.9871 50.6695 18.238C51.3917 19.4887 51.4514 21.0154 50.8296 22.3218C50.674 22.6486 50.5833 22.99 50.5505 23.3315H47.2255C46.2298 20.768 44.6383 18.4427 42.5459 16.572C42.2306 16.2901 41.7462 16.317 41.4642 16.6325C41.1822 16.9479 41.2092 17.4322 41.5247 17.7142C43.2829 19.2862 44.6522 21.2104 45.5682 23.3315H16.0577C18.5292 17.6277 24.2128 13.6268 30.8145 13.6268C33.6097 13.6268 36.3623 14.355 38.7746 15.7328C39.142 15.9425 39.6099 15.815 39.8198 15.4476C40.0297 15.0802 39.9019 14.6122 39.5345 14.4024C36.8911 12.8926 33.8758 12.0945 30.8145 12.0945C23.3513 12.0945 16.9587 16.7623 14.4006 23.3315H11.079C11.0462 22.99 10.9551 22.6487 10.7995 22.3218C10.1776 21.0154 10.2374 19.4888 10.9596 18.238ZM50.6693 41.1644C49.9471 42.4154 48.655 43.2305 47.2127 43.3451C45.7339 43.4625 44.5755 44.6209 44.4581 46.0997C44.3435 47.5418 43.5284 48.834 42.2776 49.5563C41.0268 50.2782 39.5 50.3381 38.1938 49.7164C36.8544 49.0788 35.272 49.5029 34.431 50.7245C33.6106 51.9164 32.2586 52.6278 30.8144 52.6278C29.3701 52.6278 28.0181 51.9164 27.1977 50.7245C26.6194 49.8845 25.6906 49.4216 24.7313 49.4216C24.2955 49.4216 23.8532 49.5171 23.4349 49.7164C22.1286 50.3383 20.602 50.2784 19.3511 49.5563C18.1003 48.834 17.2852 47.5418 17.1706 46.0997C17.0533 44.6209 15.8948 43.4625 14.416 43.3451C12.9738 43.2305 11.6816 42.4154 10.9594 41.1644C10.2372 39.9138 10.1775 38.3871 10.7993 37.0807C10.9549 36.7539 11.0463 36.4125 11.0791 36.0709H14.4014C16.9598 42.6399 23.3515 47.3079 30.8145 47.3079C38.2776 47.3079 44.6701 42.64 47.2281 36.0709H50.5493C50.582 36.4124 50.6738 36.7538 50.8294 37.0807C51.4513 38.3871 51.3915 39.9137 50.6693 41.1644ZM55.4941 34.3148C55.4941 34.4382 55.3937 34.5387 55.2703 34.5387H22.4806C22.0574 34.5387 21.7145 34.8817 21.7145 35.3048C21.7145 35.7278 22.0575 36.0708 22.4806 36.0708H45.5707C43.0992 41.7747 37.416 45.7756 30.8145 45.7756C24.2127 45.7756 18.5286 41.7749 16.0572 36.0709H18.8872C19.3104 36.0709 19.6533 35.7279 19.6533 35.3049C19.6533 34.8818 19.3103 34.5388 18.8872 34.5388H6.35863C6.23525 34.5388 6.13481 34.4383 6.13481 34.3149V25.0877C6.13481 24.9644 6.23525 24.8639 6.35863 24.8639H55.2703C55.3937 24.8639 55.4941 24.9644 55.4941 25.0877V34.3148Z" fill="#E5963A"/>
<path d="M33.3051 25.908C32.882 25.908 32.5391 26.251 32.5391 26.674V32.7284C32.5391 33.1516 32.8821 33.4945 33.3051 33.4945C33.7282 33.4945 34.0712 33.1515 34.0712 32.7284V26.674C34.0712 26.2509 33.7282 25.908 33.3051 25.908Z" fill="#E5963A"/>
<path d="M41.2563 25.908C40.8331 25.908 40.4902 26.251 40.4902 26.674V32.7284C40.4902 33.1516 40.8332 33.4945 41.2563 33.4945C41.6794 33.4945 42.0224 33.1515 42.0224 32.7284V26.674C42.0225 26.2509 41.6795 25.908 41.2563 25.908Z" fill="#E5963A"/>
<path d="M38.6345 27.4846C39.0576 27.4846 39.4005 27.1416 39.4005 26.7185C39.4005 26.2953 39.0575 25.9524 38.6345 25.9524H36.1987C35.7755 25.9524 35.4326 26.2953 35.4326 26.7185V32.7284C35.4326 33.1516 35.7755 33.4945 36.1987 33.4945C36.6219 33.4945 36.9648 33.1515 36.9648 32.7284V30.4326H38.4409C38.8641 30.4326 39.207 30.0897 39.207 29.6665C39.207 29.2433 38.864 28.9004 38.4409 28.9004H36.9648V27.4847H38.6345V27.4846Z" fill="#E5963A"/>
<path d="M18.8867 27.4954C19.3098 27.4954 19.6528 27.1524 19.6528 26.7293C19.6528 26.3062 19.3097 25.9633 18.8867 25.9633H16.3589C15.9357 25.9633 15.5928 26.3062 15.5928 26.7293V32.7284C15.5928 33.1516 15.9358 33.4945 16.3589 33.4945H18.8867C19.3098 33.4945 19.6528 33.1515 19.6528 32.7284C19.6528 32.3052 19.3097 31.9623 18.8867 31.9623H17.125V30.4951H18.7003C19.1235 30.4951 19.4664 30.1521 19.4664 29.7289C19.4664 29.3057 19.1234 28.9628 18.7003 28.9628H17.125V27.4954H18.8867Z" fill="#E5963A"/>
<path d="M46.4071 27.4954C46.8303 27.4954 47.1733 27.1524 47.1733 26.7293C47.1733 26.3062 46.8303 25.9633 46.4071 25.9633H43.8794C43.4562 25.9633 43.1133 26.3062 43.1133 26.7293V32.7284C43.1133 33.1516 43.4563 33.4945 43.8794 33.4945H46.4071C46.8303 33.4945 47.1733 33.1515 47.1733 32.7284C47.1733 32.3052 46.8303 31.9623 46.4071 31.9623H44.6455V30.4951H46.2207C46.6439 30.4951 46.9868 30.1521 46.9868 29.7289C46.9868 29.3057 46.6438 28.9628 46.2207 28.9628H44.6455V27.4954H46.4071Z" fill="#E5963A"/>
<path d="M50.6938 26.087H49.0298C48.8264 26.087 48.6313 26.1679 48.4875 26.312C48.3438 26.4559 48.2633 26.6512 48.2637 26.8547V26.8591V26.8593C48.2637 26.8593 48.2689 32.7331 48.2783 32.7811C48.2911 32.9659 48.3698 33.1407 48.5021 33.2721C48.6457 33.4145 48.8396 33.4945 49.0418 33.4945H49.0447C49.095 33.4943 50.2816 33.4897 50.756 33.4814C52.5387 33.4501 53.8326 31.898 53.8326 29.7907C53.8325 27.5755 52.5711 26.087 50.6938 26.087ZM50.7291 31.9494C50.5163 31.9531 50.1455 31.9562 49.8053 31.9583C49.8031 31.2657 49.8001 30.2814 49.8001 29.7844C49.8001 29.3684 49.7984 28.3403 49.7973 27.6194H50.6938C52.1844 27.6194 52.3002 29.2814 52.3002 29.7908C52.3002 31.263 51.5111 31.9357 50.7291 31.9494Z" fill="#E5963A"/>
<path d="M13.9885 31.2866C13.6642 31.0147 13.1809 31.0574 12.9091 31.3815C12.8568 31.4439 12.8003 31.5022 12.7409 31.5551C12.4377 31.8252 12.0501 31.9622 11.5892 31.9622C10.3423 31.9622 9.32817 30.9479 9.32817 29.7012C9.32817 28.4545 10.3423 27.4401 11.5892 27.4401C12.0422 27.4401 12.4792 27.5735 12.8528 27.8259C13.2034 28.0626 13.6797 27.9706 13.9165 27.6199C14.1533 27.2693 14.0612 26.7931 13.7105 26.5562C13.0827 26.132 12.3492 25.9078 11.5892 25.9078C9.49752 25.9078 7.7959 27.6095 7.7959 29.7012C7.7959 31.7928 9.49752 33.4944 11.5892 33.4944C12.4254 33.4944 13.1761 33.2195 13.76 32.6993C13.8748 32.5971 13.9835 32.4849 14.0834 32.3659C14.3551 32.0416 14.3126 31.5585 13.9885 31.2866Z" fill="#E5963A"/>
<path d="M30.6398 25.908H27.2964C26.8732 25.908 26.5303 26.251 26.5303 26.674C26.5303 27.0971 26.8733 27.4401 27.2964 27.4401H28.1951V32.7283C28.1951 33.1515 28.5381 33.4944 28.9612 33.4944C29.3843 33.4944 29.7273 33.1514 29.7273 32.7283V27.4401H30.6397C31.0629 27.4401 31.4058 27.0971 31.4058 26.674C31.4058 26.251 31.063 25.908 30.6398 25.908Z" fill="#E5963A"/>
<path d="M25.7901 28.2475C25.7901 26.9574 24.7005 25.9078 23.3614 25.9078H21.7526C21.7523 25.9078 21.752 25.9078 21.7516 25.9078C21.7513 25.9078 21.751 25.9078 21.7506 25.9078C21.3274 25.9078 20.9844 26.2508 20.9844 26.6739V32.7283C20.9844 33.1514 21.3274 33.4943 21.7506 33.4943C22.1737 33.4943 22.5166 33.1513 22.5166 32.7283V31.0392L24.4488 33.2345C24.6002 33.4066 24.8116 33.4944 25.0242 33.4944C25.2039 33.4944 25.3845 33.4315 25.53 33.3034C25.8476 33.0239 25.8784 32.5398 25.5989 32.2221L24.0701 30.4851C25.0646 30.1923 25.7901 29.3 25.7901 28.2475ZM23.3614 29.0548C23.1658 29.0548 22.8356 29.0561 22.5256 29.0576C22.5239 28.7554 22.5219 27.7569 22.5209 27.4401H23.3614C23.8473 27.4401 24.2578 27.8098 24.2578 28.2475C24.2578 28.6851 23.8473 29.0548 23.3614 29.0548Z" fill="#E5963A"/>
</svg>
