<svg width="65" height="64" viewBox="0 0 65 64" fill="none" xmlns="http://www.w3.org/2000/svg">
<g clip-path="url(#clip0_2033_698)">
<path d="M0.573813 5.87565L4.8421 13.3447C4.98608 13.5971 5.22706 13.7797 5.50886 13.8504L9.49096 14.8459L23.1487 28.5036L24.6578 26.995L10.7863 13.1239C10.6498 12.987 10.4786 12.89 10.2912 12.843L6.46488 11.883L2.83086 5.5201L5.94648 2.40448L12.312 6.04201L13.2725 9.86828C13.319 10.0561 13.4164 10.2278 13.5529 10.3643L27.4244 24.2358L28.9331 22.7267L15.2754 9.06896L14.2798 5.08906C14.2092 4.80682 14.0266 4.5654 13.7742 4.42099L6.30466 0.153139C5.8881 -0.0838906 5.36401 -0.0136596 5.02426 0.324766L0.756414 4.59305C0.41316 4.9306 0.338539 5.45558 0.573813 5.87565Z" fill="#E5963A"/>
<path d="M44.9355 21.0343L21.4612 44.509L19.9521 42.9999L43.4269 19.5256L44.9355 21.0343Z" fill="#E5963A"/>
<path d="M17.3523 45.3395C17.1592 45.0182 16.8124 44.822 16.4375 44.822H10.0355C9.66112 44.822 9.31391 45.0182 9.12122 45.3395L5.92 50.6745C5.71677 51.0124 5.71677 51.4351 5.92 51.7736L9.12122 57.1085C9.31391 57.4294 9.66112 57.626 10.0355 57.626H16.4375C16.8124 57.626 17.1592 57.4294 17.3523 57.1085L20.5531 51.7736C20.7563 51.4351 20.7563 51.0124 20.5531 50.6745L17.3523 45.3395ZM15.834 55.4919H10.6395L8.07873 51.224L10.6395 46.9557H15.834L18.3948 51.224L15.834 55.4919Z" fill="#E5963A"/>
<path d="M51.6495 25.6155C58.6967 25.6392 64.4293 19.9452 64.453 12.898C64.4565 11.8252 64.3248 10.7568 64.061 9.71693C63.9188 9.14498 63.3398 8.7969 62.7679 8.93912C62.58 8.98608 62.4088 9.08309 62.2719 9.2196L55.6298 15.8573L50.3598 14.1011L48.6023 8.83245L55.2444 2.18904C55.661 1.77205 55.6605 1.09651 55.2435 0.679954C55.1061 0.542564 54.9332 0.445119 54.744 0.398591C47.9096 -1.33216 40.9669 2.80488 39.2361 9.63879C38.9732 10.6756 38.8419 11.7413 38.8455 12.811C38.8481 13.6512 38.9346 14.4887 39.1049 15.3113L15.7368 38.6789C14.9142 38.509 14.0767 38.4225 13.237 38.4195C6.16522 38.4195 0.432617 44.1521 0.432617 51.2239C0.432617 58.2953 6.16522 64.0279 13.237 64.0279C20.3084 64.0279 26.041 58.2953 26.041 51.2239C26.0384 50.3837 25.9515 49.5462 25.7816 48.7237L31.376 43.1293L33.8226 45.576C34.2396 45.9926 34.9147 45.9926 35.3317 45.576L35.865 45.0422C36.3329 44.5774 37.0892 44.5774 37.5572 45.0422C38.0246 45.5084 38.0255 46.2651 37.5594 46.7326C37.5589 46.7331 37.558 46.7339 37.5572 46.7348L37.0238 47.2681C36.6073 47.6847 36.6073 48.3602 37.0238 48.7768L49.7523 61.5053C53.1002 64.8838 58.5527 64.9084 61.9313 61.5606C65.3094 58.2127 65.334 52.7597 61.9861 49.3816C61.9681 49.3632 61.9497 49.3448 61.9313 49.3263L49.2028 36.5983C48.7862 36.1817 48.1107 36.1817 47.6941 36.5983L47.1608 37.1316C46.6925 37.5969 45.9366 37.5969 45.4682 37.1316C45.0012 36.6654 44.9999 35.9087 45.466 35.4417C45.4669 35.4408 45.4678 35.4403 45.4682 35.4395L46.002 34.9057C46.4186 34.4892 46.4186 33.8136 46.002 33.3971L43.5553 30.9504L49.1497 25.3561C49.9722 25.5259 50.8097 25.6128 51.6495 25.6155ZM55.8418 61.8942C55.0666 61.8928 54.298 61.7528 53.5725 61.4802L61.9058 53.1465C63.1634 56.4916 61.4713 60.2227 58.1261 61.4802C57.3961 61.7546 56.6222 61.895 55.8418 61.8942ZM43.7537 34.1621C42.5721 35.5716 42.7573 37.6724 44.1668 38.8536C45.4055 39.8917 47.2108 39.8908 48.4482 38.8505L60.4226 50.8354C60.5525 50.9658 60.6741 51.1032 60.7918 51.2428L51.6688 60.3658C51.5287 60.2486 51.3913 60.127 51.261 59.9966L39.2774 48.0121C40.459 46.6027 40.2738 44.5019 38.8643 43.3207C37.6256 42.2822 35.8198 42.2835 34.5824 43.3233L32.8754 41.6163L42.0462 32.459L43.7537 34.1621ZM48.0624 23.4304L23.8568 47.6311C23.5913 47.8963 23.4846 48.2812 23.575 48.6451C25.0389 54.3939 21.5651 60.2411 15.8158 61.7045C10.067 63.1684 4.21982 59.6946 2.75595 53.9453C1.29251 48.1965 4.76631 42.3493 10.5156 40.8854C12.2547 40.443 14.0767 40.443 15.8158 40.8854C16.1797 40.9745 16.5638 40.8679 16.8298 40.6041L41.0296 16.4029C41.2948 16.1378 41.4014 15.7528 41.3101 15.3894C39.8563 9.70771 43.2836 3.92331 48.9653 2.46909C50.039 2.19475 51.1495 2.0894 52.2556 2.15832L46.6271 7.78909C46.3413 8.0744 46.2412 8.4971 46.369 8.8803L48.5027 15.2827C48.6093 15.601 48.8595 15.8512 49.1782 15.957L55.5806 18.0911C55.9634 18.2188 56.3861 18.1192 56.6718 17.8339L62.3004 12.2053C62.3131 12.409 62.3197 12.6104 62.3197 12.811C62.3496 18.674 57.6213 23.451 51.7583 23.4813C50.8519 23.4857 49.9485 23.3742 49.0707 23.1495C48.7068 23.0586 48.3218 23.1648 48.0567 23.43H48.0624V23.4304Z" fill="#E5963A"/>
<path d="M55.6057 53.6701L54.0966 55.1792L43.4268 44.5093L44.9354 43.0002L55.6057 53.6701Z" fill="#E5963A"/>
</g>
<defs>
<clipPath id="clip0_2033_698">
<rect width="64" height="64" fill="white" transform="translate(0.371094 0.00488281)"/>
</clipPath>
</defs>
</svg>
