<svg width="65" height="65" viewBox="0 0 65 65" fill="none" xmlns="http://www.w3.org/2000/svg">
<g clip-path="url(#clip0_2033_621)">
<path d="M52.0512 56.2926L49.6616 49.1226C48.8265 46.6194 46.6959 44.7716 44.0987 44.2988L37.2001 43.0436V42.5089C38.4007 41.8121 39.4453 40.88 40.2773 39.7765H42.3614C44.0688 39.7765 45.4582 38.3871 45.4582 36.6797V24.2926C45.4582 16.8934 39.4381 10.8733 32.0389 10.8733C24.6396 10.8733 18.6195 16.8934 18.6195 24.2926V31.5185C18.6195 33.5086 20.0347 35.1737 21.9114 35.5618C22.4905 38.5285 24.3444 41.039 26.8776 42.5089V43.0436L19.9779 44.2988C17.3818 44.7716 15.2502 46.6194 14.4161 49.1226L14.0032 50.3623L10.4874 46.8465C10.0848 46.4439 10.0848 45.7884 10.4874 45.3858L14.5648 41.3094L6.91163 33.6563L2.30363 38.2643C0.938984 39.6289 0.1875 41.4436 0.1875 43.3739C0.1875 45.3043 0.938984 47.1179 2.30363 48.4826L16.2546 62.4335C17.6192 63.7982 19.434 64.5507 21.3643 64.5507C23.2946 64.5507 25.1083 63.7982 26.4409 62.4645L31.469 57.8575L29.901 56.2926H52.0512ZM43.3937 36.6797C43.3937 37.2495 42.9302 37.712 42.3614 37.712H41.4933C41.7927 37.0297 42.0198 36.3102 42.1663 35.5618C42.6081 35.4699 43.0149 35.2945 43.3937 35.0735V36.6797ZM42.3614 33.296V29.7409C42.9756 30.0991 43.3937 30.7577 43.3937 31.5185C43.3937 32.2792 42.9756 32.9378 42.3614 33.296ZM21.7163 33.296C21.1021 32.9378 20.684 32.2792 20.684 31.5185C20.684 30.7577 21.1021 30.0991 21.7163 29.7409V33.296ZM21.7163 26.3572V27.536C21.3488 27.632 21.004 27.7765 20.684 27.9634V24.2926C20.684 18.032 25.7782 12.9378 32.0389 12.9378C38.2995 12.9378 43.3937 18.032 43.3937 24.2926V27.9634C43.0737 27.7765 42.7289 27.631 42.3614 27.536V26.3572H41.3292C38.2768 26.3572 35.4071 25.168 33.2476 23.0095L32.0389 21.8008L30.8301 23.0095C28.6706 25.168 25.8009 26.3572 22.7485 26.3572H21.7163ZM23.7808 33.583V28.3825C26.8807 28.1492 29.771 26.8702 32.0389 24.7138C34.3067 26.8702 37.1971 28.1502 40.2969 28.3825V33.583C40.2969 35.088 39.8861 36.496 39.18 37.712H32.0389V39.7765H37.483C36.0275 41.0575 34.125 41.841 32.0389 41.841C27.4856 41.841 23.7808 38.1363 23.7808 33.583ZM35.1356 43.4297V43.4782L32.0389 46.575L28.9421 43.4782V43.4297C29.9207 43.7373 30.9601 43.9055 32.0389 43.9055C33.1176 43.9055 34.1571 43.7373 35.1356 43.4297ZM16.3733 49.775C16.9689 47.9871 18.4915 46.6668 20.3465 46.3283L27.562 45.0173L32.0389 49.4942L36.5147 45.0183L43.7292 46.3293C45.5841 46.6679 47.1067 47.9871 47.7023 49.776L49.1878 54.2281H27.8365L23.8159 50.2075L19.3483 54.2488C18.9591 54.64 18.2789 54.64 17.8887 54.2488L15.6342 51.9943L16.3733 49.775ZM6.9106 36.5755L11.6445 41.3094L10.5235 42.4305L5.78956 37.6965L6.9106 36.5755ZM25.0112 60.976C24.0368 61.9484 22.7403 62.4862 21.3622 62.4862C19.9841 62.4862 18.6876 61.9484 17.7121 60.9739L3.76118 47.024C2.78673 46.0495 2.24995 44.753 2.24995 43.375C2.24995 41.9959 2.78673 40.6994 3.76118 39.7249L4.32892 39.1572L9.06285 43.8911L9.02569 43.9283C7.81898 45.136 7.81898 47.1004 9.02569 48.3081L16.428 55.7105C17.0133 56.2947 17.7906 56.6178 18.6185 56.6178C19.4463 56.6178 20.2236 56.2957 20.7707 55.7466L20.8481 55.6774L25.6038 60.433L25.0112 60.976ZM27.1274 59.0354L22.3821 54.2901L23.7457 53.0575L28.4827 57.7946L27.1274 59.0354Z" fill="#E5963A"/>
<path d="M60.9419 0.550781H46.4903C44.783 0.550781 43.3936 1.9402 43.3936 3.64756V11.9056C43.3936 13.613 44.783 15.0024 46.4903 15.0024H49.2475L48.1801 21.2279L58.1414 15.0024H60.9419C62.6493 15.0024 64.0387 13.613 64.0387 11.9056V3.64756C64.0387 1.9402 62.6493 0.550781 60.9419 0.550781ZM61.9742 11.9056C61.9742 12.4744 61.5107 12.9379 60.9419 12.9379H57.5489L50.993 17.0349L51.696 12.9379H46.4903C45.9216 12.9379 45.4581 12.4744 45.4581 11.9056V3.64756C45.4581 3.07878 45.9216 2.6153 46.4903 2.6153H60.9419C61.5107 2.6153 61.9742 3.07878 61.9742 3.64756V11.9056Z" fill="#E5963A"/>
<path d="M59.9096 4.67993H47.5225V6.74445H59.9096V4.67993Z" fill="#E5963A"/>
<path d="M55.7805 8.80884H47.5225V10.8734H55.7805V8.80884Z" fill="#E5963A"/>
<path d="M59.9092 8.80884H57.8447V10.8734H59.9092V8.80884Z" fill="#E5963A"/>
<path d="M32.0389 3.64746C18.5514 3.64746 6.93336 12.977 3.91297 25.9907L1.95685 22.7298L0.186523 23.792L3.81491 29.8379L9.86085 26.2095L8.79865 24.4392L6.00123 26.1177C8.92665 14.2126 19.6322 5.71198 32.0389 5.71198C34.7506 5.71198 37.4263 6.11456 39.9914 6.9094L40.6025 4.93778C37.8392 4.08101 34.9581 3.64746 32.0389 3.64746Z" fill="#E5963A"/>
<path d="M63.5373 23.407L57.4913 19.7786L53.864 25.8255L55.6343 26.8877L57.4408 23.8766C58.3915 26.6586 58.8777 29.5685 58.8777 32.5507C58.8777 38.6895 56.7512 44.6911 52.8916 49.4488L54.4947 50.7494C58.6526 45.6253 60.9422 39.1613 60.9422 32.5507C60.9422 29.393 60.4333 26.3097 59.4413 23.3574L62.4751 25.1773L63.5373 23.407Z" fill="#E5963A"/>
</g>
<defs>
<clipPath id="clip0_2033_621">
<rect width="64" height="64" fill="white" transform="translate(0.112305 0.550781)"/>
</clipPath>
</defs>
</svg>
