<svg width="65" height="64" viewBox="0 0 65 64" fill="none" xmlns="http://www.w3.org/2000/svg">
<g clip-path="url(#clip0_2033_686)">
<path d="M55.0599 49.7222C53.9754 49.723 52.915 49.4021 52.0128 48.8001C51.1107 48.1982 50.4073 47.3422 49.9917 46.3404C49.5762 45.3386 49.467 44.2361 49.6781 43.1723C49.8892 42.1085 50.4111 41.1313 51.1777 40.3641C51.9443 39.5969 52.9212 39.0744 53.9848 38.8625C55.0485 38.6506 56.1511 38.7589 57.1531 39.1738C58.1552 39.5886 59.0117 40.2914 59.6143 41.1931C60.2169 42.0948 60.5386 43.155 60.5386 44.2395C60.5379 45.6927 59.9606 47.0862 58.9334 48.1141C57.9062 49.1421 56.5131 49.7204 55.0599 49.7222ZM55.0599 40.7568C54.3709 40.756 53.6972 40.9596 53.124 41.3418C52.5507 41.724 52.1037 42.2677 51.8395 42.904C51.5753 43.5403 51.5058 44.2406 51.6397 44.9165C51.7736 45.5923 52.105 46.2132 52.5919 46.7007C53.0788 47.1882 53.6993 47.5203 54.375 47.655C55.0507 47.7897 55.7511 47.7209 56.3877 47.4574C57.0244 47.194 57.5685 46.7476 57.9514 46.1748C58.3342 45.602 58.5386 44.9285 58.5386 44.2395C58.5382 43.3166 58.1717 42.4316 57.5196 41.7787C56.8674 41.1258 55.9828 40.7582 55.0599 40.7568Z" fill="#E5963A"/>
<path d="M26.1687 49.7222C25.0841 49.7232 24.0235 49.4026 23.1212 48.8008C22.2189 48.199 21.5153 47.3431 21.0995 46.3413C20.6838 45.3396 20.5744 44.237 20.7854 43.1732C20.9963 42.1093 21.5181 41.1319 22.2846 40.3646C23.0512 39.5973 24.0281 39.0746 25.0918 38.8626C26.1554 38.6506 27.2581 38.7589 28.2602 39.1737C29.2624 39.5885 30.119 40.2912 30.7216 41.1929C31.3243 42.0947 31.646 43.1549 31.646 44.2395C31.6449 45.6923 31.0677 47.0855 30.0409 48.1133C29.0141 49.1411 27.6215 49.7197 26.1687 49.7222ZM26.1687 40.7568C25.4796 40.7558 24.8058 40.9591 24.2323 41.3412C23.6589 41.7232 23.2117 42.2668 22.9473 42.903C22.6829 43.5393 22.6132 44.2397 22.7469 44.9157C22.8807 45.5916 23.212 46.2126 23.6988 46.7002C24.1857 47.1878 24.8062 47.52 25.4819 47.6549C26.1577 47.7897 26.8582 47.721 27.4949 47.4576C28.1315 47.1941 28.6758 46.7478 29.0587 46.1749C29.4416 45.6021 29.646 44.9285 29.646 44.2395C29.6453 43.317 29.2789 42.4324 28.6271 41.7795C27.9752 41.1267 27.0912 40.759 26.1687 40.7568Z" fill="#E5963A"/>
<path d="M62.2732 45.2395H59.5385C59.2733 45.2395 59.0189 45.1341 58.8314 44.9466C58.6439 44.7591 58.5385 44.5047 58.5385 44.2395C58.5385 43.9743 58.6439 43.7199 58.8314 43.5324C59.0189 43.3448 59.2733 43.2395 59.5385 43.2395H61.9905V37.9368C61.9899 37.2199 61.8063 36.515 61.4572 35.8888L56.0438 26.1835C55.9976 26.1007 55.9301 26.0317 55.8483 25.9836C55.7665 25.9356 55.6734 25.9102 55.5785 25.9102H48.2012V43.2435H50.5825C50.8477 43.2435 51.1021 43.3488 51.2896 43.5364C51.4771 43.7239 51.5825 43.9783 51.5825 44.2435C51.5825 44.5087 51.4771 44.7631 51.2896 44.9506C51.1021 45.1381 50.8477 45.2435 50.5825 45.2435H47.2012C46.936 45.2435 46.6816 45.1381 46.4941 44.9506C46.3065 44.7631 46.2012 44.5087 46.2012 44.2435V24.9102C46.2012 24.6449 46.3065 24.3906 46.4941 24.203C46.6816 24.0155 46.936 23.9102 47.2012 23.9102H55.5785C56.0296 23.9099 56.4727 24.0302 56.8618 24.2585C57.2509 24.4868 57.572 24.8149 57.7918 25.2088L63.2038 34.9155C63.7184 35.8394 63.9887 36.8793 63.9892 37.9368V43.5235C63.9885 43.9784 63.8074 44.4144 63.4858 44.7361C63.1641 45.0578 62.7281 45.2388 62.2732 45.2395Z" fill="#E5963A"/>
<path d="M21.6896 45.2395H12.1016C11.8363 45.2395 11.582 45.1341 11.3945 44.9466C11.2069 44.7591 11.1016 44.5047 11.1016 44.2395V36.5488C11.1016 36.2836 11.2069 36.0293 11.3945 35.8417C11.582 35.6542 11.8363 35.5488 12.1016 35.5488C12.3668 35.5488 12.6211 35.6542 12.8087 35.8417C12.9962 36.0293 13.1016 36.2836 13.1016 36.5488V43.2395H21.6896C21.9548 43.2395 22.2091 43.3448 22.3967 43.5324C22.5842 43.7199 22.6896 43.9743 22.6896 44.2395C22.6896 44.5047 22.5842 44.7591 22.3967 44.9466C22.2091 45.1341 21.9548 45.2395 21.6896 45.2395Z" fill="#E5963A"/>
<path d="M12.1016 33.0008C11.8363 33.0008 11.582 32.8954 11.3945 32.7079C11.2069 32.5204 11.1016 32.266 11.1016 32.0008V25.2861C11.1016 25.0209 11.2069 24.7666 11.3945 24.579C11.582 24.3915 11.8363 24.2861 12.1016 24.2861C12.3668 24.2861 12.6211 24.3915 12.8087 24.579C12.9962 24.7666 13.1016 25.0209 13.1016 25.2861V32.0048C13.1005 32.2693 12.9947 32.5226 12.8073 32.7093C12.6198 32.896 12.3661 33.0008 12.1016 33.0008Z" fill="#E5963A"/>
<path d="M47.2016 45.2395H30.6456C30.3803 45.2395 30.126 45.1341 29.9385 44.9466C29.7509 44.759 29.6456 44.5047 29.6456 44.2395C29.6456 43.9742 29.7509 43.7199 29.9385 43.5323C30.126 43.3448 30.3803 43.2395 30.6456 43.2395H46.2016V17.0781H13.1016V21.1968C13.1016 21.462 12.9962 21.7164 12.8087 21.9039C12.6211 22.0914 12.3668 22.1968 12.1016 22.1968C11.8363 22.1968 11.582 22.0914 11.3945 21.9039C11.2069 21.7164 11.1016 21.462 11.1016 21.1968V16.8941C11.1023 16.4125 11.294 15.9508 11.6347 15.6103C11.9754 15.2699 12.4372 15.0785 12.9189 15.0781H46.3856C46.867 15.0788 47.3285 15.2704 47.6689 15.6108C48.0093 15.9512 48.2009 16.4127 48.2016 16.8941V44.2395C48.2016 44.5047 48.0962 44.759 47.9087 44.9466C47.7211 45.1341 47.4668 45.2395 47.2016 45.2395Z" fill="#E5963A"/>
<path d="M16.0553 37.5488H3.36328C3.09806 37.5488 2.84371 37.4435 2.65617 37.2559C2.46864 37.0684 2.36328 36.814 2.36328 36.5488C2.36328 36.2836 2.46864 36.0293 2.65617 35.8417C2.84371 35.6542 3.09806 35.5488 3.36328 35.5488H16.0553C16.3205 35.5488 16.5749 35.6542 16.7624 35.8417C16.9499 36.0293 17.0553 36.2836 17.0553 36.5488C17.0553 36.814 16.9499 37.0684 16.7624 37.2559C16.5749 37.4435 16.3205 37.5488 16.0553 37.5488Z" fill="#E5963A"/>
<path d="M26.1687 33.001H8.45801C8.19279 33.001 7.93844 32.8956 7.7509 32.7081C7.56337 32.5205 7.45801 32.2662 7.45801 32.001C7.45801 31.7358 7.56337 31.4814 7.7509 31.2939C7.93844 31.1063 8.19279 31.001 8.45801 31.001H26.1687C26.4339 31.001 26.6882 31.1063 26.8758 31.2939C27.0633 31.4814 27.1687 31.7358 27.1687 32.001C27.1687 32.2662 27.0633 32.5205 26.8758 32.7081C26.6882 32.8956 26.4339 33.001 26.1687 33.001Z" fill="#E5963A"/>
<path d="M7.90721 27.7209H0.991211C0.725994 27.7209 0.471641 27.6156 0.284104 27.4281C0.0965678 27.2405 -0.00878906 26.9862 -0.00878906 26.7209C-0.00878906 26.4557 0.0965678 26.2014 0.284104 26.0138C0.471641 25.8263 0.725994 25.7209 0.991211 25.7209H7.90721C8.17243 25.7209 8.42678 25.8263 8.61432 26.0138C8.80185 26.2014 8.90721 26.4557 8.90721 26.7209C8.90721 26.9862 8.80185 27.2405 8.61432 27.4281C8.42678 27.6156 8.17243 27.7209 7.90721 27.7209Z" fill="#E5963A"/>
<path d="M18.9961 22.1968H6.78809C6.52287 22.1968 6.26852 22.0914 6.08098 21.9039C5.89344 21.7163 5.78809 21.462 5.78809 21.1968C5.78809 20.9316 5.89344 20.6772 6.08098 20.4897C6.26852 20.3021 6.52287 20.1968 6.78809 20.1968H18.9961C19.2613 20.1968 19.5157 20.3021 19.7032 20.4897C19.8907 20.6772 19.9961 20.9316 19.9961 21.1968C19.9961 21.462 19.8907 21.7163 19.7032 21.9039C19.5157 22.0914 19.2613 22.1968 18.9961 22.1968Z" fill="#E5963A"/>
</g>
<defs>
<clipPath id="clip0_2033_686">
<rect width="64" height="64" fill="white" transform="translate(0.112305 0.00488281)"/>
</clipPath>
</defs>
</svg>
