<svg width="43" height="43" viewBox="0 0 43 43" fill="none" xmlns="http://www.w3.org/2000/svg">
<path d="M41.4074 9.05542H26.5967" stroke="#E5963A" stroke-width="1.5" stroke-miterlimit="10" stroke-linecap="round" stroke-linejoin="round"/>
<path d="M41.4081 17.1804H32.7783" stroke="#E5963A" stroke-width="1.5" stroke-miterlimit="10" stroke-linecap="round" stroke-linejoin="round"/>
<path d="M41.4072 25.3032H37.7793" stroke="#E5963A" stroke-width="1.5" stroke-miterlimit="10" stroke-linecap="round" stroke-linejoin="round"/>
<path d="M41.4072 33.428H34.4756" stroke="#E5963A" stroke-width="1.5" stroke-miterlimit="10" stroke-linecap="round" stroke-linejoin="round"/>
<path d="M26.5967 41.553H40.958C41.2059 41.553 41.4074 41.3514 41.4074 41.1035V8.33733C41.4074 4.26437 38.076 0.932861 34.0033 0.932861C29.9305 0.932861 26.5967 4.26437 26.5967 8.33733V12.9152" stroke="#E5963A" stroke-width="1.5" stroke-miterlimit="10" stroke-linecap="round" stroke-linejoin="round"/>
<path d="M31.0172 15.2507L20.2514 9.56525C19.1232 8.96984 19.4521 8.96984 18.3239 9.56525L7.55813 15.2507C6.53642 15.7881 6.68476 15.7742 6.09393 16.7102L0.9601 24.8445C0.594028 25.4237 0.834971 26.1766 1.46748 26.5102C2.09763 26.8438 2.89221 26.6353 3.25599 26.0585L8.11186 18.3644C8.67245 17.4795 8.59137 17.5049 9.55971 16.9928L18.7942 12.1183C19.3572 11.8195 19.2181 11.8195 19.7811 12.1183L29.0155 16.9928C29.984 17.5049 29.9029 17.4795 30.4635 18.3644L35.3193 26.0585C35.6854 26.6353 36.4777 26.8438 37.1101 26.5102C37.7404 26.1766 37.9813 25.4237 37.6175 24.8445L32.4814 16.7102C31.8906 15.7742 32.0388 15.7881 31.0172 15.2507Z" stroke="#E5963A" stroke-width="1.5" stroke-miterlimit="10" stroke-linecap="round" stroke-linejoin="round"/>
<path d="M12.2676 41.553H26.3092V28.894H12.2676V41.553Z" stroke="#E5963A" stroke-width="1.5" stroke-miterlimit="10" stroke-linecap="round" stroke-linejoin="round"/>
<path d="M12.2676 28.894L26.3092 41.553" stroke="#E5963A" stroke-width="1.5" stroke-miterlimit="10" stroke-linecap="round" stroke-linejoin="round"/>
<path d="M26.3092 28.894L12.2676 41.553" stroke="#E5963A" stroke-width="1.5" stroke-miterlimit="10" stroke-linecap="round" stroke-linejoin="round"/>
<path d="M18.1694 26.1H10.6238C10.3365 26.1 10.1025 26.334 10.1025 26.6213V28.3728C10.1025 28.66 10.3365 28.894 10.6238 28.894H27.9551C28.2401 28.894 28.4764 28.66 28.4764 28.3728V26.6213C28.4764 26.334 28.2401 26.1 27.9551 26.1H20.998" stroke="#E5963A" stroke-width="1.5" stroke-miterlimit="10" stroke-linecap="round" stroke-linejoin="round"/>
<path d="M19.2874 23.3499C21.266 23.3499 22.8761 21.7374 22.8761 19.7611C22.8761 17.785 21.266 16.1724 19.2874 16.1724C17.3113 16.1724 15.7012 17.785 15.7012 19.7611C15.7012 21.7374 17.3113 23.3499 19.2874 23.3499Z" stroke="#E5963A" stroke-width="1.5" stroke-miterlimit="10" stroke-linecap="round" stroke-linejoin="round"/>
<path d="M26.309 38.6477H34.4755M4.09863 38.6477H12.2674" stroke="#E5963A" stroke-width="1.5" stroke-miterlimit="10" stroke-linecap="round" stroke-linejoin="round"/>
<path d="M4.09863 34.8829V41.1383C4.09863 41.3653 4.284 41.553 4.51333 41.553H34.0608C34.2901 41.553 34.4755 41.3653 34.4755 41.1383V24.7215L30.4629 18.3643C29.9022 17.4793 29.9834 17.5048 29.0149 16.9928L19.7805 12.1183C19.2176 11.8194 19.3566 11.8194 18.7936 12.1183L9.55914 16.9928C8.59071 17.5048 8.67187 17.4793 8.1112 18.3643L4.09863 24.7215V32.0542" stroke="#E5963A" stroke-width="1.5" stroke-miterlimit="10" stroke-linecap="round" stroke-linejoin="round"/>
</svg>
