<svg width="19" height="23" viewBox="0 0 19 23" fill="none" xmlns="http://www.w3.org/2000/svg">
<path d="M15.7866 3.05261C14.04 1.3149 11.7177 0.35791 9.24758 0.35791C6.77749 0.35791 4.45515 1.3149 2.70855 3.05261C0.96191 4.79036 0 7.10073 0 9.55815C0 14.5295 4.7247 18.6644 7.26299 20.8858C7.61573 21.1945 7.92034 21.4611 8.16302 21.6866C8.46708 21.9692 8.85735 22.1105 9.24754 22.1105C9.63781 22.1105 10.028 21.9692 10.3321 21.6866C10.5748 21.4611 10.8794 21.1945 11.2321 20.8858C13.7704 18.6644 18.4951 14.5295 18.4951 9.55815C18.4951 7.10073 17.5332 4.79036 15.7866 3.05261ZM10.3862 19.9291C10.0257 20.2446 9.71442 20.517 9.45777 20.7555C9.33986 20.865 9.15521 20.865 9.03726 20.7555C8.78065 20.517 8.46934 20.2445 8.10887 19.9291C5.72257 17.8407 1.2807 13.9533 1.2807 9.55819C1.2807 5.18777 4.85456 1.63218 9.24749 1.63218C13.6404 1.63218 17.2142 5.18777 17.2142 9.55819C17.2143 13.9533 12.7725 17.8407 10.3862 19.9291Z" fill="#E5963A"/>
<path d="M9.22451 5.34912C7.07387 5.34912 5.32422 7.08979 5.32422 9.22942C5.32422 11.3691 7.07387 13.1097 9.22451 13.1097C11.3751 13.1097 13.1248 11.3691 13.1248 9.22942C13.1248 7.08979 11.3751 5.34912 9.22451 5.34912ZM9.22451 11.8902C7.74979 11.8902 6.55 10.6965 6.55 9.22938C6.55 7.76224 7.74979 6.56859 9.22451 6.56859C10.6992 6.56859 11.899 7.76224 11.899 9.22938C11.899 10.6965 10.6992 11.8902 9.22451 11.8902Z" fill="#E5963A"/>
</svg>
