<svg width="24" height="24" viewBox="0 0 24 24" fill="none" xmlns="http://www.w3.org/2000/svg">
<g clip-path="url(#clip0_2033_2332)">
<path d="M18.9677 14.4315C18.4763 13.9412 17.8837 13.6791 17.2556 13.6791C16.6326 13.6791 16.0348 13.9363 15.5232 14.4266L13.9226 15.9557C13.7909 15.8878 13.6592 15.8247 13.5326 15.7616C13.3502 15.6742 13.178 15.5917 13.0311 15.5043C11.5317 14.5917 10.1691 13.4024 8.86229 11.8635C8.22912 11.0966 7.80362 10.4509 7.49464 9.79561C7.91 9.43153 8.29497 9.0529 8.6698 8.68883C8.81163 8.55291 8.95346 8.41213 9.09529 8.27621C10.159 7.2568 10.159 5.93643 9.09529 4.91703L7.71245 3.5918C7.55542 3.44132 7.39333 3.28598 7.24137 3.13064C6.93745 2.82968 6.61833 2.519 6.28908 2.22774C5.79774 1.76173 5.21016 1.51416 4.59218 1.51416C3.97421 1.51416 3.3765 1.76173 2.86996 2.22774C2.86489 2.2326 2.86489 2.2326 2.85983 2.23745L1.13761 3.90248C0.489239 4.52383 0.119467 5.2811 0.0384214 6.15973C-0.0831474 7.57719 0.352474 8.89756 0.686788 9.76163C1.50738 11.883 2.7332 13.849 4.56179 15.9557C6.78042 18.4945 9.44987 20.4994 12.4992 21.912C13.6643 22.4411 15.2193 23.0673 16.9567 23.1741C17.0631 23.1789 17.1745 23.1838 17.2759 23.1838C18.446 23.1838 19.4286 22.7809 20.1986 21.9799C20.2036 21.9702 20.2138 21.9654 20.2188 21.9556C20.4822 21.6498 20.7862 21.3731 21.1053 21.077C21.3231 20.878 21.546 20.6693 21.7638 20.4508C22.2652 19.9508 22.5286 19.3683 22.5286 18.7712C22.5286 18.1693 22.2602 17.5916 21.7486 17.1062L18.9677 14.4315ZM20.7811 19.5431C20.776 19.5431 20.776 19.5479 20.7811 19.5431C20.5835 19.7469 20.3809 19.9314 20.1631 20.1353C19.8339 20.4363 19.4996 20.7518 19.1855 21.1061C18.6739 21.6304 18.0711 21.878 17.2809 21.878C17.2049 21.878 17.1239 21.878 17.0479 21.8731C15.5435 21.7809 14.1455 21.2178 13.0969 20.7372C10.2299 19.4071 7.71245 17.5188 5.62045 15.1256C3.89316 13.1305 2.73826 11.2859 1.97339 9.30532C1.50231 8.0966 1.33009 7.15487 1.40607 6.26653C1.45672 5.69857 1.68466 5.22771 2.10509 4.8248L3.83238 3.16948C4.08058 2.94618 4.34398 2.82482 4.60231 2.82482C4.92143 2.82482 5.17977 3.00929 5.34186 3.16462C5.34692 3.16948 5.35199 3.17433 5.35705 3.17919C5.66604 3.45588 5.95983 3.74229 6.26882 4.04811C6.42585 4.20345 6.58794 4.35878 6.75003 4.51898L8.13287 5.8442C8.6698 6.35876 8.6698 6.83448 8.13287 7.34904C7.98598 7.48981 7.84415 7.63059 7.69725 7.76651C7.27176 8.18398 6.86653 8.57232 6.42585 8.95096C6.41572 8.96067 6.40558 8.96552 6.40052 8.97523C5.9649 9.3927 6.04594 9.80046 6.13712 10.0772C6.14219 10.0917 6.14725 10.1063 6.15232 10.1208C6.51196 10.9558 7.01849 11.7422 7.78843 12.6791L7.79349 12.6839C9.19153 14.3344 10.6656 15.6208 12.2915 16.6062C12.4992 16.7324 12.712 16.8344 12.9146 16.9314C13.0969 17.0188 13.2692 17.1013 13.416 17.1887C13.4363 17.1984 13.4566 17.213 13.4768 17.2227C13.6491 17.3052 13.8111 17.3441 13.9783 17.3441C14.3987 17.3441 14.6621 17.0916 14.7482 17.0091L16.4806 15.3489C16.6528 15.1839 16.9263 14.9849 17.2455 14.9849C17.5595 14.9849 17.8179 15.1742 17.9749 15.3392C17.9799 15.3441 17.9799 15.3441 17.985 15.3489L20.776 18.0237C21.2978 18.5188 21.2978 19.0285 20.7811 19.5431Z" fill="#E5963A"/>
<path d="M12.9701 5.65451C14.2972 5.8681 15.5028 6.47003 16.4652 7.39235C17.4276 8.31467 18.0507 9.47 18.2786 10.7418C18.3343 11.0622 18.623 11.2855 18.9523 11.2855C18.9928 11.2855 19.0283 11.2807 19.0688 11.2758C19.4436 11.2175 19.6918 10.8777 19.6311 10.5185C19.3575 8.97971 18.5977 7.57682 17.4378 6.46518C16.2778 5.35354 14.8139 4.6254 13.2082 4.36327C12.8333 4.30501 12.4838 4.54288 12.418 4.89724C12.3521 5.2516 12.5953 5.59626 12.9701 5.65451Z" fill="#E5963A"/>
<path d="M23.9723 10.3294C23.5215 7.79543 22.2754 5.48963 20.3607 3.65471C18.446 1.81978 16.04 0.625618 13.3958 0.193585C13.0261 0.130479 12.6766 0.373194 12.6107 0.727558C12.5499 1.08678 12.7981 1.42172 13.173 1.48483C15.5334 1.86832 17.6862 2.94112 19.3983 4.57702C21.1104 6.21778 22.2248 8.28086 22.6249 10.543C22.6807 10.8634 22.9694 11.0867 23.2986 11.0867C23.3392 11.0867 23.3746 11.0818 23.4151 11.0769C23.7849 11.0235 24.0382 10.6837 23.9723 10.3294Z" fill="#E5963A"/>
</g>
<defs>
<clipPath id="clip0_2033_2332">
<rect width="24" height="23" fill="white" transform="translate(0 0.183594)"/>
</clipPath>
</defs>
</svg>
