<svg width="212" height="57" viewBox="0 0 212 57" fill="none" xmlns="http://www.w3.org/2000/svg">
<path fill-rule="evenodd" clip-rule="evenodd" d="M137.539 10.9841C137.353 10.0966 137.215 9.20882 137.027 8.36943C133.762 7.20658 124.761 3.90711 121.946 2.7627L121.957 2.7627C122.237 3.52688 121.946 2.7627 121.946 2.7627C121.946 2.7627 122.857 5.06641 123.156 5.76621C123.156 5.76621 135.377 10.225 137.539 10.9841Z" fill="#F59B33"/>
<path d="M2.95312 13.3316H24.2491V14.1676H15.0091V44.3076H12.1931V14.1676H4.05313L3.30513 15.9716H2.95312V13.3316Z" fill="white"/>
<path d="M36.8163 12.6276C39.1043 12.6276 41.1136 13.0969 42.8443 14.0356C44.5749 14.9449 46.027 16.1622 47.2003 17.6876C48.3736 19.1836 49.2536 20.8996 49.8403 22.8356C50.4563 24.7716 50.7643 26.7516 50.7643 28.7756C50.7643 30.7996 50.4563 32.7796 49.8403 34.7156C49.2536 36.6516 48.3736 38.3822 47.2003 39.9076C46.027 41.4329 44.5749 42.6649 42.8443 43.6036C41.1136 44.5129 39.1043 44.9676 36.8163 44.9676C34.5576 44.9676 32.5483 44.5129 30.7883 43.6036C29.0576 42.6649 27.6056 41.4329 26.4323 39.9076C25.2589 38.3822 24.3643 36.6516 23.7483 34.7156C23.1616 32.7796 22.8683 30.7996 22.8683 28.7756C22.8683 26.7516 23.1616 24.7716 23.7483 22.8356C24.3643 20.8996 25.2589 19.1836 26.4323 17.6876C27.6056 16.1622 29.0576 14.9449 30.7883 14.0356C32.5483 13.0969 34.5576 12.6276 36.8163 12.6276ZM36.8163 44.3956C38.6349 44.3956 40.2336 43.9556 41.6123 43.0756C42.9909 42.1662 44.1349 40.9782 45.0443 39.5116C45.9829 38.0449 46.6723 36.3729 47.1123 34.4956C47.5816 32.6182 47.8163 30.7116 47.8163 28.7756C47.8163 26.8396 47.5816 24.9329 47.1123 23.0556C46.6723 21.1782 45.9829 19.5209 45.0443 18.0836C44.1349 16.6169 42.9909 15.4436 41.6123 14.5636C40.2336 13.6542 38.6349 13.1996 36.8163 13.1996C34.9976 13.1996 33.3989 13.6542 32.0203 14.5636C30.6709 15.4436 29.5269 16.6169 28.5883 18.0836C27.6789 19.5209 26.9896 21.1782 26.5203 23.0556C26.0803 24.9329 25.8603 26.8396 25.8603 28.7756C25.8603 30.7116 26.0803 32.6182 26.5203 34.4956C26.9896 36.3729 27.6789 38.0449 28.5883 39.5116C29.5269 40.9782 30.6709 42.1662 32.0203 43.0756C33.3989 43.9556 34.9976 44.3956 36.8163 44.3956Z" fill="white"/>
<path d="M68.6768 12.6276C70.9648 12.6276 72.9741 13.0969 74.7048 14.0356C76.4354 14.9449 77.8874 16.1622 79.0608 17.6876C80.2341 19.1836 81.1141 20.8996 81.7008 22.8356C82.3167 24.7716 82.6247 26.7516 82.6247 28.7756C82.6247 30.7996 82.3167 32.7796 81.7008 34.7156C81.1141 36.6516 80.2341 38.3822 79.0608 39.9076C77.8874 41.4329 76.4354 42.6649 74.7048 43.6036C72.9741 44.5129 70.9648 44.9676 68.6768 44.9676C66.4181 44.9676 64.4087 44.5129 62.6488 43.6036C60.9181 42.6649 59.4661 41.4329 58.2927 39.9076C57.1194 38.3822 56.2248 36.6516 55.6087 34.7156C55.0221 32.7796 54.7287 30.7996 54.7287 28.7756C54.7287 26.7516 55.0221 24.7716 55.6087 22.8356C56.2248 20.8996 57.1194 19.1836 58.2927 17.6876C59.4661 16.1622 60.9181 14.9449 62.6488 14.0356C64.4087 13.0969 66.4181 12.6276 68.6768 12.6276ZM68.6768 44.3956C70.4954 44.3956 72.0941 43.9556 73.4727 43.0756C74.8514 42.1662 75.9954 40.9782 76.9047 39.5116C77.8434 38.0449 78.5327 36.3729 78.9727 34.4956C79.4421 32.6182 79.6768 30.7116 79.6768 28.7756C79.6768 26.8396 79.4421 24.9329 78.9727 23.0556C78.5327 21.1782 77.8434 19.5209 76.9047 18.0836C75.9954 16.6169 74.8514 15.4436 73.4727 14.5636C72.0941 13.6542 70.4954 13.1996 68.6768 13.1996C66.8581 13.1996 65.2594 13.6542 63.8807 14.5636C62.5314 15.4436 61.3874 16.6169 60.4487 18.0836C59.5394 19.5209 58.8501 21.1782 58.3807 23.0556C57.9408 24.9329 57.7207 26.8396 57.7207 28.7756C57.7207 30.7116 57.9408 32.6182 58.3807 34.4956C58.8501 36.3729 59.5394 38.0449 60.4487 39.5116C61.3874 40.9782 62.5314 42.1662 63.8807 43.0756C65.2594 43.9556 66.8581 44.3956 68.6768 44.3956Z" fill="white"/>
<path d="M98.4692 13.3316H102.825L113.561 41.2276L119.897 24.8596L115.365 13.3316H118.445L129.269 41.0076L139.961 13.3316H140.929L128.917 44.3076H127.465L120.337 26.0916L113.297 44.3076H111.845L100.185 14.4756L98.4692 13.5956V13.3316Z" fill="white"/>
<path d="M141.693 34.8476C142.779 34.1729 143.981 33.6596 145.301 33.3076C146.651 32.9556 147.912 32.5596 149.085 32.1196C150.259 31.6796 151.241 31.1076 152.033 30.4036C152.825 29.6996 153.221 28.6582 153.221 27.2796V27.2356C153.016 25.6222 152.429 24.4489 151.461 23.7156C150.493 22.9529 149.393 22.5716 148.161 22.5716C147.457 22.5716 146.739 22.6889 146.005 22.9236C145.301 23.1582 144.641 23.5102 144.025 23.9796C143.409 24.4489 142.852 25.0209 142.353 25.6956C141.884 26.3409 141.532 27.1036 141.297 27.9836L140.593 27.8516C140.857 26.8249 141.268 25.9302 141.825 25.1676C142.383 24.4049 143.013 23.7889 143.717 23.3196C144.421 22.8209 145.184 22.4542 146.005 22.2196C146.856 21.9849 147.692 21.8676 148.513 21.8676C149.423 21.8676 150.303 21.9996 151.153 22.2636C152.004 22.5276 152.767 22.9236 153.441 23.4516C154.116 23.9796 154.659 24.6249 155.069 25.3876C155.509 26.1502 155.744 27.0156 155.773 27.9836L155.817 44.3076H155.157L153.309 40.7436C152.517 42.0929 151.403 43.1196 149.965 43.8236C148.528 44.5276 147.032 44.8796 145.477 44.8796C144.715 44.8796 143.981 44.7916 143.277 44.6156C142.016 44.2929 141.033 43.7209 140.329 42.8996C139.625 42.0782 139.2 41.1836 139.053 40.2156C138.936 39.2182 139.083 38.2356 139.493 37.2676C139.933 36.2702 140.667 35.4636 141.693 34.8476ZM144.377 43.3396C145.023 43.6622 145.785 43.8236 146.665 43.8236C147.457 43.8236 148.235 43.6916 148.997 43.4276C149.76 43.1636 150.449 42.7969 151.065 42.3276C151.681 41.8582 152.195 41.3302 152.605 40.7436C153.016 40.1276 153.251 39.4969 153.309 38.8516V29.5676C152.869 30.5356 152.209 31.2689 151.329 31.7676C150.449 32.2662 149.496 32.6916 148.469 33.0436C147.472 33.3662 146.46 33.7182 145.433 34.0996C144.436 34.4809 143.585 35.0529 142.881 35.8156C142.412 36.3436 142.089 36.9742 141.913 37.7076C141.767 38.4409 141.752 39.1742 141.869 39.9076C142.016 40.6409 142.295 41.3156 142.705 41.9316C143.145 42.5476 143.703 43.0169 144.377 43.3396Z" fill="white"/>
<path d="M159.913 22.5276H163.389V17.2036C163.389 15.8836 163.579 14.7542 163.961 13.8156C164.342 12.8769 164.841 12.1142 165.457 11.5276C166.102 10.9116 166.835 10.4716 167.657 10.2076C168.478 9.91424 169.314 9.76758 170.165 9.76758C171.279 9.76758 172.365 9.98758 173.421 10.4276C174.477 10.8676 175.342 11.4982 176.017 12.3196L175.533 12.7156C174.946 11.9822 174.227 11.4249 173.377 11.0436C172.526 10.6622 171.675 10.4716 170.825 10.4716C170.179 10.4716 169.563 10.5889 168.977 10.8236C168.39 11.0582 167.862 11.4249 167.393 11.9236C166.953 12.3929 166.601 13.0089 166.337 13.7716C166.073 14.5342 165.941 15.4436 165.941 16.4996V22.5276H172.189V23.1876H165.941V44.3076H163.389V23.1876H159.913V22.5276Z" fill="white"/>
<path d="M174.844 22.5276H179.156V27.3236C179.918 25.6516 181.106 24.3609 182.72 23.4516C184.333 22.5422 185.961 22.0876 187.604 22.0876C188.366 22.0876 189.085 22.1902 189.76 22.3956C190.434 22.6009 191.036 22.9236 191.564 23.3636L191.168 23.8036C190.2 23.0116 189.012 22.6156 187.604 22.6156C186.694 22.6156 185.77 22.7769 184.832 23.0996C183.922 23.4222 183.072 23.8769 182.28 24.4636C181.517 25.0209 180.842 25.6809 180.256 26.4436C179.698 27.1769 179.332 27.9689 179.156 28.8196V44.3076H176.604V23.6276L174.844 22.9236V22.5276Z" fill="white"/>
<path d="M194.951 34.8476C196.036 34.1729 197.239 33.6596 198.559 33.3076C199.908 32.9556 201.169 32.5596 202.343 32.1196C203.516 31.6796 204.499 31.1076 205.291 30.4036C206.083 29.6996 206.479 28.6582 206.479 27.2796V27.2356C206.273 25.6222 205.687 24.4489 204.719 23.7156C203.751 22.9529 202.651 22.5716 201.419 22.5716C200.715 22.5716 199.996 22.6889 199.263 22.9236C198.559 23.1582 197.899 23.5102 197.283 23.9796C196.667 24.4489 196.109 25.0209 195.611 25.6956C195.141 26.3409 194.789 27.1036 194.555 27.9836L193.851 27.8516C194.115 26.8249 194.525 25.9302 195.083 25.1676C195.64 24.4049 196.271 23.7889 196.975 23.3196C197.679 22.8209 198.441 22.4542 199.263 22.2196C200.113 21.9849 200.949 21.8676 201.771 21.8676C202.68 21.8676 203.56 21.9996 204.411 22.2636C205.261 22.5276 206.024 22.9236 206.699 23.4516C207.373 23.9796 207.916 24.6249 208.327 25.3876C208.767 26.1502 209.001 27.0156 209.031 27.9836L209.075 44.3076H208.415L206.567 40.7436C205.775 42.0929 204.66 43.1196 203.223 43.8236C201.785 44.5276 200.289 44.8796 198.735 44.8796C197.972 44.8796 197.239 44.7916 196.535 44.6156C195.273 44.2929 194.291 43.7209 193.587 42.8996C192.883 42.0782 192.457 41.1836 192.311 40.2156C192.193 39.2182 192.34 38.2356 192.751 37.2676C193.191 36.2702 193.924 35.4636 194.951 34.8476ZM197.635 43.3396C198.28 43.6622 199.043 43.8236 199.923 43.8236C200.715 43.8236 201.492 43.6916 202.255 43.4276C203.017 43.1636 203.707 42.7969 204.323 42.3276C204.939 41.8582 205.452 41.3302 205.863 40.7436C206.273 40.1276 206.508 39.4969 206.567 38.8516V29.5676C206.127 30.5356 205.467 31.2689 204.587 31.7676C203.707 32.2662 202.753 32.6916 201.727 33.0436C200.729 33.3662 199.717 33.7182 198.691 34.0996C197.693 34.4809 196.843 35.0529 196.139 35.8156C195.669 36.3436 195.347 36.9742 195.171 37.7076C195.024 38.4409 195.009 39.1742 195.127 39.9076C195.273 40.6409 195.552 41.3156 195.963 41.9316C196.403 42.5476 196.96 43.0169 197.635 43.3396Z" fill="white"/>
<path d="M25.1104 28.7754C25.1104 26.7822 25.3369 24.8183 25.79 22.8848L25.793 22.874L25.9863 22.1543C26.4625 20.4995 27.1164 19.0068 27.9541 17.6826L27.957 17.6797L28.1455 17.3926C28.5398 16.8079 28.9676 16.2674 29.4297 15.7725C28.5237 16.4484 27.7231 17.2388 27.0264 18.1445L27.0225 18.1504C25.9081 19.5712 25.0536 21.2061 24.4629 23.0625C23.8995 24.9249 23.6182 26.8284 23.6182 28.7754C23.6182 30.7223 23.8996 32.626 24.4629 34.4883L24.6973 35.1748C25.2722 36.7553 26.0488 38.1793 27.0264 39.4502L27.2373 39.7168C27.8895 40.5205 28.6285 41.2329 29.4541 41.8564C28.9084 41.2691 28.4091 40.6223 27.957 39.916L27.9512 39.9072C26.9963 38.3672 26.2789 36.6213 25.793 34.6777L25.79 34.667C25.3368 32.7333 25.1104 30.7688 25.1104 28.7754ZM56.9707 28.7754C56.9707 26.7822 57.1973 24.8183 57.6504 22.8848L57.6533 22.874L57.8467 22.1543C58.3228 20.4995 58.9767 19.0068 59.8145 17.6826L59.8174 17.6797L60.0059 17.3926C60.4002 16.8079 60.8279 16.2674 61.29 15.7725C60.3842 16.4482 59.5843 17.239 58.8877 18.1445L58.8828 18.1504C57.7685 19.5712 56.914 21.2061 56.3232 23.0625C55.7599 24.9248 55.4785 26.8284 55.4785 28.7754C55.4785 30.7223 55.76 32.626 56.3232 34.4883L56.5576 35.1748C57.1326 36.7554 57.91 38.1792 58.8877 39.4502L59.0977 39.7168C59.7498 40.5205 60.4889 41.2329 61.3145 41.8564C60.7687 41.2691 60.2694 40.6223 59.8174 39.916L59.8115 39.9072C58.8567 38.3672 58.1392 36.6213 57.6533 34.6777L57.6504 34.667C57.1972 32.7333 56.9707 30.7688 56.9707 28.7754ZM148.514 21.1172C149.497 21.1172 150.452 21.2601 151.376 21.5469L151.722 21.6631C152.519 21.949 153.248 22.3483 153.903 22.8613L154.181 23.0898C154.805 23.6325 155.319 24.2748 155.719 25.0127L155.898 25.3477C156.234 26.0281 156.432 26.7683 156.5 27.5605L156.523 27.9609V27.9814L156.569 45.0576H154.701L153.216 42.1934C152.501 43.0766 151.622 43.7959 150.585 44.3486L150.295 44.4971C148.758 45.2497 147.15 45.6299 145.478 45.6299C144.657 45.6299 143.862 45.5344 143.096 45.3428L143.092 45.3418C141.798 45.011 140.725 44.4275 139.918 43.5645L139.76 43.3877C138.974 42.4713 138.481 41.4493 138.312 40.3281L138.31 40.3154L138.309 40.3027C138.175 39.17 138.344 38.0565 138.803 36.9746L138.807 36.9648C139.284 35.884 140.057 35.0076 141.096 34.3359L141.308 34.2041C142.457 33.4909 143.726 32.9517 145.108 32.583L145.112 32.582L146.091 32.3145C147.052 32.039 147.962 31.7394 148.822 31.417L149.226 31.2568C150.146 30.8701 150.912 30.3964 151.535 29.8428L151.643 29.7422C152.164 29.2199 152.471 28.4385 152.472 27.2861C152.278 25.8278 151.76 24.8824 151.009 24.3135L151.003 24.3096L150.997 24.3047C150.161 23.6463 149.225 23.3213 148.161 23.3213C147.542 23.3213 146.9 23.4246 146.234 23.6377C145.693 23.8191 145.178 24.0796 144.688 24.4229L144.479 24.5762C143.926 24.998 143.418 25.5156 142.959 26.1357L142.96 26.1367C142.552 26.6976 142.237 27.3735 142.022 28.1768L141.843 28.8486L139.667 28.4414L139.867 27.665C140.152 26.5575 140.6 25.5729 141.22 24.7246L141.45 24.4219C141.919 23.8303 142.439 23.3213 143.011 22.8994L143.302 22.6953C144.069 22.1545 144.903 21.7542 145.8 21.498L145.806 21.4961C146.716 21.2448 147.62 21.1172 148.514 21.1172ZM201.771 21.1172C202.754 21.1172 203.709 21.2601 204.633 21.5469L204.979 21.6631C205.776 21.949 206.506 22.3482 207.161 22.8613L207.438 23.0898C208.062 23.6326 208.576 24.2746 208.977 25.0127L209.155 25.3477C209.491 26.0281 209.689 26.7682 209.757 27.5605L209.78 27.9609V27.9814L209.826 45.0576H207.959L206.473 42.1924C205.757 43.0759 204.879 43.7958 203.842 44.3486L203.553 44.4971C202.016 45.2498 200.407 45.6299 198.734 45.6299C197.914 45.6299 197.119 45.5344 196.353 45.3428L196.349 45.3418C195.055 45.0109 193.982 44.4275 193.175 43.5645L193.018 43.3877C192.232 42.4713 191.739 41.4492 191.569 40.3281L191.565 40.3027C191.432 39.17 191.602 38.0565 192.061 36.9746L192.064 36.9648L192.164 36.751C192.646 35.7677 193.384 34.9628 194.354 34.3359L194.564 34.2041C195.714 33.4909 196.983 32.9517 198.365 32.583L198.369 32.582L199.348 32.3145C200.309 32.039 201.219 31.7395 202.079 31.417L202.483 31.2568C203.404 30.8702 204.169 30.3963 204.792 29.8428L204.899 29.7422C205.421 29.2199 205.727 28.4386 205.729 27.2861C205.535 25.8277 205.017 24.8824 204.266 24.3135L204.26 24.3096L204.255 24.3047C203.419 23.6463 202.482 23.3214 201.419 23.3213C200.8 23.3213 200.159 23.4232 199.494 23.6357C198.952 23.8172 198.436 24.0791 197.946 24.4229L197.737 24.5762C197.182 24.9991 196.674 25.5192 196.214 26.1416C195.808 26.7016 195.493 27.3758 195.279 28.1768L195.1 28.8486L192.925 28.4414L193.124 27.665C193.409 26.5575 193.857 25.5729 194.477 24.7246L194.707 24.4219C195.176 23.8301 195.697 23.3214 196.269 22.8994L196.559 22.6953C197.326 22.1545 198.16 21.7543 199.057 21.498L199.063 21.4961C199.974 21.2449 200.877 21.1172 201.771 21.1172ZM24.999 12.582V14.918H15.7588V45.0576H11.4434V14.918H4.55371L3.99805 16.2588L3.80566 16.7217H2.20312V12.582H24.999ZM103.34 12.582L103.525 13.0625L113.562 39.1445L119.092 24.8613L114.265 12.582H118.957L129.265 38.9365L139.447 12.582H142.024L129.431 45.0576H126.953L120.341 28.1611L113.812 45.0576H111.333L99.5889 15.0117L97.7188 14.0537V12.582H103.34ZM166.874 11.3799C166.557 11.5706 166.257 11.8007 165.975 12.0703C165.515 12.5084 165.117 13.0751 164.791 13.7852L164.655 14.0977C164.32 14.9239 164.139 15.9522 164.139 17.2031V43.5576H165.19V16.5C165.19 15.3849 165.33 14.388 165.628 13.5264L165.742 13.2178C166.02 12.5122 166.384 11.9028 166.846 11.4102L166.847 11.4092L166.874 11.3799ZM187.604 21.3379C188.434 21.3379 189.227 21.4493 189.978 21.6777L190.263 21.7725C190.917 22.0067 191.513 22.3446 192.044 22.7871L192.643 23.2861L191.246 24.8369L190.692 24.3838C189.875 23.7154 188.861 23.3652 187.604 23.3652C186.786 23.3652 185.946 23.5089 185.081 23.8057L185.082 23.8066C184.244 24.1039 183.459 24.5231 182.726 25.0664L182.722 25.0693C182.019 25.583 181.395 26.1907 180.852 26.8965L180.853 26.8975C180.374 27.5278 180.062 28.1963 179.905 28.9062V45.0576H175.854V24.1348L174.094 23.4316V21.7773H179.905V24.7754C180.586 23.9937 181.402 23.333 182.352 22.7979L182.673 22.623C184.282 21.7739 185.928 21.3379 187.604 21.3379ZM142.089 35.4844L142.079 35.4912L142.078 35.4902C141.171 36.0347 140.551 36.7289 140.18 37.5703C139.823 38.4154 139.698 39.2586 139.796 40.1113C139.92 40.923 140.278 41.6874 140.898 42.4111L141.13 42.6592C141.697 43.2159 142.462 43.6318 143.461 43.8877C143.651 43.9351 143.843 43.9753 144.038 44.0088C143.255 43.6309 142.604 43.0803 142.095 42.3672L142.081 42.3477C141.616 41.6493 141.299 40.8831 141.134 40.0547L141.131 40.04L141.129 40.0264C140.997 39.2043 141.014 38.3807 141.178 37.5605L141.181 37.5469L141.185 37.5322C141.381 36.7125 141.743 35.9885 142.272 35.374C142.211 35.4106 142.149 35.4468 142.089 35.4844ZM195.347 35.4844L195.337 35.4912L195.336 35.4902C194.432 36.0325 193.812 36.7227 193.44 37.5596L193.441 37.5605C193.08 38.4119 192.955 39.2611 193.055 40.1201C193.18 40.9286 193.538 41.6899 194.156 42.4111L194.387 42.6592C194.954 43.2161 195.72 43.6318 196.719 43.8877C196.908 43.935 197.1 43.9753 197.295 44.0088C196.512 43.6309 195.862 43.0802 195.353 42.3672L195.339 42.3477C194.873 41.6493 194.556 40.8831 194.391 40.0547L194.389 40.04L194.386 40.0264C194.254 39.2043 194.271 38.3808 194.436 37.5605L194.438 37.5469L194.441 37.5322C194.638 36.7128 195 35.9893 195.529 35.375C195.468 35.4114 195.407 35.447 195.347 35.4844ZM177.354 43.5576H178.405V28.7432L178.421 28.668C178.511 28.2348 178.646 27.8167 178.821 27.4131L178.405 27.3232V23.2773H177.354V43.5576ZM120.596 24.585L120.702 24.8574L120.681 24.9111L127.978 43.5576H128.403L128.93 42.1992L117.934 14.082H116.466L120.596 24.585ZM112.357 43.5576H112.783L113.219 42.4268L102.311 14.082H100.837L112.357 43.5576ZM12.9434 43.5576H14.2588V14.082H12.9434V43.5576ZM152.56 31.8154C152.351 31.9949 152.128 32.1595 151.889 32.3076L151.699 32.4199C150.776 32.943 149.78 33.387 148.713 33.7529L148.7 33.7568C147.713 34.0761 146.711 34.425 145.694 34.8027C144.807 35.143 144.058 35.6477 143.438 36.3184C143.061 36.7436 142.796 37.2552 142.646 37.8682C142.52 38.5078 142.508 39.1444 142.609 39.7822C142.737 40.408 142.974 40.981 143.322 41.5059C143.642 41.9511 144.032 42.2996 144.496 42.5576L144.701 42.6631L144.713 42.6689L144.914 42.7607C145.397 42.9628 145.975 43.0732 146.665 43.0732C147.372 43.0732 148.067 42.956 148.752 42.7188L149.008 42.625C149.596 42.396 150.13 42.0981 150.611 41.7314L150.815 41.5693C151.279 41.1892 151.666 40.7736 151.982 40.3242C152.328 39.8056 152.511 39.3011 152.56 38.8047V31.8154ZM205.816 31.8154C205.608 31.9949 205.384 32.1595 205.146 32.3076L204.956 32.4199C204.033 32.943 203.037 33.387 201.97 33.7529L201.957 33.7568C200.971 34.076 199.969 34.425 198.952 34.8027L198.951 34.8018C198.064 35.1421 197.315 35.6476 196.694 36.3184C196.319 36.7423 196.054 37.2519 195.904 37.8623C195.778 38.5003 195.765 39.1354 195.864 39.7715C195.992 40.4018 196.231 40.9778 196.581 41.5059C196.901 41.9506 197.289 42.2997 197.753 42.5576L197.958 42.6631L197.97 42.6689L198.171 42.7607C198.654 42.9629 199.233 43.0732 199.923 43.0732C200.63 43.0732 201.324 42.9558 202.009 42.7188L202.265 42.625C202.853 42.396 203.387 42.0981 203.868 41.7314L204.073 41.5693C204.537 41.1894 204.923 40.7734 205.239 40.3242C205.585 39.8055 205.767 39.3011 205.816 38.8047V31.8154ZM152.616 23.7812C153.357 24.6416 153.793 25.7824 153.966 27.1406L153.972 27.1885V27.2793C153.972 28.0843 153.845 28.8188 153.582 29.4639L154.06 29.5674V38.8857L154.057 38.9199C154.021 39.3078 153.933 39.686 153.797 40.0547L153.976 40.3984L155.062 42.4941L155.023 28.0059L155.006 27.6904C154.944 26.9656 154.745 26.327 154.42 25.7627L154.414 25.7529L154.409 25.7432C154.092 25.1546 153.688 24.6486 153.195 24.2207L152.979 24.042C152.862 23.95 152.74 23.8644 152.616 23.7812ZM205.873 23.7803C206.614 24.6407 207.05 25.782 207.223 27.1406L207.229 27.1885V27.2793C207.229 28.0842 207.103 28.8188 206.84 29.4639L207.316 29.5674V38.8857L207.313 38.9199C207.278 39.3077 207.19 39.6861 207.055 40.0547L208.318 42.4941L208.28 27.9854C208.252 27.1375 208.046 26.4023 207.677 25.7627L207.672 25.7529L207.666 25.7432C207.349 25.1548 206.946 24.6485 206.453 24.2207L206.236 24.042C206.119 23.9499 205.997 23.8635 205.873 23.7803ZM26.6104 28.7754C26.6104 30.654 26.8242 32.5032 27.251 34.3242C27.7035 36.1303 28.3629 37.7251 29.2246 39.1152C30.1074 40.4924 31.1743 41.5981 32.4238 42.4434L32.6602 42.5879C33.8519 43.2873 35.2301 43.6455 36.8164 43.6455C38.5043 43.6455 39.9564 43.2399 41.1992 42.4492C42.4831 41.6024 43.5525 40.4948 44.4072 39.1162L44.4121 39.1074L44.7354 38.5771C45.4621 37.3182 46.012 35.9021 46.3818 34.3242L46.3848 34.3135L46.5449 33.6309C46.8929 32.0342 47.0664 30.4158 47.0664 28.7754C47.0664 26.9007 46.8392 25.0551 46.3848 23.2373L46.3818 23.2266C45.9593 21.424 45.3013 19.8499 44.416 18.4941L44.4111 18.4863L44.4072 18.4785C43.5538 17.102 42.4877 16.0115 41.209 15.1953L41.1992 15.1895C39.9555 14.3692 38.5036 13.9492 36.8164 13.9492C35.1293 13.9492 33.6773 14.3692 32.4336 15.1895L32.4297 15.1914C31.1764 16.0088 30.1058 17.1038 29.2197 18.4883C28.3616 19.8457 27.7021 21.4218 27.25 23.2256L27.251 23.2266C26.8242 25.0475 26.6104 26.8968 26.6104 28.7754ZM48.5664 28.7754C48.5664 30.7688 48.3241 32.7328 47.8418 34.666L47.8428 34.667C47.3863 36.6144 46.6668 38.363 45.6807 39.9062L45.6816 39.9072C45.2557 40.5941 44.7794 41.2246 44.2539 41.7988C45.1386 41.1203 45.9223 40.3383 46.6055 39.4502L46.8115 39.1758C47.8247 37.7933 48.5954 36.2359 49.1221 34.498L49.126 34.4883L49.334 33.7881C49.7878 32.1492 50.0146 30.4787 50.0146 28.7754C50.0146 26.8289 49.7187 24.9252 49.126 23.0625L49.1221 23.0527C48.5606 21.2002 47.7226 19.5685 46.6104 18.1504L46.6055 18.1445C45.9282 17.2641 45.1523 16.4933 44.2773 15.8301C44.7901 16.3881 45.2547 17.003 45.6719 17.6738L45.8555 17.9609C46.7519 19.4079 47.4109 21.0484 47.8398 22.874L48.0098 23.6016C48.3805 25.303 48.5664 27.0278 48.5664 28.7754ZM51.5146 28.7754C51.5146 30.8769 51.194 32.9341 50.5547 34.9434C49.9814 36.8313 49.1384 38.5397 48.0225 40.0625L47.7949 40.3652C46.5562 41.9755 45.0227 43.2752 43.2021 44.2627L43.1934 44.2676C41.3382 45.2423 39.2052 45.7178 36.8164 45.7178C34.4549 45.7178 32.3248 45.2411 30.4443 44.2695L30.4375 44.2666L30.4307 44.2627C28.7237 43.3369 27.2691 42.1366 26.0732 40.6631L25.8379 40.3652C24.6086 38.7671 23.6741 36.9576 23.0332 34.9434L23.0303 34.9326C22.4223 32.9262 22.1182 30.8729 22.1182 28.7754C22.1182 26.6779 22.4223 24.6246 23.0303 22.6182L23.0332 22.6084L23.1572 22.2324C23.7505 20.493 24.5686 18.9208 25.6143 17.5215L25.8418 17.2246C27.0814 15.6147 28.6167 14.3298 30.4395 13.3721C32.3208 12.3696 34.4528 11.8779 36.8164 11.8779C39.2089 11.8779 41.3451 12.3688 43.2021 13.376C45.0213 14.3332 46.5522 15.6172 47.79 17.2246L48.0186 17.5225C49.1371 19.0217 49.9811 20.7194 50.5547 22.6084L50.7793 23.3643C51.2688 25.1326 51.5146 26.9368 51.5146 28.7754ZM58.4707 28.7754C58.4707 30.654 58.6845 32.5033 59.1113 34.3242C59.5639 36.1303 60.2233 37.7251 61.085 39.1152C61.9677 40.4924 63.0347 41.5981 64.2842 42.4434L64.5205 42.5879C65.7123 43.2873 67.0904 43.6455 68.6768 43.6455C70.3647 43.6455 71.8168 43.2399 73.0596 42.4492C74.3435 41.6024 75.4128 40.4948 76.2676 39.1162L76.2734 39.1074L76.5957 38.5771C77.3225 37.3182 77.8724 35.9021 78.2422 34.3242L78.2451 34.3135L78.4053 33.6309C78.7532 32.0342 78.9268 30.4158 78.9268 28.7754C78.9267 26.9007 78.6996 25.0551 78.2451 23.2373L78.2422 23.2266C77.8197 21.424 77.1617 19.8499 76.2764 18.4941L76.2715 18.4863L76.2676 18.4785C75.4141 17.102 74.348 16.0115 73.0693 15.1953L73.0596 15.1895C71.8158 14.3692 70.3639 13.9492 68.6768 13.9492C66.9896 13.9492 65.5377 14.3692 64.2939 15.1895L64.29 15.1914C63.038 16.008 61.9676 17.1008 61.082 18.4834L61.083 18.4844C60.2237 19.8426 59.5628 21.4202 59.1104 23.2256L59.1113 23.2266C58.6845 25.0475 58.4707 26.8968 58.4707 28.7754ZM80.4268 28.7754C80.4268 30.7688 80.1845 32.7328 79.7021 34.666L79.7031 34.667C79.2467 36.6144 78.5272 38.363 77.541 39.9062L77.542 39.9072C77.1161 40.5941 76.6397 41.2246 76.1143 41.7988C76.9989 41.1203 77.7827 40.3383 78.4658 39.4502L78.6719 39.1758C79.6851 37.7932 80.4568 36.2359 80.9834 34.498L80.9863 34.4883L81.1943 33.7881C81.6481 32.1492 81.875 30.4787 81.875 28.7754C81.875 26.8289 81.579 24.9252 80.9863 23.0625L80.9834 23.0527C80.422 21.2001 79.583 19.5686 78.4707 18.1504L78.4658 18.1445C77.7885 17.2641 77.0127 16.4933 76.1377 15.8301C76.6504 16.3881 77.1151 17.003 77.5322 17.6738L77.7158 17.9609C78.6122 19.4079 79.2713 21.0484 79.7002 22.874L79.8701 23.6016C80.2408 25.303 80.4267 27.0278 80.4268 28.7754ZM83.375 28.7754C83.375 30.873 83.0549 32.9259 82.418 34.9316L82.4189 34.9326C81.8456 36.8247 81.0008 38.5369 79.8828 40.0625L79.6553 40.3652C78.4165 41.9755 76.883 43.2753 75.0625 44.2627L75.0537 44.2676C73.1985 45.2424 71.0656 45.7178 68.6768 45.7178C66.3152 45.7178 64.1852 45.2411 62.3047 44.2695L62.2979 44.2666L62.291 44.2627C60.5841 43.3369 59.1295 42.1366 57.9336 40.6631L57.6982 40.3652C56.469 38.7672 55.5355 36.9575 54.8945 34.9434L54.8906 34.9326C54.2827 32.9262 53.9785 30.8729 53.9785 28.7754C53.9785 26.6779 54.2826 24.6246 54.8906 22.6182L54.8936 22.6084C55.4948 20.7189 56.3542 19.0209 57.4746 17.5215L57.7021 17.2246C58.9418 15.6147 60.477 14.3298 62.2998 13.3721C64.1812 12.3696 66.3131 11.8779 68.6768 11.8779C71.0693 11.8779 73.2055 12.3688 75.0625 13.376C76.8817 14.3332 78.4126 15.6172 79.6504 17.2246C80.8846 18.7983 81.8071 20.599 82.4189 22.6182C83.0562 24.6242 83.375 26.6774 83.375 28.7754ZM166.69 21.7773H172.938V23.9375H166.69V45.0576H162.639V23.9375H159.163V21.7773H162.639V17.2031C162.639 15.8145 162.839 14.5841 163.266 13.5332L163.428 13.1592C163.821 12.3033 164.321 11.573 164.939 10.9844C165.658 10.299 166.481 9.80254 167.404 9.50195C168.305 9.18045 169.226 9.01758 170.165 9.01758C171.381 9.01761 172.564 9.25838 173.709 9.73535L174.136 9.92676C175.109 10.3975 175.933 11.0359 176.597 11.8438L177.073 12.4238L176.492 12.9004L176.008 13.2959L175.421 13.7764L174.947 13.1846C174.499 12.6238 173.965 12.1831 173.343 11.8594L173.07 11.7275C172.307 11.3853 171.56 11.2217 170.825 11.2217C170.342 11.2217 169.882 11.2981 169.442 11.4502L169.255 11.5195C168.779 11.7101 168.34 12.0104 167.939 12.4355L167.94 12.4365C167.632 12.7651 167.36 13.2019 167.138 13.7666L167.046 14.0166C166.816 14.6803 166.69 15.5032 166.69 16.5V21.7773Z" fill="white"/>
</svg>
