<svg width="27" height="28" viewBox="0 0 27 28" fill="none" xmlns="http://www.w3.org/2000/svg">
<path fill-rule="evenodd" clip-rule="evenodd" d="M22.6676 4.64468C20.1987 2.17288 16.9152 0.81102 13.4172 0.80957C6.20928 0.80957 0.343058 6.67563 0.340158 13.8855C0.339192 16.1903 0.941277 18.4401 2.08569 20.4232L0.230469 27.1995L7.16282 25.381C9.07297 26.423 11.2234 26.9721 13.4119 26.9727H13.4174C20.6245 26.9727 26.4914 21.1062 26.4941 13.896C26.4956 10.4017 25.1366 7.11632 22.6676 4.64468ZM13.4172 24.7643H13.4127C11.4625 24.7635 9.54974 24.2393 7.88072 23.2492L7.484 23.0136L3.37024 24.0928L4.46826 20.0819L4.20974 19.6707C3.1217 17.9402 2.54716 15.94 2.54813 13.8863C2.55038 7.89366 7.42634 3.01818 13.4216 3.01818C16.3247 3.01915 19.0538 4.15116 21.1058 6.20563C23.1579 8.26009 24.2873 10.9909 24.2863 13.8952C24.2838 19.8883 19.4081 24.7643 13.4172 24.7643ZM19.3791 16.6239C19.0525 16.4602 17.4459 15.67 17.1464 15.5608C16.8471 15.4518 16.629 15.3975 16.4114 15.7245C16.1935 16.0514 15.5674 16.7875 15.3767 17.0055C15.186 17.2236 14.9956 17.2509 14.6688 17.0873C14.3419 16.9238 13.2892 16.5786 12.041 15.4655C11.0698 14.5991 10.4141 13.5291 10.2233 13.2021C10.033 12.8748 10.2217 12.715 10.3667 12.5353C10.7204 12.096 11.0746 11.6355 11.1835 11.4176C11.2925 11.1995 11.2379 11.0086 11.1561 10.8451C11.0746 10.6816 10.4211 9.07334 10.1489 8.41891C9.88348 7.78203 9.61433 7.86804 9.41364 7.85806C9.22325 7.84856 9.00532 7.84662 8.78739 7.84662C8.56962 7.84662 8.21559 7.92829 7.91599 8.25558C7.61656 8.58272 6.77255 9.3731 6.77255 10.9814C6.77255 12.5897 7.94338 14.1434 8.1067 14.3615C8.27003 14.5796 10.4108 17.8799 13.6885 19.2951C14.4681 19.6321 15.0766 19.8329 15.5513 19.9835C16.3341 20.2322 17.0462 20.1971 17.6093 20.113C18.2371 20.0191 19.5423 19.3225 19.8148 18.5593C20.087 17.796 20.087 17.1419 20.0052 17.0055C19.9237 16.8692 19.7058 16.7875 19.3791 16.6239Z" fill="white"/>
</svg>
