<svg width="23" height="23" viewBox="0 0 23 23" fill="none" xmlns="http://www.w3.org/2000/svg">
<path d="M20.5848 15.218C19.2339 15.218 17.9076 15.0067 16.6507 14.5913C16.0347 14.3813 15.2776 14.574 14.9017 14.96L12.4208 16.8329C9.54368 15.297 7.77141 13.5254 6.25657 10.6698L8.07428 8.25356C8.54653 7.78194 8.71592 7.093 8.51298 6.44659C8.09583 5.18307 7.88392 3.85732 7.88392 2.50589C7.88398 1.52961 7.08972 0.735352 6.1135 0.735352H2.0615C1.08527 0.735352 0.291016 1.52961 0.291016 2.50583C0.291016 13.6959 9.39468 22.7996 20.5848 22.7996C21.561 22.7996 22.3553 22.0053 22.3553 21.0291V16.9884C22.3552 16.0122 21.561 15.218 20.5848 15.218Z" fill="white"/>
</svg>
