<svg width="212" height="56" viewBox="0 0 212 56" fill="none" xmlns="http://www.w3.org/2000/svg">
<path fill-rule="evenodd" clip-rule="evenodd" d="M137.539 10.8007C137.353 9.91311 137.215 9.02536 137.027 8.18597C133.762 7.02312 124.761 3.72365 121.946 2.57924L121.957 2.57923C122.237 3.34341 121.946 2.57924 121.946 2.57924C121.946 2.57924 122.857 4.88295 123.156 5.58274C123.156 5.58274 135.377 10.0415 137.539 10.8007Z" fill="#F59B33"/>
<path d="M2.95312 13.148H24.2491V13.984H15.0091V44.124H12.1931V13.984H4.05313L3.30513 15.788H2.95312V13.148Z" fill="#084A7A"/>
<path d="M36.8163 12.444C39.1043 12.444 41.1136 12.9133 42.8443 13.852C44.5749 14.7613 46.027 15.9787 47.2003 17.504C48.3736 19 49.2536 20.716 49.8403 22.652C50.4563 24.588 50.7643 26.568 50.7643 28.592C50.7643 30.616 50.4563 32.596 49.8403 34.532C49.2536 36.468 48.3736 38.1987 47.2003 39.724C46.027 41.2493 44.5749 42.4813 42.8443 43.42C41.1136 44.3293 39.1043 44.784 36.8163 44.784C34.5576 44.784 32.5483 44.3293 30.7883 43.42C29.0576 42.4813 27.6056 41.2493 26.4323 39.724C25.2589 38.1987 24.3643 36.468 23.7483 34.532C23.1616 32.596 22.8683 30.616 22.8683 28.592C22.8683 26.568 23.1616 24.588 23.7483 22.652C24.3643 20.716 25.2589 19 26.4323 17.504C27.6056 15.9787 29.0576 14.7613 30.7883 13.852C32.5483 12.9133 34.5576 12.444 36.8163 12.444ZM36.8163 44.212C38.6349 44.212 40.2336 43.772 41.6123 42.892C42.9909 41.9827 44.1349 40.7947 45.0443 39.328C45.9829 37.8613 46.6723 36.1893 47.1123 34.312C47.5816 32.4347 47.8163 30.528 47.8163 28.592C47.8163 26.656 47.5816 24.7493 47.1123 22.872C46.6723 20.9947 45.9829 19.3373 45.0443 17.9C44.1349 16.4333 42.9909 15.26 41.6123 14.38C40.2336 13.4707 38.6349 13.016 36.8163 13.016C34.9976 13.016 33.3989 13.4707 32.0203 14.38C30.6709 15.26 29.5269 16.4333 28.5883 17.9C27.6789 19.3373 26.9896 20.9947 26.5203 22.872C26.0803 24.7493 25.8603 26.656 25.8603 28.592C25.8603 30.528 26.0803 32.4347 26.5203 34.312C26.9896 36.1893 27.6789 37.8613 28.5883 39.328C29.5269 40.7947 30.6709 41.9827 32.0203 42.892C33.3989 43.772 34.9976 44.212 36.8163 44.212Z" fill="#084A7A"/>
<path d="M68.6768 12.444C70.9648 12.444 72.9741 12.9133 74.7048 13.852C76.4354 14.7613 77.8874 15.9787 79.0608 17.504C80.2341 19 81.1141 20.716 81.7008 22.652C82.3167 24.588 82.6247 26.568 82.6247 28.592C82.6247 30.616 82.3167 32.596 81.7008 34.532C81.1141 36.468 80.2341 38.1987 79.0608 39.724C77.8874 41.2493 76.4354 42.4813 74.7048 43.42C72.9741 44.3293 70.9648 44.784 68.6768 44.784C66.4181 44.784 64.4087 44.3293 62.6488 43.42C60.9181 42.4813 59.4661 41.2493 58.2927 39.724C57.1194 38.1987 56.2248 36.468 55.6087 34.532C55.0221 32.596 54.7287 30.616 54.7287 28.592C54.7287 26.568 55.0221 24.588 55.6087 22.652C56.2248 20.716 57.1194 19 58.2927 17.504C59.4661 15.9787 60.9181 14.7613 62.6488 13.852C64.4087 12.9133 66.4181 12.444 68.6768 12.444ZM68.6768 44.212C70.4954 44.212 72.0941 43.772 73.4727 42.892C74.8514 41.9827 75.9954 40.7947 76.9047 39.328C77.8434 37.8613 78.5327 36.1893 78.9727 34.312C79.4421 32.4347 79.6768 30.528 79.6768 28.592C79.6768 26.656 79.4421 24.7493 78.9727 22.872C78.5327 20.9947 77.8434 19.3373 76.9047 17.9C75.9954 16.4333 74.8514 15.26 73.4727 14.38C72.0941 13.4707 70.4954 13.016 68.6768 13.016C66.8581 13.016 65.2594 13.4707 63.8807 14.38C62.5314 15.26 61.3874 16.4333 60.4487 17.9C59.5394 19.3373 58.8501 20.9947 58.3807 22.872C57.9408 24.7493 57.7207 26.656 57.7207 28.592C57.7207 30.528 57.9408 32.4347 58.3807 34.312C58.8501 36.1893 59.5394 37.8613 60.4487 39.328C61.3874 40.7947 62.5314 41.9827 63.8807 42.892C65.2594 43.772 66.8581 44.212 68.6768 44.212Z" fill="#084A7A"/>
<path d="M98.4692 13.148H102.825L113.561 41.044L119.897 24.676L115.365 13.148H118.445L129.269 40.824L139.961 13.148H140.929L128.917 44.124H127.465L120.337 25.908L113.297 44.124H111.845L100.185 14.292L98.4692 13.412V13.148Z" fill="#084A7A"/>
<path d="M141.693 34.664C142.779 33.9893 143.981 33.476 145.301 33.124C146.651 32.772 147.912 32.376 149.085 31.936C150.259 31.496 151.241 30.924 152.033 30.22C152.825 29.516 153.221 28.4747 153.221 27.096V27.052C153.016 25.4387 152.429 24.2653 151.461 23.532C150.493 22.7693 149.393 22.388 148.161 22.388C147.457 22.388 146.739 22.5053 146.005 22.74C145.301 22.9747 144.641 23.3267 144.025 23.796C143.409 24.2653 142.852 24.8373 142.353 25.512C141.884 26.1573 141.532 26.92 141.297 27.8L140.593 27.668C140.857 26.6413 141.268 25.7467 141.825 24.984C142.383 24.2213 143.013 23.6053 143.717 23.136C144.421 22.6373 145.184 22.2707 146.005 22.036C146.856 21.8013 147.692 21.684 148.513 21.684C149.423 21.684 150.303 21.816 151.153 22.08C152.004 22.344 152.767 22.74 153.441 23.268C154.116 23.796 154.659 24.4413 155.069 25.204C155.509 25.9667 155.744 26.832 155.773 27.8L155.817 44.124H155.157L153.309 40.56C152.517 41.9093 151.403 42.936 149.965 43.64C148.528 44.344 147.032 44.696 145.477 44.696C144.715 44.696 143.981 44.608 143.277 44.432C142.016 44.1093 141.033 43.5373 140.329 42.716C139.625 41.8946 139.2 41 139.053 40.032C138.936 39.0347 139.083 38.052 139.493 37.084C139.933 36.0867 140.667 35.28 141.693 34.664ZM144.377 43.156C145.023 43.4787 145.785 43.64 146.665 43.64C147.457 43.64 148.235 43.508 148.997 43.244C149.76 42.98 150.449 42.6133 151.065 42.144C151.681 41.6747 152.195 41.1467 152.605 40.56C153.016 39.944 153.251 39.3133 153.309 38.668V29.384C152.869 30.352 152.209 31.0853 151.329 31.584C150.449 32.0827 149.496 32.508 148.469 32.86C147.472 33.1827 146.46 33.5347 145.433 33.916C144.436 34.2973 143.585 34.8693 142.881 35.632C142.412 36.16 142.089 36.7907 141.913 37.524C141.767 38.2573 141.752 38.9907 141.869 39.724C142.016 40.4573 142.295 41.132 142.705 41.748C143.145 42.364 143.703 42.8333 144.377 43.156Z" fill="#084A7A"/>
<path d="M159.913 22.344H163.389V17.02C163.389 15.7 163.579 14.5707 163.961 13.632C164.342 12.6933 164.841 11.9307 165.457 11.344C166.102 10.728 166.835 10.288 167.657 10.024C168.478 9.73065 169.314 9.58398 170.165 9.58398C171.279 9.58398 172.365 9.80398 173.421 10.244C174.477 10.684 175.342 11.3146 176.017 12.136L175.533 12.532C174.946 11.7987 174.227 11.2413 173.377 10.86C172.526 10.4786 171.675 10.288 170.825 10.288C170.179 10.288 169.563 10.4053 168.977 10.64C168.39 10.8747 167.862 11.2413 167.393 11.74C166.953 12.2093 166.601 12.8253 166.337 13.588C166.073 14.3507 165.941 15.26 165.941 16.316V22.344H172.189V23.004H165.941V44.124H163.389V23.004H159.913V22.344Z" fill="#084A7A"/>
<path d="M174.844 22.344H179.156V27.14C179.918 25.468 181.106 24.1773 182.72 23.268C184.333 22.3587 185.961 21.904 187.604 21.904C188.366 21.904 189.085 22.0067 189.76 22.212C190.434 22.4173 191.036 22.74 191.564 23.18L191.168 23.62C190.2 22.828 189.012 22.432 187.604 22.432C186.694 22.432 185.77 22.5933 184.832 22.916C183.922 23.2387 183.072 23.6933 182.28 24.28C181.517 24.8373 180.842 25.4973 180.256 26.26C179.698 26.9933 179.332 27.7853 179.156 28.636V44.124H176.604V23.444L174.844 22.74V22.344Z" fill="#084A7A"/>
<path d="M194.951 34.664C196.036 33.9893 197.239 33.476 198.559 33.124C199.908 32.772 201.169 32.376 202.343 31.936C203.516 31.496 204.499 30.924 205.291 30.22C206.083 29.516 206.479 28.4747 206.479 27.096V27.052C206.273 25.4387 205.687 24.2653 204.719 23.532C203.751 22.7693 202.651 22.388 201.419 22.388C200.715 22.388 199.996 22.5053 199.263 22.74C198.559 22.9747 197.899 23.3267 197.283 23.796C196.667 24.2653 196.109 24.8373 195.611 25.512C195.141 26.1573 194.789 26.92 194.555 27.8L193.851 27.668C194.115 26.6413 194.525 25.7467 195.083 24.984C195.64 24.2213 196.271 23.6053 196.975 23.136C197.679 22.6373 198.441 22.2707 199.263 22.036C200.113 21.8013 200.949 21.684 201.771 21.684C202.68 21.684 203.56 21.816 204.411 22.08C205.261 22.344 206.024 22.74 206.699 23.268C207.373 23.796 207.916 24.4413 208.327 25.204C208.767 25.9667 209.001 26.832 209.031 27.8L209.075 44.124H208.415L206.567 40.56C205.775 41.9093 204.66 42.936 203.223 43.64C201.785 44.344 200.289 44.696 198.735 44.696C197.972 44.696 197.239 44.608 196.535 44.432C195.273 44.1093 194.291 43.5373 193.587 42.716C192.883 41.8946 192.457 41 192.311 40.032C192.193 39.0347 192.34 38.052 192.751 37.084C193.191 36.0867 193.924 35.28 194.951 34.664ZM197.635 43.156C198.28 43.4787 199.043 43.64 199.923 43.64C200.715 43.64 201.492 43.508 202.255 43.244C203.017 42.98 203.707 42.6133 204.323 42.144C204.939 41.6747 205.452 41.1467 205.863 40.56C206.273 39.944 206.508 39.3133 206.567 38.668V29.384C206.127 30.352 205.467 31.0853 204.587 31.584C203.707 32.0827 202.753 32.508 201.727 32.86C200.729 33.1827 199.717 33.5347 198.691 33.916C197.693 34.2973 196.843 34.8693 196.139 35.632C195.669 36.16 195.347 36.7907 195.171 37.524C195.024 38.2573 195.009 38.9907 195.127 39.724C195.273 40.4573 195.552 41.132 195.963 41.748C196.403 42.364 196.96 42.8333 197.635 43.156Z" fill="#084A7A"/>
<path d="M25.1104 28.5918C25.1104 26.5986 25.3369 24.6347 25.79 22.7012L25.793 22.6904L25.9863 21.9707C26.4625 20.3159 27.1164 18.8232 27.9541 17.499L27.957 17.4961L28.1455 17.209C28.5398 16.6243 28.9676 16.0838 29.4297 15.5889C28.5237 16.2648 27.7231 17.0552 27.0264 17.9609L27.0225 17.9668C25.9081 19.3876 25.0536 21.0225 24.4629 22.8789C23.8995 24.7413 23.6182 26.6448 23.6182 28.5918C23.6182 30.5387 23.8996 32.4424 24.4629 34.3047L24.6973 34.9912C25.2722 36.5717 26.0488 37.9957 27.0264 39.2666L27.2373 39.5332C27.8895 40.3369 28.6285 41.0493 29.4541 41.6729C28.9084 41.0855 28.4091 40.4387 27.957 39.7324L27.9512 39.7236C26.9963 38.1836 26.2789 36.4377 25.793 34.4941L25.79 34.4834C25.3368 32.5497 25.1104 30.5852 25.1104 28.5918ZM56.9707 28.5918C56.9707 26.5986 57.1973 24.6347 57.6504 22.7012L57.6533 22.6904L57.8467 21.9707C58.3228 20.3159 58.9767 18.8232 59.8145 17.499L59.8174 17.4961L60.0059 17.209C60.4002 16.6243 60.8279 16.0838 61.29 15.5889C60.3842 16.2646 59.5843 17.0554 58.8877 17.9609L58.8828 17.9668C57.7685 19.3876 56.914 21.0225 56.3232 22.8789C55.7599 24.7412 55.4785 26.6448 55.4785 28.5918C55.4785 30.5387 55.76 32.4424 56.3232 34.3047L56.5576 34.9912C57.1326 36.5719 57.91 37.9956 58.8877 39.2666L59.0977 39.5332C59.7498 40.3369 60.4889 41.0493 61.3145 41.6729C60.7687 41.0855 60.2694 40.4387 59.8174 39.7324L59.8115 39.7236C58.8567 38.1836 58.1392 36.4377 57.6533 34.4941L57.6504 34.4834C57.1972 32.5497 56.9707 30.5852 56.9707 28.5918ZM148.514 20.9336C149.497 20.9336 150.452 21.0765 151.376 21.3633L151.722 21.4795C152.519 21.7654 153.248 22.1647 153.903 22.6777L154.181 22.9062C154.805 23.4489 155.319 24.0912 155.719 24.8291L155.898 25.1641C156.234 25.8445 156.432 26.5847 156.5 27.377L156.523 27.7773V27.7979L156.569 44.874H154.701L153.216 42.0098C152.501 42.893 151.622 43.6123 150.585 44.165L150.295 44.3135C148.758 45.0661 147.15 45.4463 145.478 45.4463C144.657 45.4463 143.862 45.3508 143.096 45.1592L143.092 45.1582C141.798 44.8274 140.725 44.2439 139.918 43.3809L139.76 43.2041C138.974 42.2877 138.481 41.2657 138.312 40.1445L138.31 40.1318L138.309 40.1191C138.175 38.9864 138.344 37.8729 138.803 36.791L138.807 36.7812C139.284 35.7004 140.057 34.824 141.096 34.1523L141.308 34.0205C142.457 33.3073 143.726 32.7681 145.108 32.3994L145.112 32.3984L146.091 32.1309C147.052 31.8555 147.962 31.5558 148.822 31.2334L149.226 31.0732C150.146 30.6865 150.912 30.2128 151.535 29.6592L151.643 29.5586C152.164 29.0363 152.471 28.2549 152.472 27.1025C152.278 25.6442 151.76 24.6988 151.009 24.1299L151.003 24.126L150.997 24.1211C150.161 23.4627 149.225 23.1377 148.161 23.1377C147.542 23.1377 146.9 23.241 146.234 23.4541C145.693 23.6355 145.178 23.896 144.688 24.2393L144.479 24.3926C143.926 24.8144 143.418 25.332 142.959 25.9521L142.96 25.9531C142.552 26.514 142.237 27.1899 142.022 27.9932L141.843 28.665L139.667 28.2578L139.867 27.4814C140.152 26.3739 140.6 25.3893 141.22 24.541L141.45 24.2383C141.919 23.6467 142.439 23.1377 143.011 22.7158L143.302 22.5117C144.069 21.9709 144.903 21.5707 145.8 21.3145L145.806 21.3125C146.716 21.0612 147.62 20.9336 148.514 20.9336ZM201.771 20.9336C202.754 20.9336 203.709 21.0765 204.633 21.3633L204.979 21.4795C205.776 21.7655 206.506 22.1646 207.161 22.6777L207.438 22.9062C208.062 23.449 208.576 24.091 208.977 24.8291L209.155 25.1641C209.491 25.8445 209.689 26.5847 209.757 27.377L209.78 27.7773V27.7979L209.826 44.874H207.959L206.473 42.0088C205.757 42.8923 204.879 43.6122 203.842 44.165L203.553 44.3135C202.016 45.0662 200.407 45.4463 198.734 45.4463C197.914 45.4463 197.119 45.3508 196.353 45.1592L196.349 45.1582C195.055 44.8273 193.982 44.2439 193.175 43.3809L193.018 43.2041C192.232 42.2877 191.739 41.2657 191.569 40.1445L191.565 40.1191C191.432 38.9864 191.602 37.8729 192.061 36.791L192.064 36.7812L192.164 36.5674C192.646 35.5841 193.384 34.7792 194.354 34.1523L194.564 34.0205C195.714 33.3073 196.983 32.7681 198.365 32.3994L198.369 32.3984L199.348 32.1309C200.309 31.8554 201.219 31.5559 202.079 31.2334L202.483 31.0732C203.404 30.6866 204.169 30.2127 204.792 29.6592L204.899 29.5586C205.421 29.0363 205.727 28.255 205.729 27.1025C205.535 25.6441 205.017 24.6988 204.266 24.1299L204.26 24.126L204.255 24.1211C203.419 23.4627 202.482 23.1378 201.419 23.1377C200.8 23.1377 200.159 23.2397 199.494 23.4521C198.952 23.6336 198.436 23.8955 197.946 24.2393L197.737 24.3926C197.182 24.8155 196.674 25.3356 196.214 25.958C195.808 26.518 195.493 27.1922 195.279 27.9932L195.1 28.665L192.925 28.2578L193.124 27.4814C193.409 26.3739 193.857 25.3893 194.477 24.541L194.707 24.2383C195.176 23.6465 195.697 23.1378 196.269 22.7158L196.559 22.5117C197.326 21.9709 198.16 21.5707 199.057 21.3145L199.063 21.3125C199.974 21.0613 200.877 20.9336 201.771 20.9336ZM24.999 12.3984V14.7344H15.7588V44.874H11.4434V14.7344H4.55371L3.99805 16.0752L3.80566 16.5381H2.20312V12.3984H24.999ZM103.34 12.3984L103.525 12.8789L113.562 38.9609L119.092 24.6777L114.265 12.3984H118.957L129.265 38.7529L139.447 12.3984H142.024L129.431 44.874H126.953L120.341 27.9775L113.812 44.874H111.333L99.5889 14.8281L97.7188 13.8701V12.3984H103.34ZM166.874 11.1963C166.557 11.387 166.257 11.6172 165.975 11.8867C165.515 12.3248 165.117 12.8915 164.791 13.6016L164.655 13.9141C164.32 14.7403 164.139 15.7686 164.139 17.0195V43.374H165.19V16.3164C165.19 15.2013 165.33 14.2044 165.628 13.3428L165.742 13.0342C166.02 12.3286 166.384 11.7193 166.846 11.2266L166.847 11.2256L166.874 11.1963ZM187.604 21.1543C188.434 21.1543 189.227 21.2657 189.978 21.4941L190.263 21.5889C190.917 21.8231 191.513 22.161 192.044 22.6035L192.643 23.1025L191.246 24.6533L190.692 24.2002C189.875 23.5318 188.861 23.1816 187.604 23.1816C186.786 23.1817 185.946 23.3253 185.081 23.6221L185.082 23.623C184.244 23.9203 183.459 24.3395 182.726 24.8828L182.722 24.8857C182.019 25.3994 181.395 26.0071 180.852 26.7129L180.853 26.7139C180.374 27.3442 180.062 28.0127 179.905 28.7227V44.874H175.854V23.9512L174.094 23.248V21.5938H179.905V24.5918C180.586 23.8101 181.402 23.1494 182.352 22.6143L182.673 22.4395C184.282 21.5903 185.928 21.1543 187.604 21.1543ZM142.089 35.3008L142.079 35.3076L142.078 35.3066C141.171 35.8511 140.551 36.5453 140.18 37.3867C139.823 38.2318 139.698 39.075 139.796 39.9277C139.92 40.7394 140.278 41.5038 140.898 42.2275L141.13 42.4756C141.697 43.0323 142.462 43.4482 143.461 43.7041C143.651 43.7515 143.843 43.7917 144.038 43.8252C143.255 43.4473 142.604 42.8967 142.095 42.1836L142.081 42.1641C141.616 41.4657 141.299 40.6995 141.134 39.8711L141.131 39.8564L141.129 39.8428C140.997 39.0207 141.014 38.1971 141.178 37.377L141.181 37.3633L141.185 37.3486C141.381 36.5289 141.743 35.8049 142.272 35.1904C142.211 35.227 142.149 35.2632 142.089 35.3008ZM195.347 35.3008L195.337 35.3076L195.336 35.3066C194.432 35.8489 193.812 36.5391 193.44 37.376L193.441 37.377C193.08 38.2283 192.955 39.0775 193.055 39.9365C193.18 40.745 193.538 41.5063 194.156 42.2275L194.387 42.4756C194.954 43.0325 195.72 43.4482 196.719 43.7041C196.908 43.7514 197.1 43.7918 197.295 43.8252C196.512 43.4473 195.862 42.8966 195.353 42.1836L195.339 42.1641C194.873 41.4657 194.556 40.6995 194.391 39.8711L194.389 39.8564L194.386 39.8428C194.254 39.0207 194.271 38.1972 194.436 37.377L194.438 37.3633L194.441 37.3486C194.638 36.5292 195 35.8058 195.529 35.1914C195.468 35.2278 195.407 35.2634 195.347 35.3008ZM177.354 43.374H178.405V28.5596L178.421 28.4844C178.511 28.0512 178.646 27.6331 178.821 27.2295L178.405 27.1396V23.0938H177.354V43.374ZM120.596 24.4014L120.702 24.6738L120.681 24.7275L127.978 43.374H128.403L128.93 42.0156L117.934 13.8984H116.466L120.596 24.4014ZM112.357 43.374H112.783L113.219 42.2432L102.311 13.8984H100.837L112.357 43.374ZM12.9434 43.374H14.2588V13.8984H12.9434V43.374ZM152.56 31.6318C152.351 31.8113 152.128 31.9759 151.889 32.124L151.699 32.2363C150.776 32.7594 149.78 33.2034 148.713 33.5693L148.7 33.5732C147.713 33.8925 146.711 34.2414 145.694 34.6191C144.807 34.9594 144.058 35.4641 143.438 36.1348C143.061 36.56 142.796 37.0716 142.646 37.6846C142.52 38.3242 142.508 38.9608 142.609 39.5986C142.737 40.2244 142.974 40.7974 143.322 41.3223C143.642 41.7675 144.032 42.116 144.496 42.374L144.701 42.4795L144.713 42.4854L144.914 42.5771C145.397 42.7792 145.975 42.8896 146.665 42.8896C147.372 42.8896 148.067 42.7724 148.752 42.5352L149.008 42.4414C149.596 42.2124 150.13 41.9145 150.611 41.5479L150.815 41.3857C151.279 41.0056 151.666 40.59 151.982 40.1406C152.328 39.622 152.511 39.1175 152.56 38.6211V31.6318ZM205.816 31.6318C205.608 31.8113 205.384 31.9759 205.146 32.124L204.956 32.2363C204.033 32.7594 203.037 33.2034 201.97 33.5693L201.957 33.5732C200.971 33.8924 199.969 34.2414 198.952 34.6191L198.951 34.6182C198.064 34.9585 197.315 35.464 196.694 36.1348C196.319 36.5587 196.054 37.0684 195.904 37.6787C195.778 38.3167 195.765 38.9518 195.864 39.5879C195.992 40.2182 196.231 40.7942 196.581 41.3223C196.901 41.7671 197.289 42.1161 197.753 42.374L197.958 42.4795L197.97 42.4854L198.171 42.5771C198.654 42.7793 199.233 42.8896 199.923 42.8896C200.63 42.8896 201.324 42.7723 202.009 42.5352L202.265 42.4414C202.853 42.2124 203.387 41.9145 203.868 41.5479L204.073 41.3857C204.537 41.0058 204.923 40.5898 205.239 40.1406C205.585 39.6219 205.767 39.1175 205.816 38.6211V31.6318ZM152.616 23.5977C153.357 24.458 153.793 25.5988 153.966 26.957L153.972 27.0049V27.0957C153.972 27.9007 153.845 28.6352 153.582 29.2803L154.06 29.3838V38.7021L154.057 38.7363C154.021 39.1242 153.933 39.5024 153.797 39.8711L153.976 40.2148L155.062 42.3105L155.023 27.8223L155.006 27.5068C154.944 26.782 154.745 26.1434 154.42 25.5791L154.414 25.5693L154.409 25.5596C154.092 24.971 153.688 24.465 153.195 24.0371L152.979 23.8584C152.862 23.7664 152.74 23.6808 152.616 23.5977ZM205.873 23.5967C206.614 24.4571 207.05 25.5984 207.223 26.957L207.229 27.0049V27.0957C207.229 27.9006 207.103 28.6352 206.84 29.2803L207.316 29.3838V38.7021L207.313 38.7363C207.278 39.1241 207.19 39.5025 207.055 39.8711L208.318 42.3105L208.28 27.8018C208.252 26.9539 208.046 26.2187 207.677 25.5791L207.672 25.5693L207.666 25.5596C207.349 24.9712 206.946 24.4649 206.453 24.0371L206.236 23.8584C206.119 23.7663 205.997 23.6799 205.873 23.5967ZM26.6104 28.5918C26.6104 30.4704 26.8242 32.3197 27.251 34.1406C27.7035 35.9467 28.3629 37.5415 29.2246 38.9316C30.1074 40.3089 31.1743 41.4145 32.4238 42.2598L32.6602 42.4043C33.8519 43.1037 35.2301 43.4619 36.8164 43.4619C38.5043 43.4619 39.9564 43.0563 41.1992 42.2656C42.4831 41.4188 43.5525 40.3112 44.4072 38.9326L44.4121 38.9238L44.7354 38.3936C45.4621 37.1346 46.012 35.7185 46.3818 34.1406L46.3848 34.1299L46.5449 33.4473C46.8929 31.8506 47.0664 30.2322 47.0664 28.5918C47.0664 26.7172 46.8392 24.8715 46.3848 23.0537L46.3818 23.043C45.9593 21.2404 45.3013 19.6663 44.416 18.3105L44.4111 18.3027L44.4072 18.2949C43.5538 16.9184 42.4877 15.8279 41.209 15.0117L41.1992 15.0059C39.9555 14.1856 38.5036 13.7656 36.8164 13.7656C35.1293 13.7656 33.6773 14.1856 32.4336 15.0059L32.4297 15.0078C31.1764 15.8252 30.1058 16.9202 29.2197 18.3047C28.3616 19.6621 27.7021 21.2382 27.25 23.042L27.251 23.043C26.8242 24.8639 26.6104 26.7132 26.6104 28.5918ZM48.5664 28.5918C48.5664 30.5852 48.3241 32.5492 47.8418 34.4824L47.8428 34.4834C47.3863 36.4308 46.6668 38.1794 45.6807 39.7227L45.6816 39.7236C45.2557 40.4105 44.7794 41.041 44.2539 41.6152C45.1386 40.9367 45.9223 40.1547 46.6055 39.2666L46.8115 38.9922C47.8247 37.6097 48.5954 36.0523 49.1221 34.3145L49.126 34.3047L49.334 33.6045C49.7878 31.9656 50.0146 30.2951 50.0146 28.5918C50.0146 26.6453 49.7187 24.7416 49.126 22.8789L49.1221 22.8691C48.5606 21.0166 47.7226 19.3849 46.6104 17.9668L46.6055 17.9609C45.9282 17.0805 45.1523 16.3097 44.2773 15.6465C44.7901 16.2045 45.2547 16.8194 45.6719 17.4902L45.8555 17.7773C46.7519 19.2243 47.4109 20.8648 47.8398 22.6904L48.0098 23.418C48.3805 25.1194 48.5664 26.8442 48.5664 28.5918ZM51.5146 28.5918C51.5146 30.6933 51.194 32.7505 50.5547 34.7598C49.9814 36.6477 49.1384 38.3561 48.0225 39.8789L47.7949 40.1816C46.5562 41.7919 45.0227 43.0917 43.2021 44.0791L43.1934 44.084C41.3382 45.0587 39.2052 45.5342 36.8164 45.5342C34.4549 45.5342 32.3248 45.0575 30.4443 44.0859L30.4375 44.083L30.4307 44.0791C28.7237 43.1533 27.2691 41.953 26.0732 40.4795L25.8379 40.1816C24.6086 38.5835 23.6741 36.774 23.0332 34.7598L23.0303 34.749C22.4223 32.7426 22.1182 30.6893 22.1182 28.5918C22.1182 26.4943 22.4223 24.441 23.0303 22.4346L23.0332 22.4248L23.1572 22.0488C23.7505 20.3094 24.5686 18.7372 25.6143 17.3379L25.8418 17.041C27.0814 15.4311 28.6167 14.1462 30.4395 13.1885C32.3208 12.186 34.4528 11.6943 36.8164 11.6943C39.2089 11.6944 41.3451 12.1852 43.2021 13.1924C45.0213 14.1496 46.5522 15.4336 47.79 17.041L48.0186 17.3389C49.1371 18.8382 49.9811 20.5358 50.5547 22.4248L50.7793 23.1807C51.2688 24.949 51.5146 26.7532 51.5146 28.5918ZM58.4707 28.5918C58.4707 30.4704 58.6845 32.3197 59.1113 34.1406C59.5639 35.9467 60.2233 37.5415 61.085 38.9316C61.9677 40.3088 63.0347 41.4145 64.2842 42.2598L64.5205 42.4043C65.7123 43.1037 67.0904 43.4619 68.6768 43.4619C70.3647 43.4619 71.8168 43.0563 73.0596 42.2656C74.3435 41.4188 75.4128 40.3112 76.2676 38.9326L76.2734 38.9238L76.5957 38.3936C77.3225 37.1346 77.8724 35.7185 78.2422 34.1406L78.2451 34.1299L78.4053 33.4473C78.7532 31.8506 78.9268 30.2322 78.9268 28.5918C78.9267 26.7172 78.6996 24.8715 78.2451 23.0537L78.2422 23.043C77.8197 21.2404 77.1617 19.6663 76.2764 18.3105L76.2715 18.3027L76.2676 18.2949C75.4141 16.9184 74.348 15.8279 73.0693 15.0117L73.0596 15.0059C71.8158 14.1856 70.3639 13.7656 68.6768 13.7656C66.9896 13.7656 65.5377 14.1856 64.2939 15.0059L64.29 15.0078C63.038 15.8244 61.9676 16.9172 61.082 18.2998L61.083 18.3008C60.2237 19.659 59.5628 21.2366 59.1104 23.042L59.1113 23.043C58.6845 24.8639 58.4707 26.7132 58.4707 28.5918ZM80.4268 28.5918C80.4268 30.5852 80.1845 32.5492 79.7021 34.4824L79.7031 34.4834C79.2467 36.4308 78.5272 38.1794 77.541 39.7227L77.542 39.7236C77.1161 40.4105 76.6397 41.041 76.1143 41.6152C76.9989 40.9367 77.7827 40.1547 78.4658 39.2666L78.6719 38.9922C79.6851 37.6096 80.4568 36.0523 80.9834 34.3145L80.9863 34.3047L81.1943 33.6045C81.6481 31.9656 81.875 30.2951 81.875 28.5918C81.875 26.6453 81.579 24.7416 80.9863 22.8789L80.9834 22.8691C80.422 21.0165 79.583 19.385 78.4707 17.9668L78.4658 17.9609C77.7885 17.0805 77.0127 16.3097 76.1377 15.6465C76.6504 16.2045 77.1151 16.8194 77.5322 17.4902L77.7158 17.7773C78.6122 19.2243 79.2713 20.8648 79.7002 22.6904L79.8701 23.418C80.2408 25.1194 80.4267 26.8442 80.4268 28.5918ZM83.375 28.5918C83.375 30.6894 83.0549 32.7423 82.418 34.748L82.4189 34.749C81.8456 36.6411 81.0008 38.3534 79.8828 39.8789L79.6553 40.1816C78.4165 41.7919 76.883 43.0917 75.0625 44.0791L75.0537 44.084C73.1985 45.0588 71.0656 45.5342 68.6768 45.5342C66.3152 45.5342 64.1852 45.0575 62.3047 44.0859L62.2979 44.083L62.291 44.0791C60.5841 43.1533 59.1295 41.953 57.9336 40.4795L57.6982 40.1816C56.469 38.5836 55.5355 36.7739 54.8945 34.7598L54.8906 34.749C54.2827 32.7426 53.9785 30.6893 53.9785 28.5918C53.9785 26.4943 54.2826 24.441 54.8906 22.4346L54.8936 22.4248C55.4948 20.5353 56.3542 18.8373 57.4746 17.3379L57.7021 17.041C58.9418 15.4311 60.477 14.1462 62.2998 13.1885C64.1812 12.186 66.3131 11.6943 68.6768 11.6943C71.0693 11.6943 73.2055 12.1852 75.0625 13.1924C76.8817 14.1496 78.4126 15.4336 79.6504 17.041C80.8846 18.6147 81.8071 20.4154 82.4189 22.4346C83.0562 24.4406 83.375 26.4938 83.375 28.5918ZM166.69 21.5938H172.938V23.7539H166.69V44.874H162.639V23.7539H159.163V21.5938H162.639V17.0195C162.639 15.6309 162.839 14.4005 163.266 13.3496L163.428 12.9756C163.821 12.1197 164.321 11.3894 164.939 10.8008C165.658 10.1154 166.481 9.61895 167.404 9.31836C168.305 8.99685 169.226 8.83398 170.165 8.83398C171.381 8.83401 172.564 9.07479 173.709 9.55176L174.136 9.74316C175.109 10.2139 175.933 10.8523 176.597 11.6602L177.073 12.2402L176.492 12.7168L176.008 13.1123L175.421 13.5928L174.947 13.001C174.499 12.4402 173.965 11.9995 173.343 11.6758L173.07 11.5439C172.307 11.2017 171.56 11.0381 170.825 11.0381C170.342 11.0381 169.882 11.1145 169.442 11.2666L169.255 11.3359C168.779 11.5265 168.34 11.8268 167.939 12.252L167.94 12.2529C167.632 12.5815 167.36 13.0183 167.138 13.583L167.046 13.833C166.816 14.4967 166.69 15.3196 166.69 16.3164V21.5938Z" fill="#084A7A"/>
</svg>
