<svg width="61" height="60" viewBox="0 0 61 60" fill="none" xmlns="http://www.w3.org/2000/svg">
<path d="M33.9267 9.56397C31.0271 6.66429 27.1718 5.06738 23.0711 5.06738C18.9704 5.06738 15.1149 6.66429 12.2153 9.56397C9.31566 12.4637 7.71875 16.319 7.71875 20.4196C7.71875 28.7152 15.5624 35.615 19.7764 39.3218C20.3619 39.837 20.8676 40.2818 21.2705 40.6581C21.7753 41.1297 22.4232 41.3655 23.071 41.3655C23.7189 41.3655 24.3667 41.1297 24.8715 40.6581C25.2744 40.2818 25.7801 39.837 26.3657 39.3218C30.5796 35.615 38.4233 28.7152 38.4233 20.4196C38.4232 16.319 36.8264 12.4637 33.9267 9.56397ZM24.9613 37.7254C24.3628 38.2518 23.8461 38.7065 23.42 39.1044C23.2243 39.2871 22.9177 39.2872 22.7219 39.1044C22.2959 38.7063 21.7791 38.2518 21.1806 37.7254C17.219 34.2405 9.84489 27.7537 9.84489 20.4197C9.84489 13.1269 15.778 7.19374 23.0709 7.19374C30.3637 7.19374 36.2969 13.1269 36.2969 20.4197C36.2969 27.7537 28.9229 34.2405 24.9613 37.7254Z" fill="#E5963A"/>
<path d="M23.0336 13.3961C19.4633 13.3961 16.5586 16.3007 16.5586 19.8711C16.5586 23.4414 19.4633 26.3461 23.0336 26.3461C26.604 26.3461 29.5086 23.4414 29.5086 19.8711C29.5086 16.3007 26.604 13.3961 23.0336 13.3961ZM23.0336 24.311C20.5854 24.311 18.5936 22.3192 18.5936 19.871C18.5936 17.4228 20.5854 15.431 23.0336 15.431C25.4819 15.431 27.4736 17.4228 27.4736 19.871C27.4736 22.3192 25.4819 24.311 23.0336 24.311Z" fill="#E5963A"/>
<path fill-rule="evenodd" clip-rule="evenodd" d="M19.2826 46.6357C19.5733 44.4162 18.4412 45.5097 18.0569 43.8239C17.7601 42.7994 18.1605 42.8039 18.3132 42.1107C18.6071 39.8505 19.5594 41.4197 19.7844 41.4139C19.8465 41.4445 19.8578 41.4145 19.9152 41.34C20.0445 41.1496 20.059 41.1053 20.1157 40.9291C20.3059 39.963 21.1844 40.2512 21.8579 40.1226C22.1674 40.0655 22.558 39.8252 22.8819 39.8688C23.4113 39.9668 24.3076 40.4359 24.7032 40.8329C24.8986 41.0729 24.9141 41.4761 25.2594 41.4992C25.4019 41.5129 25.5368 41.458 25.6886 41.3941C26.7024 40.9157 26.4227 41.6272 26.8928 41.6601C27.3792 41.7152 27.8494 41.5062 28.3414 41.6068C28.909 41.7094 29.2489 42.3509 29.6621 42.4083C30.6003 42.0659 31.3411 42.8006 31.8199 42.1621C31.9335 41.9203 31.6662 41.6016 31.5094 41.3045C31.2432 40.879 31.5978 39.9873 31.6929 39.6198C31.7752 39.2985 32.1078 39.0403 32.0684 38.6626C32.0314 38.1255 31.8208 37.6957 32.3839 37.3825C33.0705 37.0126 33.7702 37.7661 34.5118 37.5223C35.1892 37.3133 35.5403 36.7447 36.1633 36.4536C37.4305 36.162 37.5023 36.0201 38.0191 35.8459C38.4549 35.7042 38.9249 35.7388 39.3727 35.8909C40.5004 36.3174 39.726 37.4363 41.1688 37.2972C42.5042 37.1311 42.1248 37.7108 42.8343 38.0216C43.9705 38.341 44.1862 35.8057 45.3287 37.4225C45.4671 37.6268 45.5841 37.8145 45.7823 37.9862C47.3442 39.0598 47.2682 39.3673 48.1457 40.502C48.3316 40.675 48.4007 41.0313 48.7374 40.871C49.5872 40.5961 49.8276 40.9317 50.333 41.0256C50.6379 41.1099 50.9461 41.0104 51.2296 40.9102C52.0014 40.787 52.8237 41.417 53.4493 41.6249C54.5423 42.1168 54.616 41.7602 55.312 41.9151C55.9401 42.1166 55.6992 43.0653 55.3486 43.3486C53.8871 44.5978 56.0124 45.7681 53.638 46.0765C53.4594 46.1064 53.294 46.1476 53.145 46.2374C52.3269 46.8045 52.6921 48.567 51.9626 48.791C51.4652 49.0403 50.8182 48.9321 50.3457 49.2249C50.2462 49.2945 50.0301 49.4262 50.1301 49.5276C50.4287 49.7799 50.6477 49.9936 50.8561 50.2728C51.0097 50.4907 51.0787 50.7607 51.0981 51.0176C51.0779 52.2929 51.2265 52.4644 51.191 52.7123C51.1572 53.5648 50.3989 53.4947 49.9273 53.1832C49.7453 53.0873 49.5895 53.0115 49.3662 53.0145C47.9077 53.3209 48.0807 53.2366 47.2096 53.1831C45.264 53.342 46.2887 53.6952 44.7073 52.8958C43.9825 52.7707 43.9365 53.9577 43.2367 53.9569C42.8741 54.0027 42.5408 53.8685 42.1679 53.8584C41.2961 53.8339 41.0533 54.5365 40.702 54.8248C40.4374 55.0412 40.0951 55.1917 39.8045 55.3801C39.3607 55.6542 39.1015 56.1762 38.5939 56.3394C38.2246 56.4582 37.8798 56.304 37.5204 56.2515C37.2171 56.2084 36.8604 56.2732 36.5678 56.1764C35.9802 56.0062 36.0266 54.1653 35.8787 53.956C35.5919 53.3401 35.0535 52.7006 34.3787 52.7063C33.7344 52.6793 33.0137 52.9722 32.4022 52.7482C30.7132 51.9564 30.9124 50.4699 28.8721 49.8316C28.1123 49.5493 27.5323 49.6436 26.9363 49.8427C25.6476 50.0298 25.33 50.3445 25.228 51.6403C25.2143 52.7635 25.3099 53.6525 25.2023 54.7439C25.1779 55.8695 23.4994 52.9451 22.7525 53.3429C22.3239 53.4186 21.8144 54.0574 21.8238 53.8309C22.1557 52.3089 19.9947 52.2971 20.3181 50.6551C19.9752 49.3437 19.9943 50.0314 20.8105 49.288C21.0081 49.0847 21.1978 48.8881 21.47 48.8877C23.4571 49.0762 21.8983 50.4103 23.7459 50.1766C24.057 50.0888 24.1024 49.8451 23.9891 49.5604C23.0962 47.9119 23.6009 48.5907 23.5116 47.4188C23.3197 46.8258 22.7411 46.3891 22.1215 46.1955C21.2272 45.8848 20.1562 46.4676 19.2826 46.6357Z" stroke="#E5963A" stroke-width="1.5"/>
</svg>
