<svg width="60" height="60" viewBox="0 0 60 60" fill="none" xmlns="http://www.w3.org/2000/svg">
<path d="M46.3819 27.3125L40.9464 32.7461L38.5891 30.3731C38.4062 30.1905 38.1582 30.088 37.8997 30.0882C37.6412 30.0883 37.3934 30.1912 37.2108 30.3741C37.0281 30.557 36.9256 30.805 36.9258 31.0635C36.926 31.322 37.0288 31.5698 37.2117 31.7525L40.2724 34.8131C40.455 34.9957 40.7028 35.0983 40.9611 35.0983C41.2194 35.0983 41.4671 34.9957 41.6497 34.8131L47.7749 28.6899C47.8679 28.6 47.9421 28.4926 47.9932 28.3737C48.0442 28.2549 48.0711 28.127 48.0722 27.9977C48.0734 27.8684 48.0487 27.7401 47.9997 27.6204C47.9508 27.5007 47.8784 27.3919 47.787 27.3004C47.6955 27.209 47.5867 27.1367 47.467 27.0877C47.3473 27.0387 47.2191 27.014 47.0897 27.0152C46.9604 27.0163 46.8325 27.0432 46.7137 27.0942C46.5949 27.1453 46.4874 27.2195 46.3975 27.3125H46.3819Z" fill="#E5963A"/>
<path d="M54.1748 31.0628C54.1697 28.3031 53.1893 25.634 51.4068 23.5271C49.6243 21.4203 47.1545 20.0112 44.4338 19.549V14.5031C44.434 14.3751 44.409 14.2483 44.3602 14.13C44.3114 14.0116 44.2397 13.9041 44.1493 13.8135L36.3565 6.02065C36.2659 5.93025 36.1584 5.85859 36.04 5.80979C35.9217 5.76098 35.7949 5.73598 35.6669 5.73621H12.2884C12.0301 5.73621 11.7823 5.83884 11.5996 6.02152C11.417 6.20419 11.3143 6.45196 11.3143 6.71031V11.5808H6.44383C6.18548 11.5808 5.93771 11.6834 5.75503 11.8661C5.57235 12.0488 5.46973 12.2966 5.46973 12.5549V53.4672C5.46973 53.7255 5.57235 53.9733 5.75503 54.156C5.93771 54.3387 6.18548 54.4413 6.44383 54.4413H39.5633C39.8216 54.4413 40.0694 54.3387 40.2521 54.156C40.4348 53.9733 40.5374 53.7255 40.5374 53.4672V48.5967H43.4597C43.718 48.5967 43.9658 48.494 44.1485 48.3114C44.3312 48.1287 44.4338 47.8809 44.4338 47.6226V42.5767C47.1545 42.1145 49.6243 40.7054 51.4068 38.5986C53.1893 36.4917 54.1697 33.8226 54.1748 31.0628ZM36.641 9.06179L41.1082 13.529H36.641V9.06179ZM38.5892 52.4931H7.41793V13.529H11.3143V47.6226C11.3143 47.8809 11.417 48.1287 11.5996 48.3114C11.7823 48.494 12.0301 48.5967 12.2884 48.5967H38.5892V52.4931ZM42.4856 46.6485H13.2625V7.68441H34.6928V14.5031C34.6928 14.7615 34.7954 15.0092 34.9781 15.1919C35.1608 15.3746 35.4085 15.4772 35.6669 15.4772H42.4856V19.3736C39.3854 19.3736 36.4122 20.6052 34.2201 22.7973C32.0279 24.9895 30.7964 27.9627 30.7964 31.0628C30.7964 34.163 32.0279 37.1362 34.2201 39.3284C36.4122 41.5205 39.3854 42.7521 42.4856 42.7521V46.6485ZM42.4856 40.8039C40.559 40.8039 38.6757 40.2326 37.0738 39.1622C35.4719 38.0919 34.2233 36.5705 33.4861 34.7906C32.7488 33.0106 32.5559 31.052 32.9317 29.1625C33.3076 27.2729 34.2353 25.5372 35.5976 24.1749C36.96 22.8126 38.6956 21.8849 40.5852 21.509C42.4748 21.1331 44.4334 21.326 46.2133 22.0633C47.9932 22.8006 49.5146 24.0491 50.5849 25.651C51.6553 27.2529 52.2266 29.1363 52.2266 31.0628C52.2235 33.6454 51.1962 36.1212 49.3701 37.9474C47.544 39.7735 45.0681 40.8008 42.4856 40.8039Z" fill="#E5963A"/>
<path d="M23.0033 29.3991L19.9875 32.4266L18.8186 31.2577C18.636 31.0748 18.3881 30.972 18.1296 30.9718C17.8711 30.9716 17.6232 31.0741 17.4402 31.2568C17.2573 31.4394 17.1545 31.6872 17.1543 31.9457C17.1541 32.2042 17.2566 32.4522 17.4393 32.6351L19.2959 34.4898C19.4786 34.6724 19.7263 34.775 19.9846 34.775C20.2429 34.775 20.4906 34.6724 20.6733 34.4898L24.3846 30.7882C24.5675 30.6056 24.6704 30.3577 24.6706 30.0992C24.6708 29.8407 24.5682 29.5928 24.3856 29.4099C24.2029 29.2269 23.9551 29.1241 23.6966 29.1239C23.4381 29.1237 23.1902 29.2262 23.0072 29.4089L23.0033 29.3991Z" fill="#E5963A"/>
<path d="M23.0033 37.1919L19.9875 40.2194L18.8186 39.0504C18.7282 38.9599 18.6208 38.888 18.5026 38.8389C18.3843 38.7899 18.2576 38.7646 18.1296 38.7645C18.0016 38.7644 17.8749 38.7895 17.7566 38.8384C17.6383 38.8873 17.5308 38.959 17.4402 39.0495C17.3497 39.1399 17.2778 39.2473 17.2288 39.3655C17.1797 39.4837 17.1544 39.6105 17.1543 39.7384C17.1542 39.8664 17.1793 39.9932 17.2282 40.1115C17.2771 40.2298 17.3488 40.3373 17.4393 40.4278L19.2959 42.2825C19.4786 42.4651 19.7263 42.5677 19.9846 42.5677C20.2429 42.5677 20.4906 42.4651 20.6733 42.2825L24.3846 38.5809C24.5675 38.3983 24.6704 38.1504 24.6706 37.892C24.6708 37.6335 24.5682 37.3855 24.3856 37.2026C24.2029 37.0197 23.9551 36.9168 23.6966 36.9166C23.4381 36.9164 23.1902 37.019 23.0072 37.2016L23.0033 37.1919Z" fill="#E5963A"/>
<path d="M18.1323 13.529H29.8215C30.0799 13.529 30.3276 13.4264 30.5103 13.2437C30.693 13.061 30.7956 12.8133 30.7956 12.5549C30.7956 12.2966 30.693 12.0488 30.5103 11.8661C30.3276 11.6834 30.0799 11.5808 29.8215 11.5808H18.1323C17.874 11.5808 17.6262 11.6834 17.4435 11.8661C17.2608 12.0488 17.1582 12.2966 17.1582 12.5549C17.1582 12.8133 17.2608 13.061 17.4435 13.2437C17.6262 13.4264 17.874 13.529 18.1323 13.529Z" fill="#E5963A"/>
<path d="M29.8215 17.4254H18.1323C17.874 17.4254 17.6262 17.528 17.4435 17.7107C17.2608 17.8934 17.1582 18.1412 17.1582 18.3995C17.1582 18.6579 17.2608 18.9056 17.4435 19.0883C17.6262 19.271 17.874 19.3736 18.1323 19.3736H29.8215C30.0799 19.3736 30.3276 19.271 30.5103 19.0883C30.693 18.9056 30.7956 18.6579 30.7956 18.3995C30.7956 18.1412 30.693 17.8934 30.5103 17.7107C30.3276 17.528 30.0799 17.4254 29.8215 17.4254Z" fill="#E5963A"/>
<path d="M23.9769 23.2701H18.1323C17.874 23.2701 17.6262 23.3728 17.4435 23.5554C17.2608 23.7381 17.1582 23.9859 17.1582 24.2442C17.1582 24.5026 17.2608 24.7504 17.4435 24.933C17.6262 25.1157 17.874 25.2183 18.1323 25.2183H23.9769C24.2353 25.2183 24.483 25.1157 24.6657 24.933C24.8484 24.7504 24.951 24.5026 24.951 24.2442C24.951 23.9859 24.8484 23.7381 24.6657 23.5554C24.483 23.3728 24.2353 23.2701 23.9769 23.2701Z" fill="#E5963A"/>
</svg>
