<svg width="24" height="23" viewBox="0 0 24 23" fill="none" xmlns="http://www.w3.org/2000/svg">
<path d="M18.9677 14.2477C18.4763 13.7574 17.8837 13.4953 17.2556 13.4953C16.6326 13.4953 16.0348 13.7526 15.5232 14.2428L13.9226 15.7719C13.7909 15.704 13.6592 15.6409 13.5326 15.5778C13.3502 15.4904 13.178 15.4079 13.0311 15.3205C11.5317 14.4079 10.1691 13.2186 8.86229 11.6798C8.22912 10.9128 7.80362 10.2672 7.49464 9.61183C7.91 9.24776 8.29497 8.86912 8.6698 8.50505C8.81163 8.36913 8.95346 8.22835 9.09529 8.09243C10.159 7.07303 10.159 5.75266 9.09529 4.73325L7.71245 3.40803C7.55542 3.25754 7.39333 3.10221 7.24137 2.94687C6.93745 2.6459 6.61833 2.33522 6.28908 2.04397C5.79774 1.57795 5.21016 1.33038 4.59218 1.33038C3.97421 1.33038 3.3765 1.57795 2.86996 2.04397C2.86489 2.04882 2.86489 2.04882 2.85983 2.05368L1.13761 3.7187C0.489239 4.34005 0.119467 5.09733 0.0384214 5.97596C-0.0831474 7.39341 0.352474 8.71378 0.686788 9.57785C1.50738 11.6992 2.7332 13.6652 4.56179 15.7719C6.78042 18.3108 9.44987 20.3156 12.4992 21.7282C13.6643 22.2573 15.2193 22.8835 16.9567 22.9903C17.0631 22.9952 17.1745 23 17.2759 23C18.446 23 19.4286 22.5971 20.1986 21.7961C20.2036 21.7864 20.2138 21.7816 20.2188 21.7719C20.4822 21.4661 20.7862 21.1894 21.1053 20.8932C21.3231 20.6942 21.546 20.4855 21.7638 20.267C22.2652 19.767 22.5286 19.1845 22.5286 18.5874C22.5286 17.9855 22.2602 17.4078 21.7486 16.9224L18.9677 14.2477ZM20.7811 19.3593C20.776 19.3593 20.776 19.3641 20.7811 19.3593C20.5835 19.5632 20.3809 19.7476 20.1631 19.9515C19.8339 20.2525 19.4996 20.568 19.1855 20.9224C18.6739 21.4466 18.0711 21.6942 17.2809 21.6942C17.2049 21.6942 17.1239 21.6942 17.0479 21.6893C15.5435 21.5971 14.1455 21.034 13.0969 20.5534C10.2299 19.2234 7.71245 17.335 5.62045 14.9419C3.89316 12.9467 2.73826 11.1021 1.97339 9.12155C1.50231 7.91282 1.33009 6.97109 1.40607 6.08275C1.45672 5.5148 1.68466 5.04393 2.10509 4.64102L3.83238 2.9857C4.08058 2.7624 4.34398 2.64105 4.60231 2.64105C4.92143 2.64105 5.17977 2.82551 5.34186 2.98085C5.34692 2.9857 5.35199 2.99056 5.35705 2.99541C5.66604 3.27211 5.95983 3.55851 6.26882 3.86433C6.42585 4.01967 6.58794 4.17501 6.75003 4.3352L8.13287 5.66043C8.6698 6.17498 8.6698 6.6507 8.13287 7.16526C7.98598 7.30604 7.84415 7.44681 7.69725 7.58273C7.27176 8.0002 6.86653 8.38855 6.42585 8.76718C6.41572 8.77689 6.40558 8.78174 6.40052 8.79145C5.9649 9.20892 6.04594 9.61669 6.13712 9.89338C6.14219 9.90794 6.14725 9.92251 6.15232 9.93707C6.51196 10.772 7.01849 11.5584 7.78843 12.4953L7.79349 12.5001C9.19153 14.1506 10.6656 15.437 12.2915 16.4224C12.4992 16.5486 12.712 16.6506 12.9146 16.7477C13.0969 16.835 13.2692 16.9176 13.416 17.0049C13.4363 17.0147 13.4566 17.0292 13.4768 17.0389C13.6491 17.1214 13.8111 17.1603 13.9783 17.1603C14.3987 17.1603 14.6621 16.9079 14.7482 16.8253L16.4806 15.1652C16.6528 15.0001 16.9263 14.8011 17.2455 14.8011C17.5595 14.8011 17.8179 14.9904 17.9749 15.1554C17.9799 15.1603 17.9799 15.1603 17.985 15.1652L20.776 17.8399C21.2978 18.335 21.2978 18.8447 20.7811 19.3593Z" fill="#E5963A"/>
<path d="M12.9701 5.4711C14.2972 5.68469 15.5028 6.28662 16.4652 7.20894C17.4276 8.13126 18.0507 9.28659 18.2786 10.5584C18.3343 10.8788 18.623 11.1021 18.9523 11.1021C18.9928 11.1021 19.0283 11.0972 19.0688 11.0924C19.4436 11.0341 19.6918 10.6943 19.6311 10.3351C19.3575 8.7963 18.5977 7.39341 17.4378 6.28177C16.2778 5.17013 14.8139 4.44199 13.2082 4.17986C12.8333 4.1216 12.4838 4.35946 12.418 4.71383C12.3521 5.06819 12.5953 5.41285 12.9701 5.4711Z" fill="#E5963A"/>
<path d="M23.9723 10.1458C23.5215 7.61185 22.2754 5.30606 20.3607 3.47113C18.446 1.6362 16.04 0.442039 13.3958 0.0100061C13.0261 -0.0530999 12.6766 0.189616 12.6107 0.54398C12.5499 0.903199 12.7981 1.23815 13.173 1.30125C15.5334 1.68474 17.6862 2.75754 19.3983 4.39345C21.1104 6.0342 22.2248 8.09728 22.6249 10.3594C22.6807 10.6798 22.9694 10.9031 23.2986 10.9031C23.3392 10.9031 23.3746 10.8982 23.4151 10.8934C23.7849 10.84 24.0382 10.5002 23.9723 10.1458Z" fill="#E5963A"/>
</svg>
