<svg width="40" height="41" viewBox="0 0 40 41" fill="none" xmlns="http://www.w3.org/2000/svg">
<path d="M38.8613 36.7748H38.5134V20.1347C38.5134 19.5672 37.985 19.1859 37.4916 19.1859H36.915V1.67921C36.915 1.1504 36.5255 0.720215 36.0468 0.720215H33.0615C32.5828 0.720215 32.1933 1.1504 32.1933 1.67921V19.1859H30.1063V4.87585C30.1063 4.34712 29.7168 3.91686 29.238 3.91686H26.2527C25.774 3.91686 25.3844 4.34704 25.3844 4.87585V19.1859H22.1191V12.2231L23.6682 11.9511C24.1278 11.8704 24.4613 11.4732 24.4613 11.0065V9.54766C24.4613 9.263 24.3367 8.99504 24.1196 8.81267C23.9023 8.63022 23.6167 8.5539 23.3365 8.60313L2.91429 12.1897C2.45478 12.2704 2.12121 12.6676 2.12121 13.1341V14.593C2.12121 14.8777 2.2458 15.1457 2.46293 15.328C2.63691 15.4741 2.85452 15.5521 3.07844 15.5521C3.13406 15.5521 3.19008 15.5473 3.24603 15.5375L4.46339 15.3237V26.8398H2.31149C2.00253 26.8398 1.75207 27.0903 1.75207 27.3992V36.7748H1.30079C0.771985 36.7748 0.341797 37.205 0.341797 37.7338V39.2397C0.341797 39.7685 0.771985 40.1987 1.30079 40.1987H38.8613C39.3901 40.1987 39.8203 39.7685 39.8203 39.2397V37.7338C39.8203 37.2051 39.3901 36.7748 38.8613 36.7748ZM37.3945 36.7748H16.4802L16.4803 20.3048H37.3945V36.7748H37.3945ZM35.7962 1.83904V2.88674H33.312V1.83904H35.7962ZM33.312 4.00556H35.7962V19.1859H33.312V4.00556ZM28.9873 5.03568V6.08338H26.503V5.03568H28.9873ZM26.503 7.20228H28.9873V19.1859H26.503V7.20228ZM3.24011 14.4026V13.2684L23.3423 9.73802V10.8723L3.24011 14.4026ZM5.58229 15.1273L21 12.4197V19.186H16.2576C15.7383 19.186 15.3614 19.585 15.3614 20.1348V26.8399H5.58229V15.1273ZM2.87098 27.9586H15.3614V36.7749H13.769V30.7361C13.769 30.2073 13.3388 29.7771 12.81 29.7771H5.42238C4.89365 29.7771 4.46347 30.2073 4.46347 30.7361V36.7749H2.87098V27.9586ZM5.58229 36.7748V30.8959H8.55684V36.7748H5.58229ZM9.67567 30.8959H12.6502V36.7748H9.67567V30.8959ZM38.7015 39.0799H1.46062V37.8936H38.7015V39.0799ZM32.1871 34.1384H34.6303C35.1591 34.1384 35.5893 33.7082 35.5893 33.1794V30.7361C35.5893 30.2074 35.1591 29.7771 34.6303 29.7771H32.1871C31.6583 29.7771 31.2281 30.2073 31.2281 30.7361V33.1794C31.2281 33.7081 31.6583 34.1384 32.1871 34.1384ZM32.347 30.8959H34.4705V33.0196H32.347V30.8959ZM19.2444 34.1384H21.6877C22.2164 34.1384 22.6466 33.7082 22.6466 33.1794V30.7361C22.6466 30.2074 22.2164 29.7771 21.6877 29.7771H19.2444C18.7156 29.7771 18.2854 30.2073 18.2854 30.7361V33.1794C18.2854 33.7081 18.7156 34.1384 19.2444 34.1384ZM19.4042 30.8959H21.5278V33.0196H19.4042V30.8959ZM25.7158 34.1384H28.159C28.6878 34.1384 29.118 33.7082 29.118 33.1794V30.7361C29.118 30.2074 28.6878 29.7771 28.159 29.7771H25.7158C25.187 29.7771 24.7568 30.2073 24.7568 30.7361V33.1794C24.7568 33.7081 25.187 34.1384 25.7158 34.1384ZM25.8756 30.8959H27.9992V33.0196H25.8756V30.8959ZM19.2444 27.1406H21.6877C22.2164 27.1406 22.6466 26.7104 22.6466 26.1816V23.7383C22.6466 23.2095 22.2164 22.7794 21.6877 22.7794H19.2444C18.7156 22.7794 18.2854 23.2095 18.2854 23.7383V26.1816C18.2854 26.7103 18.7156 27.1406 19.2444 27.1406ZM19.4042 23.8982H21.5278V26.0218H19.4042V23.8982ZM32.1871 27.1406H34.6303C35.1591 27.1406 35.5893 26.7104 35.5893 26.1816V23.7383C35.5893 23.2096 35.1591 22.7794 34.6303 22.7794H32.1871C31.6583 22.7794 31.2281 23.2095 31.2281 23.7383V26.1816C31.2281 26.7103 31.6583 27.1406 32.1871 27.1406ZM32.347 23.8982H34.4705V26.0218H32.347V23.8982ZM25.7158 27.1406H28.159C28.6878 27.1406 29.118 26.7104 29.118 26.1816V23.7383C29.118 23.2096 28.6878 22.7794 28.159 22.7794H25.7158C25.187 22.7794 24.7568 23.2095 24.7568 23.7383V26.1816C24.7568 26.7103 25.187 27.1406 25.7158 27.1406ZM25.8756 23.8982H27.9992V26.0218H25.8756V23.8982ZM10.3379 15.6552H7.89458C7.36586 15.6552 6.93567 16.0854 6.93567 16.6142V19.0575C6.93567 19.5863 7.36586 20.0165 7.89458 20.0165H10.3379C10.8667 20.0165 11.2968 19.5863 11.2968 19.0575V16.6142C11.2968 16.0855 10.8667 15.6552 10.3379 15.6552ZM10.178 18.8978H8.05449V16.7741H10.178V18.8978ZM10.3379 21.2056H7.89458C7.36586 21.2056 6.93567 21.6358 6.93567 22.1646V24.6079C6.93567 25.1367 7.36586 25.5669 7.89458 25.5669H10.3379C10.8667 25.5669 11.2968 25.1367 11.2968 24.6079V22.1646C11.2968 21.6358 10.8667 21.2056 10.3379 21.2056ZM10.178 24.448H8.05449V22.3244H10.178V24.448Z" fill="#E5963A"/>
</svg>
