<svg width="52" height="50" viewBox="0 0 52 50" fill="none" xmlns="http://www.w3.org/2000/svg">
<path d="M49.0312 40.3127V29.9074C49.0312 29.7878 49.0077 29.6693 48.962 29.5588C48.9162 29.4482 48.8491 29.3478 48.7645 29.2632C48.6799 29.1786 48.5795 29.1115 48.469 29.0658C48.3584 29.02 48.2399 28.9965 48.1203 28.9966H37.1903C37.0706 28.9965 36.9522 29.02 36.8416 29.0658C36.7311 29.1115 36.6306 29.1786 36.5461 29.2632C36.4615 29.3478 36.3944 29.4482 36.3486 29.5588C36.3029 29.6693 36.2794 29.7878 36.2794 29.9074V39.9266H32.6361V29.9074C32.6361 29.7878 32.6126 29.6693 32.5669 29.5588C32.5211 29.4482 32.454 29.3478 32.3694 29.2632C32.2849 29.1786 32.1844 29.1115 32.0739 29.0658C31.9633 29.02 31.8449 28.9965 31.7252 28.9966H20.7952C20.6755 28.9965 20.5571 29.02 20.4465 29.0658C20.336 29.1115 20.2356 29.1786 20.151 29.2632C20.0664 29.3478 19.9993 29.4482 19.9535 29.5588C19.9078 29.6693 19.8843 29.7878 19.8843 29.9074V39.9266H16.241V29.9074C16.2411 29.7878 16.2175 29.6693 16.1718 29.5588C16.126 29.4482 16.059 29.3478 15.9744 29.2632C15.8898 29.1786 15.7893 29.1115 15.6788 29.0658C15.5683 29.02 15.4498 28.9965 15.3302 28.9966H4.40009C4.28046 28.9965 4.16199 29.02 4.05146 29.0658C3.94092 29.1115 3.84048 29.1786 3.75589 29.2632C3.6713 29.3478 3.60421 29.4482 3.55846 29.5588C3.51271 29.6693 3.4892 29.7878 3.48926 29.9074V40.3127C2.53043 40.7306 1.74483 41.466 1.26467 42.3953C0.784516 43.3245 0.639122 44.3908 0.852957 45.4147C1.06679 46.4385 1.6268 47.3575 2.43874 48.0168C3.25068 48.6762 4.26498 49.0358 5.31093 49.035H47.2095C48.2499 49.0255 49.2557 48.6605 50.0601 48.0007C50.8645 47.3408 51.4191 46.4257 51.6318 45.4072C51.8445 44.3888 51.7026 43.3282 51.2295 42.4015C50.7565 41.4748 49.9808 40.7378 49.0312 40.3127ZM38.1011 30.8182H47.2095V39.9266H38.1011V30.8182ZM21.706 30.8182H30.8144V39.9266H21.706V30.8182ZM5.31093 30.8182H14.4193V39.9266H5.31093V30.8182ZM47.2095 47.2133H5.31093C4.59196 47.2046 3.9054 46.9129 3.40007 46.4014C2.89475 45.8898 2.61138 45.1998 2.6114 44.4808C2.61142 43.7617 2.89482 43.0717 3.40018 42.5602C3.90553 42.0487 4.59211 41.757 5.31108 41.7483H47.2095C47.9284 41.7571 48.615 42.0488 49.1204 42.5603C49.6257 43.0718 49.9091 43.7618 49.9091 44.4808C49.9091 45.1999 49.6257 45.8899 49.1204 46.4014C48.615 46.9129 47.9284 47.2046 47.2095 47.2133Z" fill="#E5963A"/>
<path d="M8.71186 43.5699C8.47263 43.5735 8.2444 43.671 8.07648 43.8415C7.90857 44.0119 7.81445 44.2416 7.81445 44.4808C7.81446 44.7201 7.9086 44.9497 8.07652 45.1201C8.24445 45.2906 8.47268 45.3881 8.71191 45.3916C8.95114 45.3881 9.17937 45.2905 9.34729 45.1201C9.5152 44.9497 9.60933 44.72 9.60932 44.4808C9.60931 44.2415 9.51518 44.0119 9.34725 43.8414C9.17932 43.671 8.95109 43.5735 8.71186 43.5699Z" fill="#E5963A"/>
<path d="M15.7382 43.5699C15.499 43.5735 15.2708 43.671 15.1029 43.8415C14.9349 44.0119 14.8408 44.2416 14.8408 44.4808C14.8408 44.7201 14.935 44.9497 15.1029 45.1201C15.2708 45.2906 15.4991 45.3881 15.7383 45.3916C15.9775 45.3881 16.2057 45.2905 16.3737 45.1201C16.5416 44.9497 16.6357 44.72 16.6357 44.4808C16.6357 44.2415 16.5415 44.0119 16.3736 43.8414C16.2057 43.671 15.9775 43.5735 15.7382 43.5699Z" fill="#E5963A"/>
<path d="M22.7646 43.5699C22.5254 43.5735 22.2971 43.671 22.1292 43.8415C21.9613 44.0119 21.8672 44.2416 21.8672 44.4808C21.8672 44.7201 21.9613 44.9497 22.1293 45.1201C22.2972 45.2906 22.5254 45.3881 22.7646 45.3916C23.0039 45.3881 23.2321 45.2905 23.4 45.1201C23.5679 44.9497 23.6621 44.72 23.6621 44.4808C23.662 44.2415 23.5679 44.0119 23.4 43.8414C23.2321 43.671 23.0038 43.5735 22.7646 43.5699Z" fill="#E5963A"/>
<path d="M29.791 43.5699C29.5517 43.5735 29.3235 43.671 29.1556 43.8415C28.9877 44.0119 28.8935 44.2416 28.8936 44.4808C28.8936 44.7201 28.9877 44.9497 29.1556 45.1201C29.3236 45.2906 29.5518 45.3881 29.791 45.3916C30.0302 45.3881 30.2585 45.2905 30.4264 45.1201C30.5943 44.9497 30.6884 44.72 30.6884 44.4808C30.6884 44.2415 30.5943 44.0119 30.4264 43.8414C30.2584 43.671 30.0302 43.5735 29.791 43.5699Z" fill="#E5963A"/>
<path d="M36.8173 43.5699C36.5781 43.5735 36.3499 43.671 36.182 43.8415C36.014 44.0119 35.9199 44.2416 35.9199 44.4808C35.9199 44.7201 36.0141 44.9497 36.182 45.1201C36.3499 45.2906 36.5782 45.3881 36.8174 45.3916C37.0566 45.3881 37.2848 45.2905 37.4528 45.1201C37.6207 44.9497 37.7148 44.72 37.7148 44.4808C37.7148 44.2415 37.6206 44.0119 37.4527 43.8414C37.2848 43.671 37.0566 43.5735 36.8173 43.5699Z" fill="#E5963A"/>
<path d="M43.8447 43.5699C43.6054 43.5735 43.3772 43.671 43.2093 43.8415C43.0414 44.0119 42.9473 44.2416 42.9473 44.4808C42.9473 44.7201 43.0414 44.9497 43.2093 45.1201C43.3773 45.2906 43.6055 45.3881 43.8447 45.3916C44.084 45.3881 44.3122 45.2905 44.4801 45.1201C44.648 44.9497 44.7421 44.72 44.7421 44.4808C44.7421 44.2415 44.648 44.0119 44.4801 43.8414C44.3121 43.671 44.0839 43.5735 43.8447 43.5699Z" fill="#E5963A"/>
<path d="M13.9636 16.2133C15.0168 16.1328 16.0935 16.3192 16.5307 17.407C16.9976 18.4795 16.3553 19.3882 15.5602 20.0683C15.4756 20.1528 15.4085 20.2532 15.3628 20.3637C15.317 20.4742 15.2934 20.5927 15.2934 20.7123C15.2934 20.8319 15.317 20.9503 15.3628 21.0608C15.4086 21.1713 15.4757 21.2717 15.5603 21.3563L18.2821 24.0782C18.3667 24.1628 18.4671 24.2299 18.5776 24.2757C18.6881 24.3214 18.8065 24.345 18.9261 24.345C19.0457 24.345 19.1642 24.3214 19.2747 24.2757C19.3852 24.2299 19.4856 24.1628 19.5701 24.0782C20.2601 23.2752 21.1507 22.6471 22.2324 23.1082C23.3183 23.5362 23.5062 24.6336 23.4251 25.6752C23.4251 25.7949 23.4486 25.9133 23.4944 26.0238C23.5402 26.1343 23.6073 26.2348 23.6919 26.3193C23.7764 26.4039 23.8769 26.471 23.9874 26.5168C24.0979 26.5625 24.2163 26.5861 24.336 26.5861H28.1839C28.3035 26.5861 28.422 26.5626 28.5325 26.5168C28.643 26.471 28.7434 26.4039 28.828 26.3194C28.9126 26.2348 28.9797 26.1343 29.0255 26.0238C29.0712 25.9133 29.0948 25.7948 29.0947 25.6752C29.0145 24.6217 29.2001 23.5445 30.2885 23.1077C31.3599 22.6409 32.2702 23.2834 32.9497 24.0782C33.0343 24.1628 33.1347 24.2299 33.2452 24.2757C33.3557 24.3214 33.4741 24.345 33.5937 24.345C33.7134 24.345 33.8318 24.3214 33.9423 24.2756C34.0528 24.2298 34.1532 24.1627 34.2377 24.0781L36.9596 21.3563C37.0442 21.2717 37.1113 21.1713 37.1571 21.0608C37.2029 20.9503 37.2265 20.8319 37.2265 20.7123C37.2265 20.5927 37.2029 20.4742 37.1571 20.3637C37.1113 20.2532 37.0442 20.1528 36.9596 20.0683C36.1577 19.3791 35.5268 18.4869 35.9892 17.4069C36.4184 16.3204 37.5142 16.1321 38.5562 16.2133C38.6758 16.2133 38.7943 16.1898 38.9048 16.144C39.0153 16.0982 39.1158 16.0311 39.2003 15.9466C39.2849 15.862 39.352 15.7615 39.3978 15.651C39.4435 15.5405 39.4671 15.422 39.4671 15.3024V11.4554C39.4671 11.3358 39.4435 11.2173 39.3978 11.1068C39.352 10.9963 39.2849 10.8959 39.2003 10.8113C39.1158 10.7267 39.0153 10.6596 38.9048 10.6138C38.7943 10.5681 38.6758 10.5445 38.5562 10.5446H37.7761C37.3959 10.5389 37.0257 10.4221 36.7111 10.2085C36.3965 9.99491 36.1514 9.69387 36.0059 9.34256C35.8604 8.99124 35.821 8.60501 35.8925 8.23154C35.964 7.85807 36.1432 7.51371 36.4082 7.24094L36.9596 6.68996C37.1291 6.51839 37.2241 6.28692 37.2241 6.04574C37.2241 5.80456 37.1291 5.5731 36.9596 5.40153L34.2377 2.67968C34.0669 2.50897 33.8353 2.41304 33.5938 2.41295C33.3524 2.41287 33.1207 2.50864 32.9498 2.67923L32.3983 3.23071C32.1255 3.49581 31.7811 3.67521 31.4076 3.74675C31.034 3.8183 30.6477 3.77885 30.2963 3.63328C29.9449 3.48771 29.6438 3.2424 29.4303 2.92765C29.2168 2.6129 29.1001 2.24249 29.0947 1.86218L29.0947 1.08259C29.0948 0.96297 29.0712 0.844514 29.0255 0.733992C28.9797 0.62347 28.9126 0.523048 28.828 0.438462C28.7434 0.353877 28.643 0.286786 28.5325 0.241023C28.422 0.19526 28.3035 0.171722 28.1839 0.171753H24.336C24.2163 0.171722 24.0979 0.19526 23.9874 0.241023C23.8768 0.286786 23.7764 0.353877 23.6918 0.438462C23.6072 0.523048 23.5402 0.62347 23.4944 0.733992C23.4486 0.844514 23.4251 0.96297 23.4251 1.08259V1.86224C23.4198 2.24258 23.3032 2.61304 23.0896 2.92782C22.8761 3.2426 22.575 3.48792 22.2235 3.63344C21.8721 3.77897 21.4857 3.81832 21.1122 3.74665C20.7386 3.67498 20.3942 3.49542 20.1216 3.23016L19.57 2.67923C19.3991 2.50863 19.1675 2.41285 18.926 2.41294C18.6845 2.41302 18.4529 2.50896 18.2821 2.67968L15.5602 5.40153C15.3907 5.5731 15.2956 5.80456 15.2956 6.04574C15.2956 6.28693 15.3907 6.51839 15.5602 6.68996L16.1117 7.24055C16.3766 7.51335 16.5559 7.85774 16.6274 8.23124C16.6989 8.60474 16.6595 8.991 16.514 9.34235C16.3685 9.6937 16.1233 9.99477 15.8087 10.2084C15.4941 10.422 15.1238 10.5389 14.7436 10.5445L13.9636 10.5446C13.844 10.5445 13.7255 10.5681 13.615 10.6138C13.5045 10.6596 13.404 10.7267 13.3194 10.8113C13.2349 10.8959 13.1678 10.9963 13.122 11.1068C13.0762 11.2173 13.0527 11.3358 13.0527 11.4554V15.3024C13.0527 15.422 13.0762 15.5405 13.122 15.651C13.1678 15.7616 13.2349 15.862 13.3194 15.9466C13.404 16.0312 13.5045 16.0982 13.615 16.144C13.7255 16.1898 13.844 16.2133 13.9636 16.2133ZM14.8744 12.364C15.591 12.331 16.2834 12.0946 16.8705 11.6825C17.4577 11.2703 17.9153 10.6995 18.1898 10.0367C18.4643 9.374 18.5444 8.64678 18.4207 7.94018C18.297 7.23358 17.9746 6.57683 17.4912 6.04679L18.9278 4.60986C19.4585 5.09113 20.115 5.41171 20.8209 5.53428C21.5267 5.65684 22.2529 5.57634 22.9147 5.30215C23.5766 5.02796 24.1469 4.57137 24.5593 3.98556C24.9717 3.39975 25.2092 2.70883 25.2441 1.99327L27.2757 1.99343C27.3008 2.71371 27.5325 3.41158 27.9432 4.00378C28.354 4.59599 28.9264 5.05754 29.5922 5.33335C30.2581 5.60917 30.9892 5.68762 31.6984 5.55933C32.4076 5.43105 33.065 5.10145 33.592 4.60986L35.0285 6.04684C34.537 6.574 34.2074 7.23142 34.0792 7.94068C33.951 8.64994 34.0295 9.38112 34.3053 10.047C34.5812 10.7129 35.0427 11.2854 35.6349 11.6962C36.2272 12.107 36.925 12.3388 37.6454 12.364V14.3938C36.9288 14.4267 36.2364 14.663 35.6492 15.0751C35.0621 15.4873 34.6045 16.0581 34.33 16.7209C34.0556 17.3836 33.9756 18.1109 34.0995 18.8174C34.2233 19.524 34.5459 20.1807 35.0295 20.7105L33.592 22.1475C33.0612 21.6662 32.4047 21.3457 31.6988 21.2232C30.993 21.1006 30.2668 21.1812 29.6049 21.4554C28.9431 21.7296 28.3727 22.1862 27.9604 22.7721C27.548 23.358 27.3106 24.0489 27.2757 24.7645L25.2441 24.7644C25.2114 24.0478 24.9752 23.3553 24.5632 22.768C24.1512 22.1808 23.5803 21.7231 22.9176 21.4485C22.2549 21.1739 21.5276 21.0939 20.821 21.2177C20.1144 21.3415 19.4577 21.6641 18.9278 22.1476L17.4904 20.7105C17.9739 20.1806 18.2965 19.524 18.4203 18.8174C18.5442 18.1108 18.4642 17.3836 18.1897 16.7208C17.9152 16.0581 17.4576 15.4872 16.8704 15.0751C16.2833 14.663 15.5909 14.4267 14.8743 14.3939L14.8744 12.364Z" fill="#E5963A"/>
<path d="M26.2603 20.6656C28.1922 20.6634 30.0443 19.895 31.4104 18.5289C32.7764 17.1629 33.5448 15.3108 33.547 13.3789C33.1807 3.72542 19.3385 3.72803 18.9736 13.3789C18.9759 15.3108 19.7443 17.1629 21.1103 18.5289C22.4764 19.895 24.3285 20.6634 26.2603 20.6656ZM26.2603 7.91383C33.4828 8.14323 33.4811 18.6156 26.2602 18.8439C19.0379 18.6145 19.0396 8.14214 26.2603 7.91383Z" fill="#E5963A"/>
</svg>
