<svg width="61" height="60" viewBox="0 0 61 60" fill="none" xmlns="http://www.w3.org/2000/svg">
<path d="M57.2418 18.7324C57.2414 17.8237 56.884 17.0222 56.2083 16.415L48.13 9.15339C47.1252 8.25042 45.8583 7.32751 44.077 7.32751C44.0765 7.32751 44.0757 7.32751 44.0752 7.32751C42.2928 7.32814 41.0258 8.25229 40.0215 9.1563L31.9484 16.4234C31.273 17.0312 30.9162 17.833 30.9165 18.7418L30.9202 28.0684H25.5588C26.5291 26.0533 27.205 22.8701 26.446 20.4865C25.9118 18.8089 24.7354 17.703 23.0441 17.2882C22.8282 17.2352 22.6001 17.2711 22.4109 17.3877C22.2216 17.5042 22.087 17.6918 22.0371 17.9084C21.945 18.3083 21.8598 18.6832 21.7798 19.0356C20.7823 23.4279 20.6541 23.9924 17.8991 25.793C15.9528 27.0651 15.8147 27.2294 14.6042 28.9952C14.4806 29.1756 14.3442 29.3745 14.1915 29.5954C13.7014 30.3044 13.0743 30.6241 12.163 30.6321L12.0928 30.6323V30.4334C12.0928 29.3991 11.2513 28.5577 10.217 28.5577H5.98215C4.94786 28.5577 4.10645 29.3991 4.10645 30.4334V48.7299C4.10645 49.7642 4.94786 50.6057 5.98215 50.6057H10.2171C11.2513 50.6057 12.0929 49.7642 12.0929 48.7299V47.8787C12.4672 48.0093 12.8414 48.1486 13.2267 48.2924C15.1133 48.997 17.2515 49.7957 20.4263 49.7957H31.4496C31.9195 49.7957 32.3667 49.6976 32.7727 49.5217C33.1713 49.7009 33.6031 49.7957 34.0458 49.7957H34.0466L54.1364 49.7887C55.8555 49.788 57.2537 48.3889 57.2529 46.6697L57.2418 18.7324ZM10.432 48.7299C10.432 48.8464 10.3336 48.9448 10.2171 48.9448H5.98215C5.86568 48.9448 5.76728 48.8464 5.76728 48.7299V30.4334C5.76728 30.3169 5.86568 30.2185 5.98215 30.2185H10.2171C10.3336 30.2185 10.432 30.3169 10.432 30.4334V48.7299ZM20.4263 48.1349C17.5516 48.1349 15.6484 47.4239 13.8079 46.7365C13.2522 46.529 12.6825 46.3162 12.093 46.1263V32.2931L12.173 32.2929C13.6236 32.2803 14.7625 31.6903 15.5579 30.5397C15.7119 30.3169 15.8495 30.1163 15.9742 29.9342C17.0905 28.3057 17.0905 28.3057 18.8079 27.1832C22.1251 25.0151 22.3697 23.9377 23.3994 19.4034C23.4146 19.3362 23.4301 19.2678 23.4458 19.1988C24.1301 19.5621 24.5972 20.154 24.8635 20.9903C25.647 23.4509 24.4115 27.2389 23.4447 28.3551C23.232 28.6008 23.1821 28.9481 23.3172 29.2438C23.4523 29.5396 23.7474 29.7292 24.0725 29.7292H33.5663C34.4915 29.7292 35.2441 30.4819 35.2441 31.4071C35.2441 32.3323 34.4915 33.085 33.5663 33.085H27.021C26.5624 33.085 26.1906 33.4568 26.1906 33.9154C26.1906 34.374 26.5624 34.7459 27.021 34.7459H34.9379C35.8631 34.7459 36.6158 35.4985 36.6158 36.4237C36.6158 37.3489 35.8631 38.1017 34.9379 38.1017H27.021C26.5624 38.1017 26.1906 38.4735 26.1906 38.9321C26.1906 39.3907 26.5624 39.7625 27.021 39.7625H34.0757C35.0009 39.7625 35.7536 40.5152 35.7536 41.4404C35.7536 42.3655 35.0009 43.1182 34.0757 43.1182H27.021C26.5624 43.1182 26.1906 43.49 26.1906 43.9486C26.1906 44.4072 26.5624 44.779 27.021 44.779H31.4497C32.3749 44.779 33.1277 45.5318 33.1277 46.457C33.1277 47.3822 32.375 48.1349 31.4497 48.1349H20.4263ZM54.1358 48.1279L34.3344 48.1348C34.6224 47.6414 34.7884 47.0684 34.7884 46.457C34.7884 45.8418 34.6212 45.2649 34.3298 44.7695C36.0525 44.6391 37.4144 43.1958 37.4144 41.4404C37.4144 40.6258 37.1212 39.8785 36.6348 39.2983C37.6167 38.7164 38.2766 37.6456 38.2766 36.4237C38.2766 35.0563 37.4502 33.8784 36.2708 33.3627C36.6696 32.8127 36.9049 32.1369 36.9049 31.4071C36.9049 29.5661 35.4072 28.0684 33.5663 28.0684H32.5812L32.5774 18.7413C32.5773 18.3045 32.735 17.9501 33.0596 17.6579L41.1327 10.3907C42.2389 9.39494 43.0916 8.98876 44.0759 8.98835H44.0771C45.0606 8.98835 45.9134 9.39411 47.0199 10.3885L55.0982 17.6501C55.423 17.9421 55.581 18.2964 55.5812 18.7332L55.5922 46.6703C55.5925 47.4737 54.9392 48.1276 54.1358 48.1279ZM49.0644 36.89C49.1861 37.8922 48.9174 38.8069 48.2877 39.5351C47.5469 40.3914 46.316 40.9656 44.9152 41.1267V42.183C44.9152 42.6416 44.5434 43.0134 44.0848 43.0134C43.6262 43.0134 43.2544 42.6416 43.2544 42.183V41.1146C41.18 40.8296 39.5676 39.5179 39.1008 37.6456C38.9898 37.2006 39.2606 36.7499 39.7056 36.6389C40.1509 36.5287 40.6013 36.7989 40.7123 37.2437C41.1425 38.9688 42.8784 39.5444 44.2351 39.5106C45.4 39.4829 46.4976 39.0661 47.0316 38.4487C47.3556 38.0741 47.4813 37.6296 47.4158 37.0901C47.2608 35.8134 46.1957 35.0805 43.9622 34.7138C40.4076 34.1301 39.5799 32.3274 39.5116 30.918C39.4167 28.9649 40.784 27.328 42.9139 26.8449C43.0256 26.8196 43.1393 26.7977 43.2546 26.7796V25.6995C43.2546 25.2409 43.6264 24.8691 44.085 24.8691C44.5436 24.8691 44.9154 25.2409 44.9154 25.6995V26.7725C46.4358 26.9977 47.9357 27.8784 48.685 29.6633C48.8625 30.0861 48.6637 30.5729 48.2408 30.7504C47.8179 30.9281 47.3312 30.7291 47.1537 30.3063C46.4334 28.5908 44.6899 28.1453 43.2813 28.4648C42.2169 28.7061 41.1034 29.4563 41.1706 30.8376C41.1916 31.2702 41.2554 32.5865 44.2314 33.0751C45.334 33.2559 48.6902 33.807 49.0644 36.89ZM44.078 18.4627C45.7086 18.4627 47.0353 17.1361 47.0353 15.5053C47.0353 13.8746 45.7087 12.548 44.078 12.548C42.4472 12.548 41.1206 13.8746 41.1206 15.5053C41.1206 17.1361 42.4472 18.4627 44.078 18.4627ZM44.078 14.2088C44.7929 14.2088 45.3745 14.7905 45.3745 15.5052C45.3745 16.22 44.7929 16.8017 44.078 16.8017C43.3631 16.8017 42.7814 16.22 42.7814 15.5052C42.7814 14.7905 43.3631 14.2088 44.078 14.2088Z" fill="#E5963A"/>
</svg>
