<svg width="65" height="65" viewBox="0 0 65 65" fill="none" xmlns="http://www.w3.org/2000/svg">
<g clip-path="url(#clip0_2033_675)">
<path d="M62.1598 11.6893H57.4461C56.9273 11.6893 56.507 12.1096 56.507 12.6284C56.507 13.1472 56.9273 13.5676 57.4461 13.5676H62.1598C62.659 13.5676 63.065 13.9737 63.065 14.4728V58.7235C63.065 59.2227 62.659 59.6288 62.1598 59.6288H7.91991C6.55814 59.6288 5.27825 59.0984 4.31568 58.1352C3.35311 57.172 2.82317 55.8915 2.82343 54.5292L2.82242 54.4431C2.8685 51.6802 5.19987 49.4322 8.01934 49.4322H9.88839H10.7667C11.9415 49.4322 12.8973 48.4764 12.8973 47.3015V13.5676H43.597C44.1158 13.5676 44.5361 13.1472 44.5361 12.6284C44.5361 12.1096 44.1158 11.6893 43.597 11.6893H12.8973V9.42653C12.8973 8.25171 11.9415 7.2959 10.7667 7.2959H7.91991C4.073 7.2959 0.943359 10.4255 0.943359 14.2725V38.5295C0.943359 39.0483 1.36385 39.4686 1.88252 39.4686C2.40118 39.4686 2.82167 39.0483 2.82167 38.5295V14.2725C2.82167 11.4614 5.10871 9.17421 7.91991 9.17421H10.7667C10.9058 9.17421 11.019 9.28729 11.019 9.42653V47.3016C11.019 47.4407 10.9058 47.554 10.7667 47.554H9.88839H8.01934C5.97523 47.554 4.11934 48.4268 2.82167 49.8139V42.532C2.82167 42.0133 2.40118 41.5929 1.88252 41.5929C1.36385 41.5929 0.943359 42.0133 0.943359 42.532V54.5307C0.943359 54.5437 0.945613 54.5565 0.946114 54.5695C0.956257 56.4183 1.67953 58.1548 2.98709 59.4633C4.30441 60.7814 6.05625 61.5074 7.91991 61.5074H62.1597C63.6947 61.5074 64.9432 60.2586 64.9432 58.7237V14.4728C64.9434 12.938 63.6947 11.6893 62.1598 11.6893Z" fill="#E5963A"/>
<path d="M18.284 25.8507C17.4565 25.8507 16.7832 26.5238 16.7832 27.3513V29.9664C16.7832 30.7939 17.4564 31.4672 18.284 31.4672H18.6136C18.8248 32.2042 19.1189 32.9134 19.4922 33.5857L19.2582 33.8196C18.6733 34.4047 18.6733 35.3567 19.2583 35.942L21.1073 37.791C21.3908 38.0746 21.7677 38.2306 22.1687 38.2306C22.5697 38.2306 22.9466 38.0746 23.2299 37.7911L23.4639 37.5572C24.1359 37.9303 24.845 38.2245 25.5823 38.4359V38.7656C25.5823 39.593 26.2555 40.2663 27.0831 40.2663H29.6982C30.5258 40.2663 31.199 39.593 31.199 38.7656V38.4359C31.9364 38.2245 32.6456 37.9305 33.3174 37.5572L33.5512 37.7911C33.8348 38.0746 34.2116 38.2306 34.6125 38.2306C35.0135 38.2306 35.3904 38.0745 35.6736 37.7911L37.5232 35.9417C38.1079 35.3567 38.1079 34.4047 37.5229 33.8195L37.289 33.5857C37.6623 32.9134 37.9564 32.2044 38.1678 31.4672H38.4974C39.3248 31.4672 39.9981 30.7939 39.9981 29.9664V27.3513C39.9981 26.5238 39.3248 25.8507 38.4974 25.8507H38.1678C37.9564 25.1134 37.6623 24.4042 37.2891 23.7322L37.5232 23.4981C38.1081 22.9129 38.1079 21.9609 37.523 21.3759L35.6738 19.5266C35.0885 18.9416 34.1366 18.9417 33.5513 19.5268L33.3175 19.7607C32.6452 19.3874 31.9362 19.0932 31.1991 18.8819V18.5523C31.1991 17.7248 30.5259 17.0515 29.6984 17.0515H27.0832C26.2558 17.0515 25.5825 17.7248 25.5825 18.5523V18.8819C24.8453 19.0932 24.1362 19.3873 23.4641 19.7605L23.2301 19.5266C22.6449 18.9415 21.6929 18.9417 21.1077 19.5266L19.2586 21.3759C18.9751 21.6593 18.8189 22.0362 18.8189 22.4371C18.8189 22.8381 18.9749 23.2149 19.2584 23.4985L19.4924 23.7323C19.1191 24.4045 18.8249 25.1136 18.6137 25.8508L18.284 25.8507ZM18.6615 27.729H19.165C19.7142 27.729 20.1823 27.3557 20.303 26.8212C20.51 25.9061 20.8702 25.0381 21.3732 24.2409C21.6657 23.7775 21.5988 23.1826 21.2105 22.7941L20.8534 22.437L22.1686 21.1218L22.5257 21.4791C22.914 21.8673 23.5088 21.9344 23.9725 21.6417C24.7697 21.1385 25.6377 20.7785 26.5527 20.5716C27.0873 20.4506 27.4605 19.9827 27.4605 19.4335V18.93H29.3206V19.4335C29.3206 19.9827 29.6937 20.4506 30.2283 20.5716C31.1433 20.7785 32.0113 21.1385 32.809 21.642C33.2723 21.9341 33.8671 21.8671 34.2554 21.4789L34.6125 21.1218L35.9277 22.437L35.5705 22.7941C35.1824 23.1823 35.1154 23.7771 35.4078 24.2411C35.9111 25.0382 36.2711 25.9064 36.4779 26.8214C36.5989 27.3558 37.0669 27.729 37.6161 27.729H38.1196V29.589H37.6161C37.0669 29.589 36.5989 29.9622 36.4779 30.4967C36.2711 31.4117 35.9111 32.2797 35.4078 33.0769C35.1155 33.54 35.1822 34.1348 35.5706 34.5238L35.9277 34.881L34.6125 36.196L34.2554 35.8389C33.8671 35.4507 33.2724 35.384 32.8085 35.6762C32.0116 36.1794 31.1434 36.5394 30.2282 36.7464C29.6937 36.8673 29.3206 37.3353 29.3206 37.8845V38.388H27.4605V37.8845C27.4605 37.3353 27.0873 36.8673 26.5528 36.7464C25.6374 36.5394 24.7694 36.1792 23.9723 35.6761C23.5088 35.3841 22.914 35.4507 22.5257 35.8389L22.1686 36.196L20.8534 34.881L21.211 34.5233C21.5989 34.1346 21.6656 33.5398 21.373 33.077C20.8699 32.2799 20.5099 31.4117 20.3029 30.4967C20.1819 29.9623 19.714 29.5891 19.1649 29.5891H18.6614L18.6615 27.729Z" fill="#E5963A"/>
<path d="M28.3904 34.5511C31.6395 34.5511 34.283 31.9079 34.283 28.6588C34.283 26.9302 33.5269 25.2949 32.2085 24.1722C31.8139 23.836 31.2209 23.8833 30.8846 24.2783C30.5482 24.6732 30.5958 25.266 30.9907 25.6022C31.8892 26.3675 32.4046 27.4816 32.4046 28.6588C32.4046 30.8722 30.604 32.6728 28.3904 32.6728C26.177 32.6728 24.3764 30.8722 24.3764 28.6588C24.3764 26.6481 25.878 24.9374 27.8693 24.6796C28.3837 24.6131 28.7467 24.142 28.6801 23.6278C28.6135 23.1133 28.1425 22.7492 27.6281 22.8169C24.7036 23.1955 22.498 25.707 22.498 28.6588C22.498 31.9079 25.1413 34.5511 28.3904 34.5511Z" fill="#E5963A"/>
<path d="M49.3131 54.9302C49.574 55.3515 50.0256 55.6031 50.5211 55.6032H50.5213C51.0168 55.6032 51.4685 55.3516 51.7297 54.93L54.4877 50.4747C54.5796 50.3262 54.6283 50.155 54.6283 49.9804V42.7229C54.6283 42.2041 54.2079 41.7837 53.6891 41.7837C53.1704 41.7837 52.75 42.2041 52.75 42.7229V49.0413H48.2924V15.8546H52.75V38.7204C52.75 39.2392 53.1704 39.6596 53.6891 39.6596C54.2079 39.6596 54.6283 39.2392 54.6283 38.7204V6.72551C54.6283 4.99897 53.2236 3.59424 51.4969 3.59424H49.5455C47.8188 3.59424 46.4141 4.99897 46.4141 6.72551V49.9804C46.4141 50.1551 46.4628 50.3263 46.5547 50.4747L49.3131 54.9302ZM50.5213 53.3136L49.0393 50.9196H52.0033L50.5213 53.3136ZM48.2925 13.9763V11.6129H52.7501V13.9763H48.2925ZM49.5456 5.47255H51.497C52.188 5.47255 52.7501 6.03454 52.7501 6.72551V9.73444H48.2925V6.72551C48.2925 6.03467 48.8547 5.47255 49.5456 5.47255Z" fill="#E5963A"/>
<path d="M18.3503 45.4343C17.8316 45.4343 17.4111 45.8547 17.4111 46.3735C17.4111 46.8923 17.8316 47.3126 18.3503 47.3126H19.3577C19.8764 47.3126 20.2968 46.8923 20.2968 46.3735C20.2968 45.8547 19.8764 45.4343 19.3577 45.4343H18.3503Z" fill="#E5963A"/>
<path d="M42.0523 45.4343H23.4372C22.9185 45.4343 22.498 45.8547 22.498 46.3735C22.498 46.8923 22.9185 47.3126 23.4372 47.3126H42.0523C42.5711 47.3126 42.9914 46.8923 42.9914 46.3735C42.9914 45.8547 42.5709 45.4343 42.0523 45.4343Z" fill="#E5963A"/>
<path d="M42.0523 49.9971H18.3503C17.8316 49.9971 17.4111 50.4174 17.4111 50.9362C17.4111 51.455 17.8316 51.8754 18.3503 51.8754H42.0523C42.5711 51.8754 42.9915 51.455 42.9915 50.9362C42.9915 50.4174 42.571 49.9971 42.0523 49.9971Z" fill="#E5963A"/>
<path d="M42.0523 54.5596H18.3503C17.8316 54.5596 17.4111 54.9799 17.4111 55.4987C17.4111 56.0175 17.8316 56.4379 18.3503 56.4379H42.0523C42.5711 56.4379 42.9915 56.0175 42.9915 55.4987C42.9915 54.9799 42.571 54.5596 42.0523 54.5596Z" fill="#E5963A"/>
</g>
<defs>
<clipPath id="clip0_2033_675">
<rect width="64" height="64" fill="white" transform="translate(0.943359 0.550781)"/>
</clipPath>
</defs>
</svg>
