<svg width="62" height="63" viewBox="0 0 62 63" fill="none" xmlns="http://www.w3.org/2000/svg">
<path d="M40.8733 1.55078L51.8309 12.5084H44.3642C42.4249 12.5084 40.7764 10.9568 40.7764 8.92048V1.55078H40.8733Z" stroke="#E5963A" stroke-width="2" stroke-miterlimit="10" stroke-linecap="round" stroke-linejoin="round"/>
<path d="M7.12793 6.69018V5.42957C7.12793 3.29624 8.87338 1.55078 11.0067 1.55078H40.6794" stroke="#E5963A" stroke-width="2" stroke-miterlimit="10" stroke-linecap="round" stroke-linejoin="round"/>
<path d="M51.9279 56.6295V57.7931C51.9279 59.9264 50.1825 61.6719 48.0491 61.6719H11.0067C8.87338 61.6719 7.12793 59.9264 7.12793 57.7931V33.2598" stroke="#E5963A" stroke-width="2" stroke-miterlimit="10" stroke-linecap="round" stroke-linejoin="round"/>
<path d="M51.9277 12.5083V35.5871" stroke="#E5963A" stroke-width="2" stroke-miterlimit="10" stroke-linecap="round" stroke-linejoin="round"/>
<path d="M50.0861 39.7567L48.7285 38.3992C47.9527 37.6234 47.9527 36.2658 48.7285 35.3931C49.5042 34.6173 50.8618 34.6173 51.7345 35.3931L57.3588 40.9204C57.8436 41.3082 58.4255 42.084 59.0073 42.7628C61.0436 45.381 61.6255 48.9689 60.2679 52.0719C59.3952 54.1082 57.6497 56.0476 54.3527 56.6295C52.6073 56.9204 49.7952 56.4355 48.2436 55.6598C45.2376 54.1082 41.2618 51.8779 38.3527 51.0052L31.9527 49.1628C32.0497 48.484 32.4376 47.8052 32.8255 47.3204C33.5042 46.6416 34.4739 46.2537 35.5406 46.4476L39.8073 47.5143L32.3406 40.0476C31.5648 39.2719 31.5648 37.9143 32.3406 37.0416C33.1164 36.2658 34.4739 36.2658 35.3467 37.0416L42.7164 44.4113" stroke="#E5963A" stroke-width="2" stroke-miterlimit="10" stroke-linecap="round" stroke-linejoin="round"/>
<path d="M44.1705 45.6719L40.9705 42.4719C40.1947 41.6962 40.1947 40.3386 40.9705 39.4659C41.7462 38.6901 43.1038 38.6901 43.9766 39.4659L47.1766 42.6659" stroke="#E5963A" stroke-width="2" stroke-miterlimit="10" stroke-linecap="round" stroke-linejoin="round"/>
<path d="M47.0796 42.666L44.5584 40.1448C43.7826 39.369 43.7826 38.0114 44.5584 37.1387C45.3341 36.3629 46.6917 36.3629 47.5644 37.1387L50.1826 39.7569" stroke="#E5963A" stroke-width="2" stroke-miterlimit="10" stroke-linecap="round" stroke-linejoin="round"/>
<path d="M6.74047 29.2842H14.0132C15.0799 29.2842 16.0496 30.1569 16.0496 31.3205C16.0496 32.3872 15.1768 33.3569 14.0132 33.3569H6.74047C5.6738 33.3569 4.7041 32.4842 4.7041 31.3205C4.7041 30.1569 5.57683 29.2842 6.74047 29.2842Z" stroke="#E5963A" stroke-width="2" stroke-miterlimit="10" stroke-linecap="round" stroke-linejoin="round"/>
<path d="M19.7341 15.8053C19.7341 10.278 14.9826 5.81741 9.26141 6.49619C5.09172 6.98104 1.69778 10.278 1.11596 14.3507C0.631111 17.4538 1.69778 20.3629 3.73414 22.3992C5.4796 24.2417 6.64323 26.6659 6.64323 29.1871V29.2841H14.3038V29.1871C14.3038 26.6659 15.3705 24.2417 17.2129 22.3992C18.7644 20.6538 19.7341 18.3265 19.7341 15.8053Z" stroke="#E5963A" stroke-width="2" stroke-miterlimit="10" stroke-linecap="round" stroke-linejoin="round"/>
<path d="M10.3281 28.9932V20.169L12.4615 18.0356" stroke="#E5963A" stroke-width="2" stroke-miterlimit="10" stroke-linecap="round" stroke-linejoin="round"/>
<path d="M8.19434 18.0356L10.3277 20.169" stroke="#E5963A" stroke-width="2" stroke-miterlimit="10" stroke-linecap="round" stroke-linejoin="round"/>
<path d="M26.0371 7.85376H35.4432V14.5447H26.0371V7.85376Z" stroke="#E5963A" stroke-width="2" stroke-miterlimit="10" stroke-linecap="round" stroke-linejoin="round"/>
<path d="M25.1641 20.3628H44.3641" stroke="#E5963A" stroke-width="2" stroke-miterlimit="10" stroke-linecap="round" stroke-linejoin="round"/>
<path d="M23.3213 26.1812H44.3637" stroke="#E5963A" stroke-width="2" stroke-miterlimit="10" stroke-linecap="round" stroke-linejoin="round"/>
<path d="M23.3213 31.9993H44.3637" stroke="#E5963A" stroke-width="2" stroke-miterlimit="10" stroke-linecap="round" stroke-linejoin="round"/>
<path d="M14.6914 37.8174H26.0369" stroke="#E5963A" stroke-width="2" stroke-miterlimit="10" stroke-linecap="round" stroke-linejoin="round"/>
<path d="M14.6914 43.7327H27.6853" stroke="#E5963A" stroke-width="2" stroke-miterlimit="10" stroke-linecap="round" stroke-linejoin="round"/>
<path d="M14.6914 49.5508H26.3278" stroke="#E5963A" stroke-width="2" stroke-miterlimit="10" stroke-linecap="round" stroke-linejoin="round"/>
<path d="M14.6914 55.3689H37.1884" stroke="#E5963A" stroke-width="2" stroke-miterlimit="10" stroke-linecap="round" stroke-linejoin="round"/>
<path d="M60.9463 5.33252V30.5446L58.3281 35.5871L55.71 30.5446V5.33252C57.4554 4.4598 59.2009 4.4598 60.9463 5.33252Z" stroke="#E5963A" stroke-width="2" stroke-miterlimit="10" stroke-linecap="round" stroke-linejoin="round"/>
</svg>
