<svg width="38" height="42" viewBox="0 0 38 42" fill="none" xmlns="http://www.w3.org/2000/svg">
<path d="M7.24371 41.0935L1.2334 41.0837L1.23358 11.8915L19.4296 1.52173L37.2344 11.7937V41.1423L30.8017 41.1318M7.24371 41.0935V16.9107H30.8017V41.1318M7.24371 41.0935L12.2333 41.1016L26.1281 41.1242L30.8017 41.1318" stroke="#E5963A" stroke-width="1.5"/>
<path d="M19.6094 20.9009V23.8206M19.6094 37.03C19.6094 35.8739 19.6094 35.2258 19.6094 34.0697M19.6094 23.8206L22.1359 22.47M19.6094 23.8206L17.167 22.4632M19.6094 23.8206V34.0697M19.6094 34.0697L17.1771 35.4205M19.6094 34.0697L21.9956 35.4305" stroke="#E5963A" stroke-width="1.5" stroke-linecap="round"/>
<path d="M26.5907 24.8569L24.0706 26.3313M12.6688 33.0014C13.6667 32.4176 14.2262 32.0903 15.2241 31.5065M24.0706 26.3313L26.5121 27.83M24.0706 26.3313L24.0089 23.5377M24.0706 26.3313L15.2241 31.5065M15.2241 31.5065L12.83 30.0892M15.2241 31.5065L15.2544 34.2533" stroke="#E5963A" stroke-width="1.5" stroke-linecap="round"/>
<path d="M26.6477 32.9751L24.122 31.5103M12.6953 24.883C13.6954 25.4631 14.2561 25.7882 15.2561 26.3683M24.122 31.5103L24.0228 34.3734M24.122 31.5103L26.5216 30.0785M24.122 31.5103L15.2561 26.3683M15.2561 26.3683L15.3079 23.5866M15.2561 26.3683L12.8818 27.7497" stroke="#E5963A" stroke-width="1.5" stroke-linecap="round"/>
</svg>
