<svg width="43" height="17" viewBox="0 0 43 17" fill="none" xmlns="http://www.w3.org/2000/svg">
<path d="M8.38548 12.1757L7.6962 11.8801C7.65614 11.9735 7.63548 12.0741 7.63548 12.1757H8.38548ZM1.70996 12.1757L1.06662 11.7902C0.996826 11.9067 0.959961 12.04 0.959961 12.1757H1.70996ZM15.061 12.1757L14.3349 11.9878C14.319 12.0492 14.311 12.1123 14.311 12.1757H15.061ZM21.7284 12.2161H22.4784L22.4783 12.2131L21.7284 12.2161ZM28.3957 12.2564H29.1457C29.1457 12.222 29.1433 12.1877 29.1386 12.1536L28.3957 12.2564ZM35.0631 12.2967H35.8131C35.8131 12.2196 35.8012 12.143 35.7778 12.0695L35.0631 12.2967ZM41.7304 12.337H42.4804C42.4804 12.2149 42.4506 12.0947 42.3936 11.9867L41.7304 12.337ZM8.05734 1.58314L8.05576 0.833147L7.63188 0.834037L7.414 1.19764L8.05734 1.58314ZM36.0194 1.52441L36.6826 1.17413L36.4709 0.773464L36.0178 0.774416L36.0194 1.52441ZM21.6856 1.55452L21.684 0.804522L21.6856 1.55452ZM12.9329 1.5729L12.9313 0.822906L12.9329 1.5729ZM8.38548 12.1757H7.63548C7.63548 13.6049 6.4769 14.7635 5.04772 14.7635V15.5135V16.2635C7.30533 16.2635 9.13548 14.4334 9.13548 12.1757H8.38548ZM5.04772 15.5135V14.7635C3.61854 14.7635 2.45996 13.6049 2.45996 12.1757H1.70996H0.959961C0.959961 14.4334 2.79011 16.2635 5.04772 16.2635V15.5135ZM15.061 12.1757H14.311C14.311 13.6049 13.1524 14.7635 11.7232 14.7635V15.5135V16.2635C13.9808 16.2635 15.811 14.4334 15.811 12.1757H15.061ZM11.7232 15.5135V14.7635C10.2941 14.7635 9.13548 13.6049 9.13548 12.1757H8.38548H7.63548C7.63548 14.4334 9.46563 16.2635 11.7232 16.2635V15.5135ZM21.7284 12.2161H20.9784C20.9784 13.6358 19.8375 14.7635 18.3988 14.7635V15.5135V16.2635C20.6468 16.2635 22.4784 14.4831 22.4784 12.2161H21.7284ZM18.3988 15.5135V14.7635C16.9696 14.7635 15.811 13.6049 15.811 12.1757H15.061H14.311C14.311 14.4334 16.1411 16.2635 18.3988 16.2635V15.5135ZM28.3957 12.2564H27.6457C27.6457 13.6761 26.5048 14.8038 25.0661 14.8038V15.5538V16.3038C27.3142 16.3038 29.1457 14.5235 29.1457 12.2564H28.3957ZM25.0661 15.5538V14.8038C23.6369 14.8038 22.4784 13.6452 22.4784 12.2161H21.7284H20.9784C20.9784 14.4737 22.8085 16.3038 25.0661 16.3038V15.5538ZM35.0631 12.2967H34.3131C34.3131 13.7164 33.1722 14.8441 31.7335 14.8441V15.5941V16.3441C33.9815 16.3441 35.8131 14.5638 35.8131 12.2967H35.0631ZM31.7335 15.5941V14.8441C30.3043 14.8441 29.1457 13.6856 29.1457 12.2564H28.3957H27.6457C27.6457 14.514 29.4759 16.3441 31.7335 16.3441V15.5941ZM41.7304 12.337H40.9804C40.9804 13.7567 39.8395 14.8845 38.4008 14.8845V15.6345V16.3845C40.6489 16.3845 42.4804 14.6041 42.4804 12.337H41.7304ZM38.4008 15.6345V14.8845C36.9716 14.8845 35.8131 13.7259 35.8131 12.2967H35.0631H34.3131C34.3131 14.5543 36.1432 16.3845 38.4008 16.3845V15.6345ZM1.70996 12.1757L2.3533 12.5613L8.70068 1.96865L8.05734 1.58314L7.414 1.19764L1.06662 11.7902L1.70996 12.1757ZM36.0194 1.52441L35.3562 1.87469L41.0672 12.6873L41.7304 12.337L42.3936 11.9867L36.6826 1.17413L36.0194 1.52441ZM35.0631 12.2967L35.7778 12.0695L32.361 1.32109L31.6462 1.54831L30.9315 1.77552L34.3483 12.5239L35.0631 12.2967ZM26.9139 1.54354L26.9155 2.29354L36.021 2.27441L36.0194 1.52441L36.0178 0.774416L26.9123 0.793541L26.9139 1.54354ZM28.3957 12.2564L29.1386 12.1536L27.6568 1.44078L26.9139 1.54354L26.171 1.6463L27.6528 12.3591L28.3957 12.2564ZM21.6856 1.55452L21.6872 2.30452L26.9155 2.29354L26.9139 1.54354L26.9123 0.793541L21.684 0.804522L21.6856 1.55452ZM21.7284 12.2161L22.4783 12.2131L22.4356 1.55151L21.6856 1.55452L20.9356 1.55753L20.9784 12.2191L21.7284 12.2161ZM17.8084 1.56266L17.81 2.31266L21.6872 2.30452L21.6856 1.55452L21.684 0.804522L17.8068 0.812666L17.8084 1.56266ZM15.061 12.1757L15.7871 12.3637L18.5345 1.75062L17.8084 1.56266L17.0823 1.37471L14.3349 11.9878L15.061 12.1757ZM8.05734 1.58314L8.05891 2.33314L12.9344 2.3229L12.9329 1.5729L12.9313 0.822906L8.05576 0.833147L8.05734 1.58314ZM12.9329 1.5729L12.9344 2.3229L17.81 2.31266L17.8084 1.56266L17.8068 0.812666L12.9313 0.822906L12.9329 1.5729ZM8.38548 12.1757L9.07476 12.4714L13.6221 1.86853L12.9329 1.5729L12.2436 1.27728L7.6962 11.8801L8.38548 12.1757Z" fill="#E5963A"/>
</svg>
