<svg width="16" height="25" viewBox="0 0 16 25" fill="none" xmlns="http://www.w3.org/2000/svg">
<path d="M7.99929 24.459C3.98864 24.459 0.726562 21.095 0.726562 16.959V6.45898C0.726562 5.90601 1.16104 5.45905 1.6962 5.45905C2.23153 5.45905 2.66602 5.90601 2.66602 6.45898V16.959C2.66602 19.991 5.05824 22.4589 7.99929 22.4589C10.9403 22.4589 13.3326 19.991 13.3326 16.959V5.95892C13.3326 4.02899 11.8102 2.45905 9.93874 2.45905C8.06712 2.45905 6.54474 4.02899 6.54474 5.95892V15.959C6.54474 16.7859 7.19727 17.459 7.99929 17.459C8.80131 17.459 9.45384 16.7859 9.45384 15.959V6.45898C9.45384 5.90601 9.88832 5.45905 10.4235 5.45905C10.9588 5.45905 11.3933 5.90601 11.3933 6.45898V15.959C11.3933 17.889 9.87074 19.4589 7.99929 19.4589C6.12784 19.4589 4.60529 17.889 4.60529 15.959V5.95892C4.60529 2.92706 6.99751 0.458984 9.93874 0.458984C12.8798 0.458984 15.272 2.92706 15.272 5.95892V16.959C15.272 21.095 12.0099 24.459 7.99929 24.459Z" fill="#E5963A"/>
</svg>
