<svg width="37" height="38" viewBox="0 0 37 38" fill="none" xmlns="http://www.w3.org/2000/svg">
<g clip-path="url(#clip0_2024_534)">
<path d="M36.6954 10.6006L18.812 0.117244C18.6239 0.00747229 18.3927 0.00378675 18.2022 0.109222L0.318836 9.97594C0.122129 10.0838 0 10.291 0 10.5155V36.4155C0 36.7565 0.276271 37.0321 0.616643 37.0321H3.7C4.04037 37.0321 4.31664 36.7565 4.31664 36.4155V14.8322H32.6833V36.4155C32.6833 36.7566 32.9589 37.0322 33.2999 37.0322H36.3833C36.7243 37.0322 36.9999 36.7566 36.9999 36.4155V11.1322C37 10.9132 36.8841 10.711 36.6954 10.6006ZM35.7666 35.7988H33.9166V14.2155C33.9166 13.8751 33.641 13.5988 33.3 13.5988H3.7C3.35963 13.5988 3.08336 13.8751 3.08336 14.2155V35.7988H1.23336V10.8793L18.4907 1.35797L35.7666 11.4855V35.7988Z" fill="#E5963A"/>
<path d="M30.833 28.3987H23.433C23.092 28.3987 22.8164 28.6743 22.8164 29.0153V36.4153C22.8164 36.7563 23.092 37.032 23.433 37.032H30.833C31.1741 37.032 31.4497 36.7563 31.4497 36.4153V29.0153C31.4497 28.6743 31.1741 28.3987 30.833 28.3987ZM30.2163 35.7987H24.0497V29.632H30.2163V35.7987Z" fill="#E5963A"/>
<path d="M27.7499 29.0154V30.8654H26.5166V29.0154H25.2832V31.482C25.2832 31.823 25.5588 32.0987 25.8998 32.0987H28.3665C28.7075 32.0987 28.9831 31.823 28.9831 31.482V29.0154H27.7499Z" fill="#E5963A"/>
<path d="M23.4336 28.3987H16.0336C15.6933 28.3987 15.417 28.6743 15.417 29.0153V36.4153C15.417 36.7563 15.6933 37.032 16.0336 37.032H23.4336C23.7747 37.032 24.0503 36.7563 24.0503 36.4153V29.0153C24.0503 28.6743 23.7747 28.3987 23.4336 28.3987ZM22.8169 35.7987H16.6503V29.632H22.8169V35.7987Z" fill="#E5963A"/>
<path d="M20.3495 29.0154V30.8654H19.1162V29.0154H17.8828V31.482C17.8828 31.823 18.1591 32.0987 18.4995 32.0987H20.9661C21.3071 32.0987 21.5827 31.823 21.5827 31.482V29.0154H20.3495Z" fill="#E5963A"/>
<path d="M30.833 20.9988H23.433C23.092 20.9988 22.8164 21.2744 22.8164 21.6154V29.0154C22.8164 29.3564 23.092 29.6321 23.433 29.6321H30.833C31.1741 29.6321 31.4497 29.3564 31.4497 29.0154V21.6154C31.4497 21.2744 31.1741 20.9988 30.833 20.9988ZM30.2163 28.3988H24.0497V22.2321H30.2163V28.3988Z" fill="#E5963A"/>
<path d="M27.7499 21.6155V23.4655H26.5166V21.6155H25.2832V24.0821C25.2832 24.4231 25.5588 24.6988 25.8998 24.6988H28.3665C28.7075 24.6988 28.9831 24.4231 28.9831 24.0821V21.6155H27.7499Z" fill="#E5963A"/>
<path d="M33.3002 18.532H3.7002V19.7653H33.3002V18.532Z" fill="#E5963A"/>
<path d="M33.3002 16.0654H3.7002V17.2988H33.3002V16.0654Z" fill="#E5963A"/>
<path d="M21.5831 8.66528H15.4164C15.0761 8.66528 14.7998 8.94156 14.7998 9.28193V11.7486C14.7998 12.0889 15.0761 12.3652 15.4164 12.3652H21.5831C21.9241 12.3652 22.1997 12.0889 22.1997 11.7486V9.28193C22.1997 8.94156 21.9241 8.66528 21.5831 8.66528ZM20.9664 11.132H16.033V9.89864H20.9664V11.132Z" fill="#E5963A"/>
</g>
<defs>
<clipPath id="clip0_2024_534">
<rect width="37" height="37" fill="white" transform="translate(0 0.0322266)"/>
</clipPath>
</defs>
</svg>
