<svg width="65" height="65" viewBox="0 0 65 65" fill="none" xmlns="http://www.w3.org/2000/svg">
<g clip-path="url(#clip0_2033_644)">
<path d="M51.0115 43.1638C53.2392 44.7813 54.2918 49.555 54.5108 51.2616L56.1721 63.7929L57.9078 63.5652L56.248 51.0193C56.213 50.7419 55.3341 44.1331 52.048 41.7623C50.9473 41.0266 49.7677 40.4149 48.5298 39.9405C48.4553 39.8835 48.375 39.8383 48.286 39.8076L47.5633 39.5521C46.4714 39.1302 45.3312 38.7361 44.2364 38.3945L43.5604 38.158C43.4933 38.1332 43.4247 38.1186 43.3531 38.1113C41.5225 37.5317 39.9152 37.104 39.0539 36.8791V34.9638C41.6685 33.0952 43.2218 30.0792 43.2188 26.866V25.3916C43.5108 25.4982 43.8188 25.5536 44.1269 25.558C45.5882 25.558 46.7721 24.3741 46.7721 22.9128V20.5536C46.7721 19.9128 46.5356 19.2952 46.1108 18.8193C46.3925 18.3697 46.5356 17.8471 46.5239 17.3186V16.3113C46.5648 15.577 46.3327 14.8529 45.8743 14.2763C45.6363 14.0281 45.3312 13.85 44.9955 13.7668C44.7882 11.377 43.6539 4.36098 37.6028 1.61938H37.5502C35.9736 0.943474 34.2816 0.581431 32.5692 0.553694H32.0656C30.4276 0.520118 28.797 0.777052 27.2466 1.31136H27.2057C20.505 3.77558 19.2977 11.2632 19.108 13.7434C18.7707 13.8267 18.4642 14.0033 18.2277 14.2529C17.7474 14.8223 17.4963 15.5478 17.5269 16.2894V17.3259C17.5138 17.8544 17.6569 18.3755 17.9372 18.8223C17.5153 19.3025 17.2773 19.9201 17.2773 20.5609V22.9244C17.2773 24.3857 18.4627 25.5682 19.9225 25.5682C20.2335 25.5682 20.5386 25.5113 20.8291 25.4018V26.8821C20.835 30.0587 22.3547 33.0412 24.9211 34.9127V36.8791C21.8262 37.6864 18.7766 38.666 15.7912 39.8178H15.7518C14.4291 40.3127 13.1678 40.9594 11.9897 41.739C8.7036 44.1331 7.82623 50.7346 7.78973 50.9974L6.12988 63.5506L7.86564 63.7754L9.52549 51.2222C9.74739 49.52 10.797 44.7521 12.997 43.1215C13.6963 42.6558 14.4379 42.2587 15.2131 41.9346V49.4543C13.9342 49.9244 12.3211 51.2397 12.3211 54.0163V63.6835C12.3211 64.1608 12.708 64.5506 13.1883 64.5506H50.8903C51.3706 64.5506 51.756 64.1608 51.756 63.6835V54.0324C51.756 51.2557 50.1327 49.9419 48.8641 49.4733V41.9536C49.6188 42.2864 50.3356 42.6923 51.0115 43.1638ZM45.0524 20.5536V22.9201C45.0145 23.4193 44.575 23.793 44.0758 23.7536C43.632 23.7171 43.2787 23.3639 43.2422 22.9201V20.5536C43.2042 20.0529 43.575 19.6164 44.0758 19.5741C44.575 19.5347 45.0145 19.9084 45.0524 20.4077C45.0582 20.4558 45.0582 20.5055 45.0524 20.5536ZM33.251 2.33033C34.3064 2.41062 35.3473 2.63982 36.3415 3.00478V7.39747C35.6262 8.42667 34.4977 9.08798 33.251 9.20769V2.33033ZM28.4262 2.76391C29.4305 2.47632 30.4685 2.31719 31.5167 2.28946V9.23104C30.27 9.11134 29.1386 8.44856 28.4262 7.41937V2.76391ZM20.8072 22.9128C20.7678 23.412 20.3284 23.7872 19.8306 23.7463C19.3868 23.7128 19.0335 23.3595 18.997 22.9128V20.5536C18.9561 20.0529 19.3298 19.6164 19.8306 19.5741C20.3284 19.5347 20.7678 19.9084 20.8072 20.4077C20.8116 20.4558 20.8116 20.5055 20.8072 20.5536V22.9128ZM19.8992 17.904C19.7342 17.904 19.5736 17.9201 19.4145 17.9493C19.2802 17.7697 19.216 17.5434 19.2393 17.3186V16.2675C19.2291 15.9916 19.2977 15.7201 19.4423 15.485C19.4758 15.4573 19.5196 15.4471 19.5649 15.4529H19.8992C20.378 15.4529 20.7678 15.0631 20.7678 14.5829C20.7678 14.1785 20.8817 6.48215 26.686 3.46172V7.62959C26.686 7.75805 26.7152 7.8836 26.7707 7.99893C26.8306 8.1201 28.2452 11.0077 32.3765 11.0077C36.5064 11.0077 37.9269 8.11572 37.9838 7.99893C38.0364 7.8836 38.067 7.75805 38.0626 7.62959V3.87923C43.1502 7.12594 43.2714 14.1945 43.2714 14.5829C43.2714 15.0631 43.6612 15.4529 44.1385 15.4529H44.4743C44.5604 15.4529 44.5794 15.4529 44.5955 15.485C44.7429 15.7259 44.8115 16.0033 44.7984 16.2865V17.3186C44.8218 17.5463 44.7546 17.7741 44.613 17.9493C43.7619 17.7814 42.8816 18.05 42.2714 18.669H21.778C21.2802 18.1741 20.6043 17.9026 19.905 17.9099L19.8992 17.904ZM22.543 26.8821V20.4047H41.5181V26.8821C41.5108 31.431 37.8218 35.1127 33.2743 35.1083H30.7751C26.232 35.1069 22.5488 31.4266 22.543 26.8821ZM37.34 35.9711V37.2543L32.0189 44.0587L26.6379 37.2543V35.9346C27.9357 36.5375 29.3473 36.8485 30.7751 36.8499H33.2743C34.6773 36.8499 36.0641 36.5492 37.34 35.9711ZM21.6233 39.6222C23.2773 39.1171 24.7021 38.7317 25.4408 38.539L32.0305 46.8704L38.5459 38.539C39.2948 38.7361 40.7429 39.1171 42.4334 39.6441V49.5828H21.6043L21.6233 39.6222ZM50.0232 54.0324V62.8309H14.0554V54.0324C14.0554 51.4134 15.9941 51.0368 16.2014 51.0003C16.632 50.9404 16.9488 50.5725 16.9488 50.1404V41.2295C17.9021 40.8587 18.9152 40.5069 19.8992 40.1886V50.4514C19.8992 50.9317 20.2875 51.3214 20.7678 51.3214H43.3283C43.8072 51.3214 44.1969 50.9317 44.1969 50.4514V40.2061L47.1181 41.2295V50.1404C47.1181 50.574 47.4407 50.9448 47.8699 51.0003C47.959 51.012 50.0232 51.3214 50.0232 54.0324Z" fill="#E5963A"/>
<path d="M16.0645 52.939H20.7491V54.4952H16.0645V52.939Z" fill="#E5963A"/>
<path d="M43.3008 52.939H47.9884V54.4952H43.3008V52.939Z" fill="#E5963A"/>
</g>
<defs>
<clipPath id="clip0_2033_644">
<rect width="64" height="64" fill="white" transform="translate(0.0566406 0.550781)"/>
</clipPath>
</defs>
</svg>
